<?xml version="1.0" encoding="utf-8"?>
<!-- Generator: Adobe Illustrator 22.0.1, SVG Export Plug-In . SVG Version: 6.00 Build 0)  -->
<svg version="1.1" id="Layer_1" xmlns="http://www.w3.org/2000/svg" xmlns:xlink="http://www.w3.org/1999/xlink" x="0px" y="0px"
	 viewBox="0 0 510.8 99.2" style="enable-background:new 0 0 510.8 99.2;" xml:space="preserve">
<style type="text/css">
	.st0{fill:#FFFFFF;}
	.st1{clip-path:url(#SVGID_2_);fill:url(#SVGID_3_);}
	.st2{fill:#066938;}
</style>
<g>
	<path class="st0" d="M142.1,34.9c3,2.2,5.2,5.3,6.4,9.2h-4c-1.1-2.8-2.7-5-5.1-6.6s-5.3-2.5-8.8-2.5c-2.7,0-5.1,0.7-7.2,1.9
		c-2.2,1.3-3.8,3.2-5.1,5.7c-1.2,2.4-1.8,5.3-1.8,8.5c0,3.3,0.6,6.1,1.8,8.5c1.2,2.4,3,4.3,5.1,5.6c2.2,1.3,4.6,1.9,7.2,1.9
		c3.5,0,6.4-0.9,8.8-2.5c2.4-1.6,4-3.8,5.1-6.6h4c-1.2,3.9-3.4,7-6.4,9.2c-3,2.2-6.8,3.4-11.4,3.4c-3.6,0-6.7-0.9-9.4-2.5
		c-2.8-1.6-4.9-4-6.4-7c-1.5-3-2.3-6.3-2.3-10.2s0.8-7.2,2.3-10.2s3.7-5.3,6.4-7c2.8-1.6,6-2.5,9.4-2.5
		C135.3,31.5,139.1,32.6,142.1,34.9z"/>
	<path class="st0" d="M176.6,42c2.2,1.2,4,3,5.3,5.3c1.2,2.3,1.9,5,1.9,8.2c0,3.2-0.7,5.9-1.9,8.2c-1.2,2.3-3.1,4-5.3,5.3
		s-4.8,1.8-7.6,1.8c-2.8,0-5.4-0.6-7.7-1.8c-2.3-1.2-4-3-5.3-5.3c-1.2-2.3-1.9-5-1.9-8.1c0-3.2,0.7-5.9,1.9-8.2
		c1.2-2.3,3.1-4,5.3-5.3c2.3-1.2,4.8-1.8,7.7-1.8C171.9,40.3,174.4,40.7,176.6,42z M163.5,44.8c-1.6,0.9-3,2.2-4,4
		c-1.1,1.8-1.5,4-1.5,6.6c0,2.6,0.5,4.8,1.5,6.6c1.1,1.8,2.4,3.1,4,4c1.6,0.9,3.5,1.3,5.5,1.3c1.9,0,3.7-0.5,5.4-1.3
		c1.6-0.9,3-2.2,4-4c1.1-1.8,1.5-4,1.5-6.6c0-2.6-0.5-4.8-1.5-6.6s-2.4-3.2-4-4s-3.5-1.3-5.4-1.3C167.1,43.5,165.2,43.9,163.5,44.8z
		"/>
	<path class="st0" d="M194.5,30v40.4h-3.8V30H194.5z"/>
	<path class="st0" d="M206.7,30v40.4h-3.8V30H206.7z"/>
	<path class="st0" d="M235.4,42.6c2.1,1.5,3.6,3.7,4.4,6.2v-8.2h3.7v29.9h-3.7v-8.2c-0.8,2.6-2.3,4.7-4.4,6.2
		c-2.1,1.5-4.7,2.3-7.8,2.3c-2.7,0-5.1-0.6-7.2-1.8c-2.1-1.2-3.7-3-5-5.3c-1.2-2.3-1.7-5-1.7-8.1c0-3.2,0.6-5.9,1.7-8.2
		c1.2-2.3,2.8-4,4.9-5.3c2.1-1.2,4.5-1.8,7.3-1.8C230.7,40.2,233.3,40.9,235.4,42.6z M220.6,46.8c-2,2.1-3.1,5-3.1,8.7
		c0,3.7,1.1,6.6,3.1,8.7c2,2.1,4.7,3.2,8.1,3.2c2.1,0,4-0.5,5.7-1.4c1.7-1,3-2.4,4-4.2c1-1.8,1.4-3.8,1.4-6.2c0-2.4-0.5-4.4-1.4-6.2
		s-2.3-3.2-4-4.2c-1.7-1-3.6-1.4-5.7-1.4C225.3,43.5,222.6,44.6,220.6,46.8z"/>
	<path class="st0" d="M275,42c2.1,1.2,3.7,3,4.9,5.3c1.2,2.3,1.7,5,1.7,8.2c0,3.1-0.6,5.8-1.7,8.1c-1.2,2.3-2.8,4.1-4.9,5.3
		c-2.1,1.2-4.5,1.8-7.2,1.8c-3.1,0-5.7-0.8-7.8-2.3c-2.1-1.5-3.6-3.7-4.4-6.2v8.2h-3.8V30h3.8v18.8c0.8-2.6,2.3-4.7,4.4-6.2
		s4.7-2.3,7.8-2.3C270.5,40.2,272.9,40.7,275,42z M261,45.1c-1.7,1-3,2.4-3.9,4.2s-1.4,3.8-1.4,6.2c0,2.4,0.5,4.4,1.4,6.2
		c1,1.8,2.3,3.2,3.9,4.2c1.7,1,3.6,1.4,5.7,1.4c3.4,0,6.1-1.1,8.1-3.2c2-2.1,3-5,3-8.7c0-3.7-1-6.6-3-8.7s-4.7-3.2-8.1-3.2
		C264.7,43.5,262.7,44,261,45.1z"/>
	<path class="st0" d="M305.5,42.8c1.9,1.7,3.2,4,3.7,6.9h-3.7c-0.2-1.9-1.1-3.6-2.4-4.8s-3.2-1.9-5.5-1.9c-1.9,0-3.6,0.5-4.6,1.4
		c-1.2,1-1.6,2.2-1.6,3.8c0,1.2,0.4,2.2,1.1,2.9c0.7,0.8,1.6,1.2,2.7,1.6c1.1,0.4,2.5,0.8,4.2,1.2c2.2,0.5,3.9,1.1,5.3,1.5
		c1.3,0.6,2.5,1.3,3.5,2.5c1,1.2,1.4,2.7,1.4,4.6c0,2.4-0.9,4.3-2.7,5.9c-1.7,1.5-4.1,2.3-7,2.3c-3.5,0-6.2-0.9-8.5-2.5
		c-2.2-1.7-3.5-4-3.8-7h3.7c0.2,1.9,1.1,3.6,2.6,4.8s3.6,1.8,6.1,1.8c1.9,0,3.4-0.5,4.4-1.4s1.6-2.3,1.6-3.8c0-1.2-0.4-2.3-1.1-3.1
		c-0.8-0.8-1.6-1.3-2.7-1.7c-1.1-0.4-2.5-0.8-4.4-1.2c-2.1-0.5-3.8-1.1-5.2-1.5c-1.2-0.5-2.4-1.3-3.3-2.4s-1.3-2.5-1.3-4.4
		c0-2.4,0.9-4.4,2.7-5.9c1.8-1.5,4.2-2.2,7.3-2.2C300.9,40.2,303.5,41,305.5,42.8z"/>
	<path class="st0" d="M344.8,34.9c3,2.2,5.2,5.3,6.4,9.2h-4c-1.1-2.8-2.7-5-5.1-6.6s-5.3-2.5-8.8-2.5c-2.7,0-5.1,0.7-7.2,1.9
		c-2.2,1.3-3.8,3.2-5.1,5.7c-1.2,2.4-1.8,5.3-1.8,8.5c0,3.3,0.6,6.1,1.8,8.5c1.2,2.4,3,4.3,5.1,5.6c2.2,1.3,4.6,1.9,7.2,1.9
		c3.5,0,6.4-0.9,8.8-2.5c2.4-1.6,4-3.8,5.1-6.6h4c-1.2,3.9-3.4,7-6.4,9.2c-3,2.2-6.8,3.4-11.4,3.4c-3.6,0-6.7-0.9-9.4-2.5
		c-2.8-1.6-4.9-4-6.4-7c-1.5-3-2.3-6.3-2.3-10.2s0.8-7.2,2.3-10.2s3.7-5.3,6.4-7c2.8-1.6,6-2.5,9.4-2.5
		C338,31.5,341.7,32.6,344.8,34.9z"/>
	<path class="st0" d="M377.9,65.6c1.8-1.3,2.9-3.2,3.3-5.5h4c-0.6,3.2-2,5.8-4.5,7.7c-2.5,1.9-5.6,3-9.4,3c-2.9,0-5.4-0.6-7.6-1.8
		c-2.2-1.2-3.9-3-5.2-5.3c-1.2-2.3-1.8-5-1.8-8.2c0-3.2,0.6-5.9,1.8-8.2c1.2-2.3,3-4,5.2-5.3s4.7-1.8,7.6-1.8s5.5,0.6,7.6,1.8
		c2.1,1.2,3.7,2.9,4.9,4.9c1.2,2,1.6,4.2,1.6,6.6c0,1.1-0.1,1.9-0.2,2.8h-24.7c0,2.5,0.6,4.6,1.5,6.3c1,1.7,2.3,3,3.9,3.7
		s3.4,1.2,5.2,1.2C373.9,67.6,376.1,67,377.9,65.6z M366,44.5c-1.6,0.8-2.9,2-3.9,3.7c-1,1.6-1.5,3.7-1.6,6.2h21.1
		c0.2-2.4-0.3-4.5-1.2-6.1c-1-1.6-2.2-2.9-3.8-3.7c-1.6-0.8-3.4-1.2-5.3-1.2C369.4,43.2,367.6,43.7,366,44.5z"/>
	<path class="st0" d="M415.7,43.3c2.2,2.2,3.3,5.5,3.3,9.7v17.4h-3.7V53.3c0-3.3-0.9-5.8-2.5-7.5c-1.6-1.7-3.8-2.6-6.7-2.6
		c-3,0-5.4,1-7.1,2.9c-1.7,1.9-2.7,4.7-2.7,8.5v15.9h-3.8V40.5h3.8v7.3c0.8-2.6,2.1-4.5,4.1-5.9c2-1.3,4.3-2,6.9-2
		C410.7,40,413.6,41.1,415.7,43.3z"/>
	<path class="st0" d="M440.6,67v3.4H437c-2.9,0-5-0.7-6.4-2s-2.1-3.7-2.1-6.9V43.9h-4.5v-3.4h4.5v-7.5h3.8v7.6h8.2V44h-8.2v17.6
		c0,2.1,0.4,3.6,1.2,4.3c0.8,0.8,2.1,1.2,4,1.2L440.6,67L440.6,67z"/>
	<path class="st0" d="M455,41.8c1.9-1.2,4.3-1.7,7-1.7v4.1h-1.2c-2.9,0-5.3,0.8-7.2,2.3c-1.9,1.5-2.9,4-2.9,7.6v16.3h-3.8V40.5h3.8
		v6.1C451.6,44.6,453,42.9,455,41.8z"/>
	<path class="st0" d="M487.4,42.6c2.1,1.5,3.6,3.7,4.4,6.2v-8.2h3.7v29.9h-3.7v-8.2c-0.8,2.6-2.3,4.7-4.4,6.2s-4.7,2.3-7.8,2.3
		c-2.7,0-5.1-0.6-7.2-1.8c-2.1-1.2-3.7-3-5-5.3c-1.2-2.3-1.7-5-1.7-8.1c0-3.2,0.6-5.9,1.7-8.2c1.2-2.3,2.8-4,4.9-5.3
		s4.5-1.8,7.3-1.8C482.7,40.2,485.2,40.9,487.4,42.6z M472.5,46.8c-2,2.1-3.1,5-3.1,8.7c0,3.7,1.1,6.6,3.1,8.7
		c2,2.1,4.7,3.2,8.1,3.2c2.1,0,4-0.5,5.7-1.4c1.7-1,3-2.4,4-4.2c1-1.8,1.4-3.8,1.4-6.2c0-2.4-0.5-4.4-1.4-6.2s-2.3-3.2-4-4.2
		c-1.7-1-3.6-1.4-5.7-1.4C477.3,43.5,474.6,44.6,472.5,46.8z"/>
	<path class="st0" d="M507.8,30v40.4H504V30H507.8z"/>
</g>
<g>
	<g>
		<g>
			<defs>
				<path id="SVGID_1_" d="M48.7,95.4C48.7,95.4,48.7,95.2,48.7,95.4c0.2-0.1,0.5-0.2,0.6-0.5c0.2-0.4,0.1-0.7-0.1-1.1
					c-0.6-0.9-1.3-1.9-1.9-2.8l-0.1-0.1l-0.1-0.1l0,0l0,0c0,0-0.1-0.1-0.1-0.2c-0.2-0.2-0.7-0.7-0.4-0.9c0.4-0.2,0.5-0.2,0.6-0.2
					l0,0c0.2,0.1,0.4,0.5,0.5,0.6c0.1,0.2,0.4,0.5,0.5,0.6c0.1,0.1,0.1,0.2,0.2,0.2c0.7,1.1,1.4,2,2.2,2.9c0.4,0.5,1.2,0.6,1.9,0.5
					c0,0,0,0,0.1,0c0.2-0.1,0.5-0.2,0.6-0.4c0.5-0.4,0.6-1.1,0-1.9c-0.4-0.5-0.7-0.9-0.9-1.5c0,0,0-0.1-0.1-0.1
					c-0.6-0.9-1.3-1.9-1.9-2.8C50.2,87.4,50,87.1,50,87s0-0.2,0.2-0.4c0.4-0.2,0.6,0.1,0.7,0.4c0.7,1.1,1.5,2.1,2.2,3.2
					c0,0,0,0,0,0.1c0.4,0.5,0.7,1.1,1.1,1.5c0.5,0.6,1.1,0.8,1.8,0.6l0,0c0.2-0.1,0.5-0.1,0.7-0.4c0.7-0.5,0.8-1.2,0.2-2
					c0-0.1-0.1-0.1-0.1-0.2s-0.1-0.1-0.1-0.2c-0.6-0.8-1.2-1.6-1.8-2.5c-0.5-0.7-1.1-1.4-1.5-2.1c-0.2,0-0.5-0.1-0.5-0.4
					c0-0.1,0-0.1,0.1-0.2c0.2-0.2,0.6,0,0.7,0.2c0.2,0.2,0.5,0.6,0.7,0.8c1.1,1.3,2,2.7,3,4.1l0.1,0.1c0,0.1,0.1,0.1,0.1,0.2
					c0.4,0.4,0.7,0.5,1.1,0.4l0,0c0.1,0,0.4-0.1,0.5-0.2c0.1-0.1,0.4-0.2,0.4-0.4c0.2-0.2,0.5-0.5,0.5-0.8c0.1-0.4,0-0.8-0.4-1.4
					c-0.9-1.8-2-3.5-2.9-5.2c-0.2-0.5-0.6-0.8-1.1-1.1c-1.1-0.6-2.1-1.2-3.2-1.9c-1.8-1.1-3.5-1.8-5.5-2.1c-0.4,0-0.6-0.1-0.9-0.1
					c-0.2,0-0.5,0-0.7-0.1c-0.7,0-1.2,0.2-1.6,0.7c-0.7,0.9-1.5,1.8-2.6,2.2c-1.6,0.8-3.4,0.5-4.6-0.7c-0.5-0.5-0.6-0.9-0.2-1.5
					c0.4-0.6,0.7-1.2,1.1-1.9c0.6-0.9,1.1-1.9,1.4-3c-0.1,0-0.1,0-0.2,0c-0.2,0.1-0.6,0.1-0.8,0.2c-1.8,0.5-3.6,0.8-5.3-0.5
					c-0.1-0.1-0.2-0.2-0.4-0.2c-0.1-0.1-0.1-0.4,0-0.7c0.2-0.5,0.5-1.1,0.7-1.5c0.1-0.2,0.2-0.4,0.1-0.6c-0.7-0.4-1.3-0.8-2-1.3
					c-6.5-4.6-10.9-12.4-10.9-21.3c0-14.2,11.4-25.8,25.5-26.3V2.7C21.7,3.2,2.3,22.9,2.3,46.9c0,15.5,8,29.1,20.2,36.9
					c1.2,0.8,2.5,1.5,3.8,2.1c0.1-0.1,0.2-0.2,0.4-0.6c0.7-1.8,1.5-3.4,2.2-5.2c0,0.1,0.1,0.2,0.1,0.4c0,0.2,0,0.4-0.1,0.6
					c-0.1,0.6-0.2,1.2-0.4,1.9c0,0.2-0.1,0.5,0.2,0.6c2.6,1.2,4.8,2.8,6.6,5c0.5-0.5,0.8-0.9,1.2-1.3c1.5-1.4,3.6-0.9,4.3,0.9
					c0.2,0.6,0.4,0.6,0.9,0.5c1.3-0.4,2.5,0.2,2.9,1.5c0,0.1,0,0.1,0.1,0.2c0.1,0.4,0.4,0.4,0.7,0.2c0.4-0.1,0.7,0,1.1,0l0,0
					c0.4,0.1,0.6,0.4,0.8,0.7l0,0c0,0,0,0.1,0.1,0.1c0.5,0.8,0.6,1.6,0.4,2.6c-0.1,0.6,0,0.9,0.7,0.9h0.1
					C48.5,95.4,48.6,95.4,48.7,95.4"/>
			</defs>
			<clipPath id="SVGID_2_">
				<use xlink:href="#SVGID_1_"  style="overflow:visible;"/>
			</clipPath>
			
				<linearGradient id="SVGID_3_" gradientUnits="userSpaceOnUse" x1="-664.361" y1="131.3941" x2="-663.9468" y2="131.3941" gradientTransform="matrix(-37.7822 -310.8119 310.8119 -37.7822 -65902.3516 -201426.8125)">
				<stop  offset="0" style="stop-color:#ED6D70"/>
				<stop  offset="1" style="stop-color:#A61916"/>
			</linearGradient>
			<polygon class="st1" points="3.1,102.3 -8.8,4.1 59.5,-4.2 71.4,94.1 			"/>
		</g>
	</g>
	<path class="st0" d="M37.7,78c1.1-1.8,1.9-3.6,2.8-5.5c0.1-0.2,0.2-0.4,0.2-0.6c0.2-0.4,0.5-0.6,0.9-0.6c1.5-0.1,3-0.1,4.6-0.2
		c0.4,0,0.6,0,0.9,0c0.5,0,0.9,0,1.4-0.1c0.4,0,0.7,0.1,1.1,0.4c0.7,0.6,1.5,0.9,2.2,1.4c0.1,0.1,0.4,0.2,0.5,0.2
		c1.8,1.1,3.8,1.1,5.6,0.7c0.6-0.1,1.2-0.6,1.8-0.9c0.5-0.2,0.8-0.4,1.1,0.2c0.2,0.4,0.5,0.7,0.7,1.1l0,0c0.2,0.2,0.5,0.5,0.6,0.7
		c-0.4-0.9-0.8-1.9-1.2-2.7c-0.4-0.7-0.7-1.5-1.1-2.2c0-0.1-0.1-0.2-0.1-0.2c0.7-0.4,1.3-0.8,2-1.3c6.6-4.8,10.8-12.5,10.8-21.2
		c0-14.2-11.4-25.8-25.5-26.3V2.7c24,0.5,43.4,20.2,43.4,44.2c0,15.5-8.1,29.2-20.2,37.1c-0.9,0.6-2,1.2-2.9,1.8
		c-0.1,0-0.2-0.2-0.4-0.5c-0.2-0.6-0.6-1.2-0.8-1.9c-0.1-0.4-0.2-0.5-0.5-0.5c-0.1,0-0.2,0-0.5,0.1c-1.8,0.6-3,1.8-4.2,3.2
		c-0.4,0.5-0.6,0.5-0.8-0.1c-0.6-1.2-1.2-2.2-1.8-3.4c-0.2-0.4-0.4-0.7,0.2-0.8c0.2,0,0.5-0.2,0.6-0.6c-1.9,0.4-2.9-1.3-4.3-2
		c-1.6-0.8-3.2-1.8-4.8-2.6c-0.9-0.5-2-0.6-3-0.7c-0.4,0-0.6,0-0.9-0.1c-0.1,0-0.2,0-0.4,0c-0.7-0.1-1.6,0.1-1.6-1.2
		c-0.6,1.2-1.1,2.2-1.9,3.2c-0.9,0.9-1.9,1.6-3.3,1.5c-0.5,0-0.9-0.2-1.3-0.6C37.6,78.6,37.6,78.4,37.7,78"/>
	<path class="st0" d="M35.4,90.2c0.1-0.1,0.1-0.2,0.2-0.2c0-0.1,0.1-0.1,0.1-0.2l0,0c0.4-0.6,0.8-1.1,1.3-1.5
		c0.5-0.6,1.2-0.6,1.9-0.2c0.1,0,0.1,0.1,0.2,0.1c0,0,0.1,0,0.1,0.1c0.1,0.1,0.2,0.1,0.2,0.2l0,0l0,0l0,0l0,0l0,0c0,0,0,0.1,0.1,0.1
		c0,0,0,0.1,0.1,0.1c0,0,0,0,0,0.1l0,0l0,0c0,0.1,0,0.1,0.1,0.2v0.1c0,0,0,0,0,0.1c0,0.1,0,0.1,0,0.2v0.1c0,0.2-0.1,0.6-0.2,0.8
		c0,0,0,0,0,0.1c-0.4,1.1-1.2,1.9-2.1,2.6c-0.6,0.5-1.5,0.1-2-0.5C35,92.1,34.9,90.9,35.4,90.2"/>
	<path class="st2" d="M39.6,88.4L39.6,88.4L39.6,88.4L39.6,88.4z"/>
	<path class="st0" d="M39,93.1c0-0.2,0.1-0.5,0.2-0.8c0.4-0.6,0.8-1.2,1.2-1.8l0,0c0,0,0-0.1,0.1-0.1l0,0c0.6-0.7,1.6-0.8,2.3-0.4
		c0.2,0.1,0.4,0.4,0.5,0.5c0,0.1,0.1,0.1,0.1,0.2c0.2,0.5,0.1,1.1-0.1,1.5c-0.5,0.7-0.7,1.5-1.3,2.1c-0.5,0.5-1.2,0.7-1.9,0.4
		C39.6,94.5,39,94.1,39,93.1"/>
	<path class="st0" d="M46,92.1c0.1,0,0.2,0.1,0.2,0.2c0.4,0.4,0.5,0.9,0.6,1.3c0,0.6-0.2,1.2-0.6,1.6c-0.4,0.5-0.7,0.7-1.3,0.9
		c-0.6,0.2-1.2,0.1-1.5-0.4c-0.5-0.5-0.6-1.1-0.4-1.8c0.4-0.7,0.8-1.3,1.4-1.8C45,92.1,45.5,91.8,46,92.1"/>
	<path class="st0" d="M31.2,89.3C31.2,89.3,31.2,89.1,31.2,89.3c0-0.4,0.1-0.6,0.1-0.8v-0.1c0.1-0.4,0.2-0.6,0.4-0.7l0.1-0.1
		c0,0,0.1,0,0.1-0.1H32h0.1h0.1c0,0,0,0,0.1,0h0.1c0,0,0,0,0.1,0c0,0,0,0,0.1,0c0,0,0,0,0.1,0l0,0c0,0,0,0,0.1,0.1s0.2,0.2,0.4,0.4
		c0.4,0.4,0.7,0.8,1.1,1.3c0,0,0,0,0,0.1l0,0c0.1,0.1,0.1,0.4,0.1,0.5c0,0.1-0.1,0.4-0.2,0.5c-0.5,0.5-1.5,0.7-2.2,0.5
		C31.4,90.4,31.2,90,31.2,89.3"/>
</g>
</svg>
