<?xml version="1.0" encoding="utf-8"?>
<!-- Generator: Adobe Illustrator 22.0.1, SVG Export Plug-In . SVG Version: 6.00 Build 0)  -->
<svg version="1.1" id="Layer_1" xmlns="http://www.w3.org/2000/svg" xmlns:xlink="http://www.w3.org/1999/xlink" x="0px" y="0px"
	 viewBox="0 0 283.5 283.5" style="enable-background:new 0 0 283.5 283.5;" xml:space="preserve">
<style type="text/css">
	.st0{clip-path:url(#SVGID_2_);fill:url(#SVGID_3_);}
	.st1{fill:#066938;}
</style>
<g>
	<g>
		<g>
			<g>
				<defs>
					<path id="SVGID_1_" d="M148.5,274.5C148.5,274.5,148.5,273.9,148.5,274.5c0.6-0.3,1.4-0.6,1.7-1.4c0.6-1.2,0.3-2-0.3-3.2
						c-1.7-2.6-3.8-5.5-5.5-8.1l-0.3-0.3l-0.3-0.3l0,0l0,0c0,0-0.3-0.3-0.3-0.6c-0.6-0.6-2-2-1.2-2.6c1.2-0.6,1.4-0.6,1.7-0.6l0,0
						c0.6,0.3,1.2,1.4,1.4,1.7c0.3,0.6,1.2,1.4,1.4,1.7c0.3,0.3,0.3,0.6,0.6,0.6c2,3.2,4,5.8,6.4,8.4c1.2,1.4,3.5,1.7,5.5,1.4
						c0,0,0,0,0.3,0c0.6-0.3,1.4-0.6,1.7-1.2c1.4-1.2,1.7-3.2,0-5.5c-1.2-1.4-2-2.6-2.6-4.3c0,0,0-0.3-0.3-0.3
						c-1.7-2.6-3.8-5.5-5.5-8.1c-0.3-0.6-0.9-1.4-0.9-1.7c0-0.3,0-0.6,0.6-1.2c1.2-0.6,1.7,0.3,2,1.2c2,3.2,4.3,6.1,6.4,9.2
						c0,0,0,0,0,0.3c1.2,1.4,2,3.2,3.2,4.3c1.4,1.7,3.2,2.3,5.2,1.7l0,0c0.6-0.3,1.4-0.3,2-1.2c2-1.4,2.3-3.5,0.6-5.8
						c0-0.3-0.3-0.3-0.3-0.6c0-0.3-0.3-0.3-0.3-0.6c-1.7-2.3-3.5-4.6-5.2-7.2c-1.4-2-3.2-4-4.3-6.1c-0.6,0-1.4-0.3-1.4-1.2
						c0-0.3,0-0.3,0.3-0.6c0.6-0.6,1.7,0,2,0.6c0.6,0.6,1.4,1.7,2,2.3c3.2,3.8,5.8,7.8,8.7,11.8l0.3,0.3c0,0.3,0.3,0.3,0.3,0.6
						c1.2,1.2,2,1.4,3.2,1.2l0,0c0.3,0,1.2-0.3,1.4-0.6c0.3-0.3,1.2-0.6,1.2-1.2c0.6-0.6,1.4-1.4,1.4-2.3c0.3-1.2,0-2.3-1.2-4
						c-2.6-5.2-5.8-10.1-8.4-15c-0.6-1.4-1.7-2.3-3.2-3.2c-3.2-1.7-6.1-3.5-9.2-5.5c-5.2-3.2-10.1-5.2-15.9-6.1
						c-1.2,0-1.7-0.3-2.6-0.3c-0.6,0-1.4,0-2-0.3c-2,0-3.5,0.6-4.6,2c-2,2.6-4.3,5.2-7.5,6.4c-4.6,2.3-9.8,1.4-13.3-2
						c-1.4-1.4-1.7-2.6-0.6-4.3c1.2-1.7,2-3.5,3.2-5.5c1.7-2.6,3.2-5.5,4-8.7c-0.3,0-0.3,0-0.6,0c-0.6,0.3-1.7,0.3-2.3,0.6
						c-5.2,1.4-10.4,2.3-15.3-1.4c-0.3-0.3-0.6-0.6-1.2-0.6c-0.3-0.3-0.3-1.2,0-2c0.6-1.4,1.4-3.2,2-4.3c0.3-0.6,0.6-1.2,0.3-1.7
						c-2-1.2-3.8-2.3-5.8-3.8c-18.8-13.3-31.5-35.8-31.5-61.5c0-41,32.9-74.5,73.7-76V6.7C70.5,8.1,14.5,65.1,14.5,134.4
						c0,44.8,23.1,84.1,58.4,106.6c3.5,2.3,7.2,4.3,11,6.1c0.3-0.3,0.6-0.6,1.2-1.7c2-5.2,4.3-9.8,6.4-15c0,0.3,0.3,0.6,0.3,1.2
						c0,0.6,0,1.2-0.3,1.7c-0.3,1.7-0.6,3.5-1.2,5.5c0,0.6-0.3,1.4,0.6,1.7c7.5,3.5,13.9,8.1,19.1,14.4c1.4-1.4,2.3-2.6,3.5-3.8
						c4.3-4,10.4-2.6,12.4,2.6c0.6,1.7,1.2,1.7,2.6,1.4c3.8-1.2,7.2,0.6,8.4,4.3c0,0.3,0,0.3,0.3,0.6c0.3,1.2,1.2,1.2,2,0.6
						c1.2-0.3,2,0,3.2,0l0,0c1.2,0.3,1.7,1.2,2.3,2l0,0c0,0,0,0.3,0.3,0.3c1.4,2.3,1.7,4.6,1.2,7.5c-0.3,1.7,0,2.6,2,2.6h0.3
						C148,274.5,148.2,274.5,148.5,274.5"/>
				</defs>
				<clipPath id="SVGID_2_">
					<use xlink:href="#SVGID_1_"  style="overflow:visible;"/>
				</clipPath>
				
					<linearGradient id="SVGID_3_" gradientUnits="userSpaceOnUse" x1="-943.587" y1="307.6073" x2="-942.3903" y2="307.6073" gradientTransform="matrix(-37.7822 -310.8119 -310.8119 37.7822 60073.4297 -304611.9688)">
					<stop  offset="0" style="stop-color:#ED6D70"/>
					<stop  offset="1" style="stop-color:#A61916"/>
				</linearGradient>
				<polygon class="st0" points="16.8,294.4 -17.6,10.7 179.7,-13.2 214.1,270.7 				"/>
			</g>
		</g>
	</g>
	<path d="M116.8,224.2c3.2-5.2,5.5-10.4,8.1-15.9c0.3-0.6,0.6-1.2,0.6-1.7c0.6-1.2,1.4-1.7,2.6-1.7c4.3-0.3,8.7-0.3,13.3-0.6
		c1.2,0,1.7,0,2.6,0c1.4,0,2.6,0,4-0.3c1.2,0,2,0.3,3.2,1.2c2,1.7,4.3,2.6,6.4,4c0.3,0.3,1.2,0.6,1.4,0.6c5.2,3.2,11,3.2,16.2,2
		c1.7-0.3,3.5-1.7,5.2-2.6c1.4-0.6,2.3-1.2,3.2,0.6c0.6,1.2,1.4,2,2,3.2l0,0c0.6,0.6,1.4,1.4,1.7,2c-1.2-2.6-2.3-5.5-3.5-7.8
		c-1.2-2-2-4.3-3.2-6.4c0-0.3-0.3-0.6-0.3-0.6c2-1.2,3.8-2.3,5.8-3.8c19.1-13.9,31.2-36.1,31.2-61.2c0-41-32.9-74.5-73.7-76V6.7
		C213,8.1,269,65.1,269,134.4c0,44.8-23.4,84.4-58.4,107.2c-2.6,1.7-5.8,3.5-8.4,5.2c-0.3,0-0.6-0.6-1.2-1.4
		c-0.6-1.7-1.7-3.5-2.3-5.5c-0.3-1.2-0.6-1.4-1.4-1.4c-0.3,0-0.6,0-1.4,0.3c-5.2,1.7-8.7,5.2-12.1,9.2c-1.2,1.4-1.7,1.4-2.3-0.3
		c-1.7-3.5-3.5-6.4-5.2-9.8c-0.6-1.2-1.2-2,0.6-2.3c0.6,0,1.4-0.6,1.7-1.7c-5.5,1.2-8.4-3.8-12.4-5.8c-4.6-2.3-9.2-5.2-13.9-7.5
		c-2.6-1.4-5.8-1.7-8.7-2c-1.2,0-1.7,0-2.6-0.3c-0.3,0-0.6,0-1.2,0c-2-0.3-4.6,0.3-4.6-3.5c-1.7,3.5-3.2,6.4-5.5,9.2
		c-2.6,2.6-5.5,4.6-9.5,4.3c-1.4,0-2.6-0.6-3.8-1.7C116.5,226,116.5,225.4,116.8,224.2"/>
	<path d="M110.1,259.5c0.3-0.3,0.3-0.6,0.6-0.6c0-0.3,0.3-0.3,0.3-0.6l0,0c1.2-1.7,2.3-3.2,3.8-4.3c1.4-1.7,3.5-1.7,5.5-0.6
		c0.3,0,0.3,0.3,0.6,0.3c0,0,0.3,0,0.3,0.3c0.3,0.3,0.6,0.3,0.6,0.6l0,0l0,0l0,0l0,0l0,0c0,0,0,0.3,0.3,0.3c0,0,0,0.3,0.3,0.3
		c0,0,0,0,0,0.3l0,0l0,0c0,0.3,0,0.3,0.3,0.6v0.3c0,0,0,0,0,0.3c0,0.3,0,0.3,0,0.6v0.3c0,0.6-0.3,1.7-0.6,2.3c0,0,0,0,0,0.3
		c-1.2,3.2-3.5,5.5-6.1,7.5c-1.7,1.4-4.3,0.3-5.8-1.4C109,265,108.7,261.5,110.1,259.5"/>
	<path class="st1" d="M122.3,254.3L122.3,254.3L122.3,254.3L122.3,254.3z"/>
	<path d="M120.5,267.8c0-0.6,0.3-1.4,0.6-2.3c1.2-1.7,2.3-3.5,3.5-5.2l0,0c0,0,0-0.3,0.3-0.3l0,0c1.7-2,4.6-2.3,6.6-1.2
		c0.6,0.3,1.2,1.2,1.4,1.4c0,0.3,0.3,0.3,0.3,0.6c0.6,1.4,0.3,3.2-0.3,4.3c-1.4,2-2,4.3-3.8,6.1c-1.4,1.4-3.5,2-5.5,1.2
		C122.3,271.9,120.5,270.7,120.5,267.8"/>
	<path d="M140.7,265c0.3,0,0.6,0.3,0.6,0.6c1.2,1.2,1.4,2.6,1.7,3.8c0,1.7-0.6,3.5-1.7,4.6c-1.2,1.4-2,2-3.8,2.6
		c-1.7,0.6-3.5,0.3-4.3-1.2c-1.4-1.4-1.7-3.2-1.2-5.2c1.2-2,2.3-3.8,4-5.2C137.9,265,139.3,264.1,140.7,265"/>
	<path d="M98,256.9C98,256.9,98,256.3,98,256.9c0-1.2,0.3-1.7,0.3-2.3v-0.3c0.3-1.2,0.6-1.7,1.2-2l0.3-0.3c0,0,0.3,0,0.3-0.3h0.3
		h0.3h0.3c0,0,0,0,0.3,0h0.3c0,0,0,0,0.3,0c0,0,0,0,0.3,0c0,0,0,0,0.3,0l0,0c0,0,0,0,0.3,0.3c0.3,0.3,0.6,0.6,1.2,1.2
		c1.2,1.2,2,2.3,3.2,3.8c0,0,0,0,0,0.3l0,0c0.3,0.3,0.3,1.2,0.3,1.4s-0.3,1.2-0.6,1.4c-1.4,1.4-4.3,2-6.4,1.4
		C98.6,260,98,258.9,98,256.9"/>
</g>
</svg>
