<?xml version="1.0" encoding="utf-8"?>
<!-- Generator: Adobe Illustrator 22.0.1, SVG Export Plug-In . SVG Version: 6.00 Build 0)  -->
<svg version="1.1" id="Layer_1" xmlns="http://www.w3.org/2000/svg" xmlns:xlink="http://www.w3.org/1999/xlink" x="0px" y="0px"
	 viewBox="0 0 288.2 58" style="enable-background:new 0 0 288.2 58;" xml:space="preserve">
<style type="text/css">
	.st0{fill:none;}
	.st1{fill:#FFFFFF;}
</style>
<rect y="0" class="st0" width="288" height="58"/>
<path class="st1" d="M2,49.1V48h1.3c0.9,0.1,1.8-0.1,2.7-0.5c0.6-0.3,1.1-0.8,1.4-1.5c0.3-1.2,0.3-2.5,0.3-3.7V15.8
	c0.1-1.3,0-2.6-0.3-3.8c-0.3-0.6-0.8-1.1-1.4-1.4c-0.8-0.4-1.8-0.6-2.7-0.6H2V9h18c4.8,0,8.7,0.6,11.6,1.9c3.4,1.5,6.3,4,8.1,7.3
	c1.9,3.4,2.8,7.2,2.8,11c0,2.7-0.4,5.3-1.4,7.8c-0.8,2.2-2,4.2-3.5,5.9c-1.4,1.5-3.1,2.8-5,3.7c-2.2,1-4.5,1.8-6.9,2.2
	c-1.9,0.3-3.8,0.4-5.7,0.4L2,49.1z M17.3,11.2v31.3c-0.1,1,0,2,0.2,3c0.2,0.4,0.4,0.7,0.8,0.9c0.7,0.3,1.5,0.5,2.3,0.4
	c2.9,0.2,5.7-1.1,7.5-3.4c2.4-3,3.6-7.7,3.6-14.1c0-5.2-0.8-9.3-2.4-12.4c-1.1-2.2-2.8-3.9-5-4.9C23,11.5,20.6,11.2,17.3,11.2z"/>
<path class="st1" d="M70.5,34.3H55.3c0.2,3.7,1.2,6.6,2.9,8.7c1.2,1.5,3,2.4,4.9,2.5c1.2,0,2.3-0.3,3.2-1c1.3-1,2.3-2.2,3.1-3.6
	l1,0.7c-1.1,2.5-2.8,4.8-5,6.5c-1.8,1.3-4.1,1.9-6.3,1.9c-3.7,0.2-7.3-1.6-9.3-4.7c-1.8-2.8-2.7-6.1-2.5-9.5c0-4.6,1.2-8.3,3.7-11
	c2.2-2.6,5.4-4.1,8.8-4.1c2.8,0,5.5,1.2,7.3,3.4C69.2,26.3,70.3,29.7,70.5,34.3z M63.2,32.3c0.1-2.2-0.1-4.4-0.5-6.5
	c-0.3-1-0.8-2-1.6-2.7c-0.5-0.4-1.1-0.6-1.7-0.5c-1,0-2,0.6-2.5,1.5c-1.3,2.2-1.9,4.7-1.8,7.2v1L63.2,32.3z"/>
<path class="st1" d="M85.3,21.4V25c1.2-1.3,2.6-2.5,4.1-3.4c1.3-0.7,2.7-1,4.2-1c1.6-0.1,3.2,0.4,4.4,1.5c1.2,1,2,2.3,2.4,3.7
	c0.4,2.1,0.6,4.3,0.5,6.5v10.8c0,2.1,0.2,3.5,0.6,4c0.6,0.6,1.5,1,2.4,1v1.1h-14V48c0.9-0.1,1.7-0.5,2.2-1.3
	c0.4-1.2,0.6-2.4,0.5-3.7V30.7c0.1-1.4,0-2.9-0.3-4.3c-0.1-0.5-0.5-1-0.9-1.4c-0.4-0.3-0.9-0.5-1.4-0.5c-1.7,0-3.3,1.2-4.7,3.6v14.8
	c0,2.1,0.2,3.4,0.6,3.9c0.5,0.6,1.3,1,2.2,1v1.1H74V48c1,0,1.9-0.4,2.5-1.1c0.3-0.4,0.5-1.7,0.5-3.8V27.4c0-2.1-0.2-3.4-0.6-3.9
	c-0.6-0.6-1.5-1-2.4-1v-1.1L85.3,21.4z"/>
<path class="st1" d="M118.7,11.3v10.1h6.6v2.9h-6.6v17.1c0,1,0,2.1,0.2,3.1c0.1,0.4,0.4,0.8,0.8,1.1c0.3,0.2,0.6,0.4,1,0.4
	c1.3,0,2.5-1,3.6-2.9l0.9,0.7c-1.6,3.8-4.2,5.7-7.8,5.7c-1.6,0-3.2-0.5-4.4-1.5c-1.1-0.8-1.9-2-2.3-3.3c-0.3-1.8-0.4-3.6-0.3-5.4
	v-15h-3.6v-1c2.3-1.6,4.4-3.5,6.3-5.5c1.8-2,3.3-4.1,4.6-6.5L118.7,11.3z"/>
<path class="st1" d="M151.3,34.3h-15.2c0,3.2,1,6.2,2.9,8.7c1.2,1.5,3,2.4,4.9,2.4c1.2,0,2.3-0.3,3.2-1c1.3-1,2.3-2.2,3.1-3.6l1,0.7
	c-1.1,2.5-2.8,4.8-5,6.5c-1.9,1.3-4.1,1.9-6.3,1.9c-3.7,0.2-7.3-1.6-9.3-4.7c-1.8-2.8-2.7-6.1-2.5-9.5c0-4.6,1.2-8.3,3.7-11
	c2.2-2.6,5.4-4.1,8.8-4.1c2.8,0,5.5,1.2,7.3,3.4C150.1,26.3,151.2,29.7,151.3,34.3z M144,32.3c0.1-2.2-0.1-4.4-0.5-6.5
	c-0.3-1-0.8-2-1.6-2.7c-0.5-0.4-1.1-0.6-1.6-0.5c-1,0-2,0.6-2.5,1.5c-1.3,2.2-1.9,4.7-1.7,7.2v1L144,32.3z"/>
<path class="st1" d="M172.3,20.7l0.4,9.4h-1c-1.2-2.8-2.5-4.7-3.8-5.7c-1.1-0.9-2.4-1.5-3.9-1.5c-0.8,0-1.5,0.3-2.1,0.8
	c-0.5,0.5-0.9,1.2-0.9,1.9c0,0.6,0.2,1.1,0.6,1.5c1.6,1.6,3.4,3,5.3,4.2c2.2,1.3,4.1,3,5.7,5c0.9,1.4,1.4,3,1.4,4.6
	c0,1.6-0.4,3.1-1.2,4.5c-0.7,1.4-1.9,2.6-3.3,3.4c-1.4,0.8-3,1.2-4.6,1.2c-1.8-0.1-3.6-0.5-5.3-1.2c-0.4-0.2-0.8-0.3-1.2-0.3
	c-0.6,0-1.2,0.5-1.6,1.5h-1l-0.5-10h1c0.7,2.2,1.9,4.3,3.7,5.9c1.2,1.2,2.7,1.9,4.4,2c0.9,0,1.7-0.3,2.3-0.9
	c0.6-0.5,0.9-1.3,0.9-2.1c0-0.9-0.3-1.8-0.9-2.5c-1.2-1.2-2.6-2.2-4-3.1c-2.1-1.4-4.1-3-5.9-4.8c-1.3-1.5-2-3.4-2-5.4
	c0-2.1,0.8-4.2,2.2-5.8c1.6-1.8,4-2.7,6.4-2.6c1.5,0,3,0.4,4.4,1.1c0.4,0.3,0.8,0.4,1.3,0.5c0.3,0,0.6-0.1,0.9-0.2
	c0.4-0.4,0.7-0.8,1-1.2L172.3,20.7z"/>
<path class="st1" d="M229.8,35l-1.5,14.1h-35.6V48h1.4c1,0,1.9-0.2,2.8-0.6c0.5-0.3,1-0.8,1.2-1.4c0.3-1.2,0.4-2.5,0.3-3.7V15.8
	c0.1-1.3,0-2.6-0.3-3.8c-0.3-0.6-0.7-1.1-1.3-1.4c-0.8-0.4-1.8-0.6-2.7-0.6h-1.3V9H214v1.1h-1.7c-1,0-2,0.2-2.8,0.6
	c-0.5,0.3-1,0.8-1.2,1.4c-0.3,1.2-0.4,2.5-0.3,3.7v25.5c-0.1,1.3,0,2.6,0.4,3.9c0.3,0.6,0.8,1,1.4,1.3c1.2,0.2,2.4,0.3,3.6,0.3h3.4
	c1.8,0.1,3.7-0.3,5.3-1.1c1.5-0.8,2.8-2.1,3.7-3.5c1.3-2.2,2.3-4.7,3-7.2H229.8z"/>
<path class="st1" d="M257.4,34.3h-15.2c0,3.2,1,6.2,2.9,8.7c1.2,1.5,3,2.4,4.9,2.5c1.2,0,2.3-0.3,3.2-1c1.3-1,2.3-2.2,3.1-3.6l1,0.7
	c-1.1,2.5-2.8,4.8-5,6.5c-1.9,1.3-4.1,1.9-6.3,1.9c-3.7,0.2-7.3-1.6-9.3-4.7c-1.8-2.8-2.7-6.1-2.6-9.5c0-4.6,1.2-8.3,3.8-11
	c2.2-2.6,5.4-4.1,8.8-4.1c2.8,0,5.5,1.2,7.3,3.4C256.2,26.3,257.3,29.7,257.4,34.3z M250.1,32.3c0.1-2.2-0.1-4.4-0.5-6.5
	c-0.3-1-0.8-2-1.6-2.7c-0.5-0.4-1.1-0.6-1.7-0.5c-1,0-2,0.6-2.5,1.5c-1.3,2.2-1.9,4.7-1.8,7.2v1L250.1,32.3z"/>
<path class="st1" d="M273.9,20.6c2.4,0,4.7,0.6,6.7,1.9c2.1,1.2,3.7,3.1,4.7,5.3c1.1,2.4,1.6,4.9,1.6,7.5c0.1,3.5-0.9,7-3,9.9
	c-2.3,3.2-6.1,5-10,4.8c-4.2,0-7.4-1.5-9.6-4.4c-2.2-2.9-3.4-6.5-3.4-10.1c-0.1-3.8,1.2-7.4,3.5-10.4
	C266.7,22.1,270.3,20.4,273.9,20.6z M274.1,22.7c-1,0-1.9,0.4-2.6,1.1c-0.7,0.8-1.2,2.3-1.4,4.5s-0.3,5.4-0.3,9.3c0,2,0.1,4,0.4,5.9
	c0.1,1.2,0.6,2.3,1.4,3.2c1.2,1.3,3.2,1.5,4.6,0.3c0.8-0.7,1.4-1.7,1.5-2.8c0.5-3.8,0.7-7.5,0.6-11.3c0.1-2.3-0.1-4.6-0.6-6.9
	c-0.3-1.1-0.8-2-1.6-2.7C275.5,22.9,274.8,22.7,274.1,22.7z"/>
</svg>
