<?xml version="1.0" encoding="utf-8"?>
<!-- Generator: Adobe Illustrator 22.0.1, SVG Export Plug-In . SVG Version: 6.00 Build 0)  -->
<svg version="1.1" id="Layer_1" xmlns="http://www.w3.org/2000/svg" xmlns:xlink="http://www.w3.org/1999/xlink" x="0px" y="0px"
	 viewBox="0 0 217.5 58" style="enable-background:new 0 0 217.5 58;" xml:space="preserve">
<style type="text/css">
	.st0{fill:none;}
	.st1{fill:#FFFFFF;}
</style>
<title>ego</title>
<g id="Layer_2_1_">
	<g id="Layer_1-2">
		<rect x="0.3" y="0" class="st0" width="217.2" height="58"/>
		<path class="st1" d="M31.1,0.1v7.8H12.7c-1,0.1-2,0.7-2.7,1.4S8.9,11,8.9,12.1S9.2,14.2,10,15c0.7,0.8,1.7,1.2,2.8,1.3h18.3v7.9
			h-18c-1.1,0-2.2,0.5-3,1.3s-1.2,1.8-1.2,3c0,1,0.3,2,1,2.8c0.7,0.8,1.5,1.3,2.5,1.5h18.7v7.8H12.8c-1.6,0-3.2-0.3-4.7-1
			C6.7,39,5.4,38.1,4.3,37s-2-2.4-2.6-3.8c-1.2-2.9-1.2-6.2-0.1-9.1c0.6-1.4,1.3-2.6,2.3-3.7c-1-1.1-1.8-2.3-2.3-3.7
			c-0.6-1.4-0.9-3-0.9-4.5C0.7,10.6,1,9,1.6,7.6s1.5-2.7,2.6-3.8s2.4-2,3.8-2.6c1.5-0.7,3-1,4.7-1L31.1,0.1z"/>
		<path class="st1" d="M50.3,56.5c-2.1,0-4.3-0.4-6.2-1.2c-3.8-1.6-6.9-4.7-8.5-8.5c-0.8-2-1.3-4.1-1.2-6.2h8.2c0,1,0.2,2.1,0.6,3
			c0.8,1.9,2.3,3.4,4.2,4.2c2.9,1.2,6.3,0.6,8.6-1.6c1.5-1.5,2.3-3.5,2.3-5.5v-2c-7.7,4.3-17.5,1.6-21.8-6.1c-1.3-2.4-2.1-5.1-2-7.9
			c0-2.1,0.4-4.3,1.2-6.2c1.6-3.8,4.7-6.9,8.5-8.5c4-1.7,8.5-1.7,12.5,0c3.8,1.6,6.9,4.7,8.5,8.5c0.8,2,1.3,4.1,1.2,6.2v16
			c0,2.1-0.4,4.3-1.2,6.2c-1.6,3.8-4.7,6.9-8.5,8.5C54.6,56.1,52.4,56.5,50.3,56.5z M50.3,32.2c1,0,2-0.2,2.9-0.6s1.7-0.9,2.4-1.6
			s1.3-1.5,1.7-2.4s0.7-1.9,0.7-2.9v-0.3c0-1-0.2-2-0.6-3c-0.8-1.9-2.3-3.4-4.2-4.2c-1.9-0.8-4.1-0.8-6.1,0c-0.9,0.4-1.8,1-2.5,1.7
			c-2.2,2.3-2.9,5.6-1.7,8.6c0.8,1.9,2.3,3.4,4.2,4.2C48.2,32.1,49.2,32.3,50.3,32.2z"/>
		<path class="st1" d="M85.5,8.4c2.1,0,4.3,0.4,6.2,1.2c3.8,1.6,6.9,4.7,8.5,8.5c0.8,2,1.3,4.1,1.2,6.2c0,2.1-0.4,4.3-1.2,6.2
			c-1.6,3.8-4.7,6.9-8.5,8.5c-6,2.6-13,1.2-17.6-3.4c-1.5-1.5-2.6-3.2-3.4-5.1c-1.7-4-1.7-8.5,0-12.5c1.6-3.8,4.7-6.9,8.5-8.5
			C81.2,8.8,83.4,8.4,85.5,8.4z M85.5,32.2c2.1,0,4.1-0.8,5.5-2.2c2.2-2.3,2.9-5.6,1.7-8.6c-1.7-4-6.3-5.8-10.2-4.2
			c-0.9,0.4-1.8,1-2.5,1.7c-2.2,2.3-2.9,5.6-1.7,8.6c0.8,1.9,2.3,3.4,4.2,4.2C83.4,32.1,84.5,32.3,85.5,32.2z"/>
		<path class="st1" d="M124.1,1.7c4.8,2.1,8.7,5.9,10.7,10.7c1.1,2.5,1.6,5.2,1.6,7.8c0,2.7-0.5,5.3-1.6,7.8c-1,2.4-2.5,4.6-4.3,6.4
			c-1.8,1.8-4,3.3-6.4,4.4c-2.5,1.1-5.1,1.6-7.8,1.6h-11.7v-8.1h11.6c1.6,0,3.2-0.3,4.7-1c2.9-1.3,5.2-3.5,6.4-6.4
			c1.3-3,1.3-6.4,0-9.3c-1.2-2.9-3.5-5.2-6.4-6.4c-1.5-0.7-3.1-1-4.7-1h-11.6V0.1h11.5C118.9,0.1,121.6,0.6,124.1,1.7z"/>
		<path class="st1" d="M163.4,24.4c0-1-0.2-2.1-0.6-3c-0.8-1.9-2.3-3.4-4.2-4.2c-3.9-1.7-8.5,0.1-10.2,4.1v0.1c-0.4,1-0.6,2-0.6,3
			v16h-8.1v-16c0-2.1,0.4-4.3,1.2-6.2c1.6-3.8,4.7-6.9,8.5-8.5c4-1.7,8.5-1.7,12.5,0c1.9,0.8,3.6,2,5.1,3.4c1.5,1.5,2.6,3.2,3.4,5.1
			c0.8,2,1.3,4.1,1.2,6.3h-8.2V24.4z"/>
		<path class="st1" d="M174.8,8.4V0.1h8.2v8.3C183,8.4,174.8,8.4,174.8,8.4z M183,10.5v30h-8.2v-30H183z"/>
		<path class="st1" d="M184.3,8.4h8.8l7.5,20.4l7.5-20.4h8.8l-11.8,32H196L184.3,8.4z"/>
	</g>
</g>
</svg>
