<?xml version="1.0" encoding="utf-8"?>
<!-- Generator: Adobe Illustrator 22.0.1, SVG Export Plug-In . SVG Version: 6.00 Build 0)  -->
<svg version="1.1" id="Layer_1" xmlns="http://www.w3.org/2000/svg" xmlns:xlink="http://www.w3.org/1999/xlink" x="0px" y="0px"
	 viewBox="0 0 311.7 56.7" style="enable-background:new 0 0 311.7 56.7;" xml:space="preserve">
<style type="text/css">
	.st0{fill:none;stroke:#FFFFFF;stroke-width:0.15;stroke-miterlimit:10;}
	.st1{fill:#FFFFFF;}
</style>
<title>billboard</title>
<g id="Layer_2_1_">
	<g id="Layer_1-2">
		<polygon class="st0" points="281.2,17.2 267.3,17.2 267.3,3.3 0,3.3 0,45.8 295.2,45.8 295.2,32.3 281.2,32.3 		"/>
		<path class="st1" d="M1.1,50.4h1.7V55h3v1.5H1.1V50.4z"/>
		<path class="st1" d="M8.8,50.4h4.9v1.5h-3.3v0.9h2.9v1.3h-2.9v1h3.3v1.5h-5L8.8,50.4z"/>
		<path class="st1" d="M19.1,50.3h1.6l2.6,6.2h-1.8l-0.5-1.1h-2.4l-0.4,1.1h-1.8L19.1,50.3z M20.6,54.1l-0.7-1.8l-0.7,1.8H20.6z"/>
		<path class="st1" d="M26.2,50.4h2.9c0.4,0,0.8,0,1.2,0.2c0.3,0.1,0.6,0.3,0.8,0.5c0.4,0.4,0.6,0.9,0.5,1.4l0,0
			c0,0.4-0.1,0.8-0.3,1.2c-0.2,0.3-0.6,0.6-0.9,0.7l1.5,2.1H30l-1.2-1.9H28v1.9h-1.8V50.4z M29.1,53.3c0.2,0,0.5-0.1,0.7-0.2
			c0.2-0.1,0.2-0.3,0.2-0.5l0,0c0-0.2-0.1-0.4-0.2-0.5c-0.2-0.1-0.4-0.2-0.7-0.2H28v1.5L29.1,53.3z"/>
		<path class="st1" d="M34.9,50.4h1.6l2.5,3.2v-3.2h1.7v6.2h-1.5l-2.6-3.4v3.4h-1.7V50.4z"/>
		<path class="st1" d="M48.4,50.4h1.8l1.1,3.6l1.2-3.6h1.5l1.2,3.6l1.1-3.6h1.8l-2.1,6.2h-1.5L53.1,53l-1.2,3.5h-1.5L48.4,50.4z"/>
		<path class="st1" d="M60.9,50.4h1.7v2.3h2.2v-2.3h1.7v6.2h-1.7v-2.3h-2.2v2.3h-1.7V50.4z"/>
		<path class="st1" d="M72,50.3h1.6l2.6,6.2h-1.8L74,55.4h-2.4l-0.4,1.1h-1.8L72,50.3z M73.5,54.1l-0.7-1.8l-0.7,1.8H73.5z"/>
		<path class="st1" d="M80.7,51.9h-1.9v-1.5h5.4v1.5h-1.8v4.7h-1.7V51.9z"/>
		<path class="st1" d="M93.5,51.9h-1.9v-1.5H97v1.5h-1.8v4.7h-1.7V51.9z"/>
		<path class="st1" d="M100.1,50.4h1.7v2.3h2.2v-2.3h1.7v6.2H104v-2.3h-2.2v2.3h-1.7L100.1,50.4z"/>
		<path class="st1" d="M109.1,50.4h4.9v1.5h-3.3v0.9h3v1.3h-3v1h3.3v1.5h-5L109.1,50.4z"/>
		<path class="st1" d="M124.3,56.6c-0.5,0-1.1-0.1-1.6-0.3c-0.5-0.2-0.9-0.4-1.3-0.8l1-1.1c0.6,0.5,1.3,0.7,2,0.7
			c0.2,0,0.4,0,0.5-0.1c0.1-0.1,0.2-0.2,0.2-0.3l0,0c0-0.1,0-0.1,0-0.2c0-0.1-0.1-0.1-0.2-0.1c-0.1-0.1-0.2-0.1-0.3-0.1
			c-0.2-0.1-0.3-0.1-0.5-0.1c-0.3-0.1-0.6-0.2-0.9-0.2c-0.3-0.1-0.5-0.2-0.7-0.3c-0.2-0.1-0.4-0.3-0.5-0.5c-0.1-0.2-0.2-0.5-0.2-0.8
			l0,0c0-0.3,0.1-0.5,0.2-0.8c0.1-0.2,0.3-0.5,0.5-0.6c0.2-0.2,0.5-0.3,0.8-0.4c0.3-0.1,0.7-0.2,1-0.2c0.5,0,1,0.1,1.4,0.2
			c0.4,0.1,0.8,0.3,1.1,0.6l-0.8,1.2c-0.3-0.2-0.6-0.3-0.9-0.5c-0.3-0.1-0.6-0.1-0.9-0.2c-0.2,0-0.3,0-0.5,0.1
			c-0.1,0.1-0.1,0.2-0.2,0.3l0,0c0,0.1,0,0.1,0,0.2c0,0.1,0.1,0.1,0.2,0.2c0.1,0.1,0.2,0.1,0.3,0.1l0.5,0.1c0.3,0.1,0.7,0.2,1,0.3
			c0.3,0.1,0.5,0.2,0.7,0.4c0.2,0.1,0.4,0.3,0.5,0.5c0.1,0.2,0.2,0.5,0.2,0.7l0,0c0,0.3-0.1,0.6-0.2,0.8c-0.1,0.2-0.3,0.5-0.5,0.6
			c-0.2,0.2-0.5,0.3-0.8,0.4C125.1,56.6,124.7,56.6,124.3,56.6z"/>
		<path class="st1" d="M132.9,56.7c-0.4,0-0.8-0.1-1.2-0.2c-0.4-0.2-0.7-0.4-1-0.7c-0.3-0.3-0.5-0.6-0.7-1c-0.2-0.4-0.3-0.8-0.2-1.3
			l0,0c0-0.4,0.1-0.9,0.2-1.3c0.2-0.4,0.4-0.7,0.7-1c0.3-0.3,0.6-0.5,1-0.7c0.4-0.2,0.9-0.3,1.3-0.2c0.3,0,0.6,0,0.9,0.1
			c0.2,0.1,0.5,0.1,0.7,0.3c0.2,0.1,0.4,0.3,0.6,0.4c0.2,0.2,0.3,0.3,0.5,0.5l-1.3,1c-0.2-0.2-0.4-0.4-0.6-0.5
			c-0.2-0.1-0.5-0.2-0.8-0.2c-0.2,0-0.4,0-0.6,0.1c-0.2,0.1-0.3,0.2-0.5,0.3c-0.1,0.1-0.2,0.3-0.3,0.5c-0.1,0.2-0.1,0.4-0.1,0.6l0,0
			c0,0.2,0,0.4,0.1,0.6c0.1,0.2,0.2,0.4,0.3,0.5c0.1,0.1,0.3,0.3,0.5,0.3c0.2,0.1,0.4,0.1,0.6,0.1c0.1,0,0.3,0,0.4,0
			c0.1,0,0.2-0.1,0.4-0.2c0.1-0.1,0.2-0.1,0.3-0.2c0.1-0.1,0.2-0.2,0.3-0.3l1.3,0.9c-0.1,0.2-0.3,0.4-0.5,0.5
			c-0.2,0.2-0.4,0.3-0.6,0.4c-0.2,0.1-0.5,0.2-0.7,0.3C133.5,56.6,133.2,56.7,132.9,56.7z"/>
		<path class="st1" d="M138.7,50.4h1.7v2.3h2.2v-2.3h1.7v6.2h-1.7v-2.3h-2.2v2.3h-1.7V50.4z"/>
		<path class="st1" d="M150.7,56.7c-0.5,0-0.9-0.1-1.3-0.2c-0.4-0.2-0.7-0.4-1-0.7c-0.3-0.3-0.5-0.6-0.7-1c-0.2-0.4-0.3-0.8-0.2-1.2
			l0,0c0-0.4,0.1-0.9,0.2-1.2c0.2-0.4,0.4-0.7,0.7-1c0.3-0.3,0.7-0.5,1.1-0.7c0.4-0.2,0.9-0.3,1.3-0.2c0.5,0,0.9,0.1,1.3,0.2
			c0.4,0.2,0.7,0.4,1,0.7c0.3,0.3,0.5,0.6,0.7,1c0.2,0.4,0.3,0.8,0.2,1.2l0,0c0,0.4-0.1,0.8-0.2,1.2c-0.2,0.4-0.4,0.7-0.7,1
			c-0.3,0.3-0.7,0.5-1.1,0.7C151.6,56.6,151.2,56.7,150.7,56.7z M150.7,55.1c0.2,0,0.4,0,0.6-0.1c0.2-0.1,0.4-0.2,0.5-0.4
			c0.1-0.2,0.2-0.3,0.3-0.5c0.1-0.2,0.1-0.4,0.1-0.6l0,0c0-0.2,0-0.4-0.1-0.6c-0.1-0.2-0.2-0.4-0.3-0.5c-0.1-0.2-0.3-0.3-0.5-0.4
			c-0.4-0.2-0.9-0.2-1.3,0c-0.2,0.1-0.4,0.2-0.5,0.3c-0.1,0.2-0.2,0.3-0.3,0.5c-0.1,0.2-0.1,0.4-0.1,0.6l0,0c0,0.2,0,0.4,0.1,0.6
			c0.1,0.2,0.2,0.4,0.3,0.5c0.1,0.2,0.3,0.3,0.5,0.4C150.3,55.1,150.5,55.1,150.7,55.1L150.7,55.1z"/>
		<path class="st1" d="M160.3,56.7c-0.5,0-0.9-0.1-1.3-0.2c-0.4-0.2-0.7-0.4-1.1-0.7c-0.3-0.3-0.5-0.6-0.7-1
			c-0.2-0.4-0.3-0.8-0.2-1.2l0,0c0-0.4,0.1-0.9,0.2-1.2c0.2-0.4,0.4-0.7,0.7-1c0.3-0.3,0.6-0.6,1-0.7c0.4-0.2,0.9-0.3,1.3-0.2
			c0.5,0,0.9,0.1,1.3,0.2c0.4,0.2,0.7,0.4,1.1,0.7c0.3,0.3,0.5,0.6,0.7,1c0.2,0.4,0.3,0.8,0.2,1.2l0,0c0,0.4-0.1,0.8-0.2,1.2
			c-0.2,0.4-0.4,0.7-0.7,1c-0.3,0.3-0.7,0.5-1.1,0.7C161.2,56.5,160.8,56.6,160.3,56.7z M160.3,55.1c0.2,0,0.5,0,0.7-0.1
			c0.2-0.1,0.4-0.2,0.5-0.4c0.1-0.2,0.2-0.3,0.3-0.5c0.1-0.2,0.1-0.4,0.1-0.6l0,0c0-0.2,0-0.4-0.1-0.6c-0.1-0.2-0.2-0.4-0.3-0.5
			c-0.1-0.2-0.3-0.3-0.5-0.4c-0.2-0.1-0.4-0.1-0.6-0.1c-0.2,0-0.4,0-0.6,0.1c-0.2,0.1-0.4,0.2-0.5,0.3c-0.1,0.2-0.2,0.3-0.3,0.5
			c-0.1,0.2-0.1,0.4-0.1,0.6l0,0c0,0.2,0,0.4,0.1,0.6c0.1,0.2,0.2,0.4,0.3,0.5c0.1,0.2,0.3,0.3,0.5,0.4
			C159.9,55.1,160.1,55.1,160.3,55.1L160.3,55.1z"/>
		<path class="st1" d="M166.8,50.4h1.7V55h3v1.5h-4.7L166.8,50.4z"/>
		<path class="st1" d="M177,56.6c-0.5,0-1.1-0.1-1.6-0.3c-0.5-0.2-0.9-0.4-1.3-0.8l0.9-1.1c0.6,0.5,1.3,0.7,2,0.7
			c0.2,0,0.4,0,0.5-0.1c0.1-0.1,0.2-0.2,0.2-0.3l0,0c0-0.1,0-0.1,0-0.2c0-0.1-0.1-0.1-0.2-0.1c-0.1-0.1-0.2-0.1-0.3-0.1
			c-0.2-0.1-0.3-0.1-0.5-0.1c-0.3-0.1-0.6-0.2-0.9-0.2c-0.3-0.1-0.5-0.2-0.7-0.3c-0.2-0.1-0.4-0.3-0.5-0.5c-0.1-0.2-0.2-0.5-0.2-0.8
			l0,0c0-0.3,0-0.5,0.2-0.8c0.1-0.2,0.3-0.5,0.5-0.6c0.2-0.2,0.5-0.3,0.8-0.4c0.3-0.1,0.7-0.2,1-0.2c0.5,0,1,0.1,1.4,0.2
			c0.4,0.1,0.8,0.3,1.1,0.6l-0.9,1.2c-0.3-0.2-0.6-0.3-0.9-0.5c-0.3-0.1-0.6-0.1-0.9-0.2c-0.2,0-0.3,0-0.5,0.1
			c-0.1,0.1-0.2,0.2-0.2,0.3l0,0c0,0.1,0,0.1,0,0.2c0,0.1,0.1,0.1,0.2,0.2c0.1,0.1,0.2,0.1,0.3,0.1l0.5,0.1c0.3,0.1,0.7,0.1,1,0.3
			c0.3,0.1,0.5,0.2,0.7,0.4c0.2,0.1,0.3,0.3,0.4,0.5c0.1,0.2,0.2,0.5,0.2,0.7l0,0c0,0.3-0.1,0.6-0.2,0.8c-0.1,0.2-0.3,0.5-0.5,0.6
			c-0.2,0.2-0.5,0.3-0.8,0.4C177.7,56.6,177.4,56.6,177,56.6z"/>
		<path class="st1" d="M186.9,50.4h1.8l1.1,3.6l1.2-3.6h1.5l1.2,3.6l1.1-3.6h1.8l-2.1,6.2h-1.5l-1.2-3.6l-1.2,3.5h-1.5L186.9,50.4z"
			/>
		<path class="st1" d="M202.5,56.7c-0.9,0-1.7-0.3-2.4-0.9c-0.3-0.3-0.5-0.6-0.7-1c-0.2-0.4-0.3-0.8-0.2-1.2l0,0
			c0-0.4,0.1-0.9,0.2-1.2c0.2-0.4,0.4-0.7,0.7-1c0.3-0.3,0.7-0.5,1.1-0.7c0.4-0.2,0.9-0.3,1.3-0.2c0.5,0,0.9,0.1,1.3,0.2
			c0.4,0.2,0.7,0.4,1,0.7c0.3,0.3,0.5,0.6,0.7,1c0.2,0.4,0.3,0.8,0.3,1.2l0,0c0,0.4-0.1,0.8-0.3,1.2c-0.2,0.4-0.4,0.7-0.7,1
			c-0.3,0.3-0.7,0.5-1.1,0.7C203.4,56.6,202.9,56.7,202.5,56.7z M202.5,55.1c0.2,0,0.4,0,0.6-0.1c0.2-0.1,0.4-0.2,0.5-0.4
			c0.1-0.2,0.2-0.3,0.3-0.5c0.1-0.2,0.1-0.4,0.1-0.6l0,0c0-0.2,0-0.4-0.1-0.6c-0.1-0.2-0.2-0.4-0.3-0.5c-0.1-0.2-0.3-0.3-0.5-0.4
			c-0.2-0.1-0.4-0.1-0.6-0.1c-0.2,0-0.4,0-0.6,0.1c-0.2,0.1-0.4,0.2-0.5,0.3c-0.1,0.2-0.2,0.3-0.3,0.5c-0.1,0.2-0.1,0.4-0.1,0.6l0,0
			c0,0.2,0,0.4,0.1,0.6c0.1,0.2,0.2,0.4,0.3,0.5c0.1,0.2,0.3,0.3,0.5,0.4C202.1,55.1,202.3,55.1,202.5,55.1L202.5,55.1z"/>
		<path class="st1" d="M209,50.4h1.6l2.5,3.2v-3.2h1.7v6.2h-1.5l-2.6-3.4v3.4H209V50.4z"/>
		<path class="st1" d="M217.9,52.9c0.2,0,0.5-0.1,0.7-0.3c0.2-0.1,0.2-0.4,0.2-0.6h-0.7v-1.7h1.7v1.4c0,0.3,0,0.6-0.1,0.8
			c-0.1,0.2-0.2,0.4-0.4,0.5c-0.2,0.1-0.4,0.2-0.6,0.3c-0.2,0.1-0.5,0.1-0.8,0.1L217.9,52.9z"/>
		<path class="st1" d="M224.5,51.9h-1.8v-1.5h5.4v1.5h-1.9v4.7h-1.7L224.5,51.9z"/>
		<path class="st1" d="M237.3,51.9h-1.9v-1.5h5.4v1.5H239v4.7h-1.7V51.9z"/>
		<path class="st1" d="M243.9,50.4h4.9v1.5h-3.3v0.9h3v1.3h-3v1h3.3v1.5h-5L243.9,50.4z"/>
		<path class="st1" d="M254.2,50.3h1.6l2.6,6.2h-1.8l-0.5-1.1h-2.4l-0.4,1.1h-1.8L254.2,50.3z M255.7,54.1l-0.7-1.8l-0.7,1.8
			L255.7,54.1z"/>
		<path class="st1" d="M264.3,56.7c-0.4,0-0.8-0.1-1.2-0.2c-0.4-0.2-0.7-0.4-1-0.7c-0.3-0.3-0.5-0.6-0.7-1c-0.2-0.4-0.3-0.8-0.3-1.3
			l0,0c0-0.4,0.1-0.9,0.2-1.3c0.2-0.4,0.4-0.7,0.7-1c0.3-0.3,0.6-0.5,1-0.7c0.4-0.2,0.9-0.3,1.3-0.2c0.3,0,0.6,0,0.9,0.1
			c0.2,0.1,0.5,0.1,0.7,0.3c0.2,0.1,0.4,0.2,0.6,0.4c0.2,0.2,0.3,0.3,0.5,0.5l-1.3,1c-0.2-0.2-0.4-0.4-0.6-0.5
			c-0.2-0.1-0.5-0.2-0.8-0.2c-0.4,0-0.7,0.2-1,0.5c-0.1,0.2-0.2,0.3-0.3,0.5c-0.1,0.2-0.1,0.4-0.1,0.6l0,0c0,0.2,0,0.4,0.1,0.6
			c0.1,0.2,0.2,0.4,0.3,0.5c0.1,0.1,0.3,0.3,0.5,0.3c0.2,0.1,0.4,0.1,0.6,0.1c0.1,0,0.3,0,0.4,0c0.1,0,0.2-0.1,0.4-0.2
			c0.1-0.1,0.2-0.1,0.3-0.2c0.1-0.1,0.2-0.2,0.3-0.3l1.3,0.9c-0.1,0.2-0.3,0.4-0.5,0.5c-0.2,0.2-0.4,0.3-0.6,0.4
			c-0.2,0.1-0.5,0.2-0.7,0.3C264.9,56.7,264.6,56.7,264.3,56.7z"/>
		<path class="st1" d="M270,50.4h1.7v2.3h2.2v-2.3h1.7v6.2h-1.7v-2.3h-2.2v2.3H270V50.4z"/>
		<path class="st1" d="M285.5,54.2l-2.3-3.8h1.9l1.3,2.2l1.3-2.2h1.9l-2.3,3.8v2.3h-1.7V54.2z"/>
		<path class="st1" d="M295.5,56.7c-0.5,0-0.9-0.1-1.3-0.2c-0.4-0.2-0.7-0.4-1-0.7c-0.3-0.3-0.5-0.6-0.7-1c-0.2-0.4-0.3-0.8-0.2-1.2
			l0,0c0-0.4,0.1-0.9,0.2-1.2c0.2-0.4,0.4-0.7,0.7-1c0.3-0.3,0.7-0.5,1-0.7c0.4-0.2,0.9-0.3,1.3-0.2c0.5,0,0.9,0.1,1.3,0.2
			c0.4,0.2,0.7,0.4,1,0.7c0.3,0.3,0.5,0.6,0.7,1c0.2,0.4,0.3,0.8,0.2,1.2l0,0c0,0.4-0.1,0.8-0.2,1.2c-0.2,0.4-0.4,0.7-0.7,1
			c-0.3,0.3-0.7,0.5-1,0.7C296.4,56.6,295.9,56.7,295.5,56.7z M295.5,55.1c0.2,0,0.4,0,0.6-0.1c0.2-0.1,0.4-0.2,0.5-0.4
			c0.1-0.2,0.2-0.3,0.3-0.5c0.1-0.2,0.1-0.4,0.1-0.6l0,0c0-0.2,0-0.4-0.1-0.6c-0.1-0.2-0.2-0.4-0.3-0.5c-0.1-0.2-0.3-0.3-0.5-0.4
			c-0.2-0.1-0.4-0.1-0.6-0.1c-0.2,0-0.4,0-0.6,0.1c-0.2,0.1-0.4,0.2-0.5,0.3c-0.1,0.2-0.2,0.3-0.3,0.5c-0.1,0.2-0.1,0.4-0.1,0.6l0,0
			c0,0.2,0,0.4,0.1,0.6c0.1,0.2,0.2,0.4,0.3,0.5c0.1,0.2,0.3,0.3,0.5,0.4C295,55.1,295.3,55.1,295.5,55.1L295.5,55.1z"/>
		<path class="st1" d="M304.8,56.7c-0.4,0-0.8-0.1-1.2-0.2c-0.3-0.1-0.6-0.3-0.9-0.5c-0.3-0.2-0.4-0.5-0.6-0.9
			c-0.1-0.4-0.2-0.8-0.2-1.3v-3.5h1.7v3.4c0,0.4,0.1,0.7,0.3,1c0.2,0.2,0.5,0.3,0.8,0.3c0.3,0,0.6-0.1,0.8-0.3
			c0.2-0.3,0.4-0.6,0.3-1v-3.4h1.7v3.4c0,0.4-0.1,0.9-0.2,1.3c-0.1,0.3-0.3,0.6-0.6,0.9c-0.3,0.2-0.6,0.4-0.9,0.5
			C305.6,56.6,305.2,56.7,304.8,56.7z"/>
		<path class="st1" d="M5,8.1h5.1v14.1h9v4.5H5V8.1z"/>
		<path class="st1" d="M21.4,8.1h5.2v18.6h-5.2V8.1z"/>
		<path class="st1" d="M30,8.1h14.8v4.5h-9.7v3.1h8.8v4.3h-8.8v6.6H30V8.1z"/>
		<path class="st1" d="M47.1,8.1H62v4.4h-9.8v2.8h8.9v4.1h-8.9v2.9h10v4.4h-15L47.1,8.1z"/>
		<path class="st1" d="M72.2,8.1h5.4l4.4,7.2l4.4-7.2h5.5v18.6h-5.1V16L82,23.3h-0.1l-4.7-7.2v10.6h-5.1V8.1z"/>
		<path class="st1" d="M101.6,8h5l7.9,18.7H109l-1.3-3.3h-7.2l-1.3,3.3h-5.5L101.6,8z M106.1,19.4l-2.1-5.3l-2.1,5.3L106.1,19.4z"/>
		<path class="st1" d="M120.8,12.7h-5.6V8.1h16.3v4.5h-5.6v14h-5.2L120.8,12.7z"/>
		<path class="st1" d="M134.7,8.1h5.1v6.9h6.6V8.1h5.1v18.6h-5.1v-7.1h-6.6v7.1h-5.1V8.1z"/>
		<path class="st1" d="M162.2,8.1h5.4l4.4,7.2l4.4-7.2h5.5v18.6h-5.1V16l-4.7,7.3H172l-4.7-7.2v10.6h-5.1L162.2,8.1z"/>
		<path class="st1" d="M194.6,27.1c-1.4,0-2.7-0.2-4-0.8c-1.2-0.5-2.2-1.2-3.2-2c-0.9-0.9-1.6-1.9-2.1-3c-0.5-1.2-0.8-2.5-0.8-3.7v0
			c0-2.6,1-5,2.9-6.8c0.9-0.9,2-1.6,3.2-2.1c2.6-1,5.4-1,8,0c1.2,0.5,2.2,1.2,3.2,2.1c1.8,1.8,2.8,4.2,2.8,6.8v0.1
			c0,1.3-0.2,2.6-0.8,3.8c-0.5,1.2-1.2,2.2-2.1,3.1c-0.9,0.9-2,1.6-3.2,2.1C197.3,26.8,196,27.1,194.6,27.1z M194.6,22.4
			c0.7,0,1.3-0.1,1.9-0.4c0.6-0.2,1.1-0.6,1.5-1c0.4-0.5,0.8-1,1-1.6c0.2-0.6,0.4-1.3,0.4-1.9v0c0-0.7-0.1-1.3-0.4-1.9
			c-0.2-0.6-0.6-1.1-1-1.6c-0.4-0.5-0.9-0.8-1.5-1.1c-0.6-0.3-1.3-0.4-1.9-0.4c-0.7,0-1.3,0.1-1.9,0.4c-0.6,0.3-1.1,0.6-1.5,1.1
			c-0.4,0.5-0.7,1-0.9,1.6c-0.2,0.6-0.3,1.3-0.3,1.9v0.1c0,0.7,0.1,1.3,0.4,1.9c0.2,0.6,0.6,1.1,1,1.6c0.4,0.5,0.9,0.8,1.5,1.1
			C193.3,22.3,194,22.4,194.6,22.4L194.6,22.4z"/>
		<path class="st1" d="M207.3,8.1h4.8l7.7,9.8V8.1h5.1v18.6h-4.5l-7.9-10.2v10.2h-5.1V8.1z"/>
		<path class="st1" d="M228.1,8.1H243v4.4h-9.8v2.8h8.9v4.1h-8.9v2.9h10v4.4h-15L228.1,8.1z"/>
		<path class="st1" d="M251.1,19.8l-7-11.6h5.9l3.8,6.8l3.8-6.8h5.8l-7.1,11.5v7h-5.2L251.1,19.8z"/>
		<path class="st1" d="M9.1,40.7c-0.7,0-1.5-0.1-2.1-0.4c-0.6-0.2-1.2-0.6-1.7-1.1c-0.5-0.5-0.9-1-1.1-1.7c-0.3-0.7-0.4-1.4-0.4-2.1
			l0,0c0-1.4,0.5-2.7,1.5-3.8c0.5-0.5,1.1-0.9,1.7-1.1c0.7-0.3,1.4-0.4,2.1-0.4c0.4,0,0.8,0,1.2,0.1c0.3,0.1,0.7,0.1,1,0.3
			c0.3,0.1,0.6,0.3,0.9,0.4c0.3,0.2,0.6,0.4,0.8,0.6l-1.4,1.7c-0.2-0.2-0.4-0.3-0.6-0.4c-0.2-0.1-0.4-0.2-0.6-0.3
			c-0.2-0.1-0.4-0.2-0.7-0.2c-0.3-0.1-0.5-0.1-0.8-0.1c-0.4,0-0.8,0.1-1.2,0.3c-0.4,0.2-0.7,0.4-0.9,0.7c-0.3,0.3-0.5,0.6-0.6,1
			c-0.2,0.4-0.2,0.8-0.2,1.2l0,0c0,0.4,0.1,0.9,0.2,1.3c0.1,0.4,0.4,0.7,0.6,1c0.3,0.3,0.6,0.5,1,0.7c0.4,0.2,0.8,0.2,1.2,0.2
			c0.8,0,1.5-0.2,2.1-0.6v-1.5H9.1v-1.9h4.4V39c-0.6,0.5-1.2,0.9-1.9,1.1C10.9,40.5,10,40.7,9.1,40.7z"/>
		<path class="st1" d="M15.7,30.3h7.7v2h-5.5v2.1h4.8v2h-4.8v2.1h5.5v2h-7.8V30.3z"/>
		<path class="st1" d="M27.8,32.3h-3.1v-2.1h8.5v2.1h-3.1v8.1h-2.2V32.3z"/>
		<path class="st1" d="M39.3,30.3H44c1.1-0.1,2.2,0.3,3,1c0.6,0.6,0.9,1.5,0.9,2.3l0,0c0,0.7-0.2,1.4-0.6,2c-0.4,0.5-1,0.9-1.6,1.1
			l2.5,3.7h-2.7l-2.2-3.2h-1.8v3.3h-2.2V30.3z M43.8,35.3c0.5,0,0.9-0.1,1.3-0.4c0.3-0.3,0.5-0.6,0.5-1l0,0c0-0.4-0.1-0.8-0.5-1.1
			c-0.4-0.3-0.8-0.4-1.3-0.4h-2.2v2.9L43.8,35.3z"/>
		<path class="st1" d="M49.9,30.3h2.2v10.2h-2.2V30.3z"/>
		<path class="st1" d="M59.5,40.7c-1.4,0-2.8-0.5-3.8-1.5c-0.5-0.5-0.8-1-1.1-1.7c-0.3-0.7-0.4-1.4-0.4-2.1l0,0
			c0-1.4,0.5-2.7,1.5-3.7c0.5-0.5,1-0.9,1.7-1.1c0.7-0.3,1.4-0.4,2.2-0.4c0.4,0,0.9,0,1.3,0.1c0.4,0.1,0.7,0.2,1.1,0.3
			c0.3,0.1,0.6,0.3,0.9,0.5c0.3,0.2,0.5,0.4,0.8,0.6l-1.4,1.7c-0.4-0.3-0.8-0.6-1.2-0.9c-0.4-0.2-0.9-0.3-1.4-0.3
			c-0.4,0-0.8,0.1-1.2,0.2c-0.4,0.2-0.7,0.4-0.9,0.7c-0.3,0.3-0.5,0.6-0.6,1c-0.1,0.4-0.2,0.8-0.2,1.2l0,0c0,0.4,0.1,0.8,0.2,1.2
			c0.1,0.4,0.3,0.7,0.6,1c0.3,0.3,0.6,0.5,0.9,0.7c0.4,0.2,0.8,0.3,1.2,0.2c0.5,0,1-0.1,1.5-0.3c0.4-0.2,0.8-0.5,1.2-0.9l1.4,1.4
			c-0.3,0.3-0.5,0.5-0.8,0.8c-0.3,0.2-0.6,0.4-0.9,0.6c-0.3,0.2-0.7,0.3-1.1,0.4C60.4,40.6,60,40.6,59.5,40.7z"/>
		<path class="st1" d="M65.5,30.3h2.2v4h4.1v-4h2.2v10.2h-2.2v-4.1h-4.1v4.1h-2.2V30.3z"/>
		<path class="st1" d="M76.3,38.2h2.3v2.3h-2.3V38.2z"/>
		<path class="st1" d="M90.1,40.7c-0.7,0-1.5-0.1-2.2-0.4c-0.6-0.2-1.2-0.6-1.7-1.1c-0.5-0.5-0.9-1-1.1-1.7
			c-0.3-0.7-0.4-1.4-0.4-2.1l0,0c0-0.7,0.1-1.4,0.4-2c0.3-0.6,0.6-1.2,1.1-1.7c0.5-0.5,1.1-0.9,1.7-1.1c0.7-0.3,1.4-0.4,2.1-0.5
			c0.4,0,0.8,0,1.2,0.1c0.3,0.1,0.7,0.1,1,0.3c0.3,0.1,0.6,0.3,0.9,0.4c0.3,0.2,0.6,0.4,0.8,0.6l-1.4,1.7c-0.2-0.2-0.4-0.3-0.6-0.4
			c-0.2-0.1-0.4-0.2-0.6-0.3c-0.2-0.1-0.4-0.2-0.7-0.2c-0.3-0.1-0.5-0.1-0.8-0.1c-0.4,0-0.8,0.1-1.1,0.3c-0.4,0.2-0.7,0.4-0.9,0.7
			c-0.3,0.3-0.5,0.6-0.6,1C87,34.5,87,34.9,87,35.4l0,0c0,0.4,0.1,0.9,0.2,1.3c0.2,0.4,0.4,0.7,0.7,1c0.3,0.3,0.6,0.5,1,0.7
			c0.4,0.2,0.8,0.2,1.2,0.2c0.8,0,1.5-0.2,2.1-0.6v-1.5H90v-1.9h4.4V39c-0.6,0.5-1.2,0.9-1.9,1.1C91.8,40.5,90.9,40.7,90.1,40.7z"/>
		<path class="st1" d="M96.6,30.3h7.7v2h-5.5v2.1h4.8v2h-4.8v2.1h5.5v2h-7.8V30.3z"/>
		<path class="st1" d="M108.7,32.3h-3.1v-2.1h8.5v2.1H111v8.1h-2.2L108.7,32.3z"/>
		<path class="st1" d="M120.2,30.3h7.8v2h-5.5v2.2h4.9v2h-4.9v4h-2.2L120.2,30.3z"/>
		<path class="st1" d="M129.9,30.3h2.2v10.2h-2.2V30.3z"/>
		<path class="st1" d="M137,32.3h-3.1v-2.1h8.5v2.1h-3.1v8.1H137V32.3z"/>
		<path class="st1" d="M143.8,38.2h2.4v2.3h-2.4V38.2z"/>
		<path class="st1" d="M157.6,40.7c-0.7,0-1.5-0.1-2.2-0.4c-0.6-0.2-1.2-0.6-1.7-1.1c-0.5-0.5-0.9-1-1.1-1.7
			c-0.3-0.7-0.4-1.4-0.4-2.1l0,0c0-0.7,0.1-1.4,0.4-2c0.5-1.3,1.5-2.3,2.8-2.8c0.7-0.3,1.4-0.4,2.1-0.4c0.4,0,0.8,0,1.2,0.1
			c0.3,0.1,0.7,0.1,1,0.3c0.3,0.1,0.6,0.3,0.9,0.4c0.3,0.2,0.6,0.4,0.8,0.6l-1.4,1.7c-0.2-0.2-0.4-0.3-0.6-0.4
			c-0.2-0.1-0.4-0.2-0.6-0.3c-0.2-0.1-0.4-0.2-0.7-0.2c-0.3-0.1-0.5-0.1-0.8-0.1c-0.4,0-0.8,0.1-1.1,0.3c-0.7,0.3-1.3,1-1.6,1.7
			c-0.2,0.4-0.2,0.8-0.2,1.2l0,0c0,0.4,0.1,0.9,0.2,1.3c0.3,0.8,0.9,1.4,1.6,1.7c0.4,0.2,0.8,0.2,1.2,0.2c0.8,0,1.5-0.2,2.1-0.6
			v-1.5h-2.3v-1.9h4.5V39c-0.6,0.5-1.2,0.9-1.9,1.1C159.3,40.5,158.5,40.7,157.6,40.7z"/>
		<path class="st1" d="M164.1,30.3h7.7v2h-5.5v2.1h4.8v2h-4.8v2.1h5.6v2h-7.8V30.3z"/>
		<path class="st1" d="M176.3,32.3h-3.1v-2.1h8.5v2.1h-3.1v8.1h-2.2V32.3z"/>
		<path class="st1" d="M191.4,40.6c-0.8,0-1.6-0.1-2.3-0.4c-0.8-0.3-1.5-0.7-2.1-1.2l1.3-1.6c0.4,0.4,0.9,0.7,1.4,0.9
			c0.5,0.2,1.1,0.3,1.6,0.3c0.4,0,0.8-0.1,1.1-0.2c0.2-0.1,0.4-0.4,0.4-0.7l0,0c0-0.1,0-0.3-0.1-0.4c-0.1-0.1-0.2-0.2-0.3-0.3
			c-0.2-0.1-0.4-0.2-0.6-0.3c-0.3-0.1-0.6-0.2-1-0.3s-1-0.3-1.4-0.4c-0.4-0.1-0.7-0.3-1.1-0.6c-0.3-0.2-0.5-0.5-0.7-0.8
			c-0.2-0.4-0.3-0.8-0.2-1.3l0,0c0-0.4,0.1-0.9,0.3-1.3c0.2-0.4,0.4-0.7,0.7-1c0.3-0.3,0.7-0.5,1.1-0.6c0.5-0.2,1-0.2,1.4-0.2
			c0.7,0,1.4,0.1,2.1,0.3c0.6,0.2,1.2,0.6,1.7,1l-1.2,1.7c-0.4-0.3-0.9-0.5-1.3-0.7c-0.4-0.2-0.9-0.3-1.3-0.3c-0.4,0-0.7,0.1-1,0.3
			c-0.2,0.1-0.3,0.4-0.3,0.6l0,0c0,0.1,0,0.3,0.1,0.4c0.1,0.1,0.2,0.3,0.4,0.3c0.2,0.1,0.4,0.2,0.7,0.3l1.1,0.3
			c0.5,0.1,0.9,0.3,1.4,0.5c0.4,0.1,0.7,0.4,1,0.6c0.3,0.2,0.5,0.5,0.6,0.8c0.2,0.4,0.2,0.8,0.2,1.2l0,0c0,0.5-0.1,0.9-0.3,1.3
			c-0.2,0.4-0.4,0.7-0.8,1c-0.3,0.3-0.7,0.5-1.2,0.6C192.4,40.6,191.9,40.6,191.4,40.6z"/>
		<path class="st1" d="M197.1,30.3h2.4l2.7,4.3l2.7-4.3h2.4v10.2H205v-6.7l-2.9,4.4h-0.1l-2.8-4.3v6.6H197L197.1,30.3z"/>
		<path class="st1" d="M213.2,30.2h2.1l4.4,10.3h-2.4l-0.9-2.3h-4.3l-0.9,2.3h-2.3L213.2,30.2z M215.6,36.2l-1.4-3.3l-1.4,3.3H215.6
			z"/>
		<path class="st1" d="M221.2,30.3h4.7c1.1-0.1,2.2,0.3,3,1c0.6,0.6,0.9,1.5,0.9,2.3l0,0c0,0.7-0.2,1.4-0.6,2
			c-0.4,0.5-1,0.9-1.6,1.1l2.5,3.7h-2.6l-2.2-3.3h-1.8v3.3h-2.2L221.2,30.3z M225.8,35.3c0.5,0,0.9-0.1,1.3-0.4
			c0.3-0.3,0.5-0.6,0.4-1l0,0c0-0.4-0.1-0.8-0.5-1.1c-0.4-0.3-0.8-0.4-1.3-0.4h-2.2v2.9L225.8,35.3z"/>
		<path class="st1" d="M234.2,32.3h-3.1v-2.1h8.5v2.1h-3.1v8.1h-2.2V32.3z"/>
		<path class="st1" d="M241.2,30.3h7.7v2h-5.5v2.1h4.8v2h-4.8v2.1h5.5v2h-7.8L241.2,30.3z"/>
		<path class="st1" d="M251,30.3h4.7c1.1-0.1,2.2,0.3,3,1c0.6,0.6,0.9,1.5,0.9,2.3l0,0c0,0.7-0.2,1.4-0.6,2c-0.4,0.5-1,0.9-1.6,1.1
			l2.5,3.7h-2.6l-2.2-3.2h-1.8v3.3H251V30.3z M255.5,35.3c0.5,0,0.9-0.1,1.3-0.4c0.3-0.3,0.5-0.6,0.5-1l0,0c0-0.4-0.1-0.8-0.5-1.1
			c-0.4-0.3-0.8-0.4-1.3-0.4h-2.2v2.9L255.5,35.3z"/>
		<path class="st1" d="M261.2,38.2h2.4v2.3h-2.4V38.2z"/>
		<path class="st1" d="M287.4,9.5c0,0-2.3-0.2-2.2,1.5s1.4,1.8,2.7,1.9s8.4,0.8,8.4,0.8l0.4,9.8c0,0-4.2-1.7-6.5,0.2
			s-2.4,3.5-2.5,4.1s-0.4,2.7,1.3,3c1.2,0.3,2.4-0.5,2.7-1.7c0-0.1,0-0.2,0-0.3c0-0.9,1.5-2.9,3.3-2.5c1.2,0.3,2.4,0.7,3.5,1.3
			l-0.5,10.9c0,0,0.3,8.3,3.6,7.5s1.2-4.9,1.2-4.9c-0.6-2.5-0.8-5-0.5-7.6c0.5-3.6,2.4-8.9,0.7-18.1c0,0,1.4-0.1,3,2.2
			s3,5.8,5.3,4.3s-2.5-6.6-4.3-8.3s-5-6.1-7.2-5.5s-3.2,1.9-5,2C292.1,10.1,289.7,9.9,287.4,9.5z"/>
		<circle class="st1" cx="298.2" cy="3.6" r="3.6"/>
	</g>
</g>
</svg>
