<?xml version="1.0" encoding="utf-8"?>
<!-- Generator: Adobe Illustrator 22.0.1, SVG Export Plug-In . SVG Version: 6.00 Build 0)  -->
<svg version="1.1" id="Layer_1" xmlns="http://www.w3.org/2000/svg" xmlns:xlink="http://www.w3.org/1999/xlink" x="0px" y="0px"
	 viewBox="0 0 312.5 58" style="enable-background:new 0 0 312.5 58;" xml:space="preserve">
<style type="text/css">
	.st0{fill:none;}
	.st1{fill:#FFFFFF;}
</style>
<title>mask</title>
<rect y="0" class="st0" width="312.5" height="58"/>
<path class="st1" d="M16.8,18.7h5.8c0.4-0.1,0.8,0.2,0.8,0.6c0,0.1,0,0.1,0,0.2v23.6c0.1,0.4-0.2,0.8-0.6,0.8c-0.1,0-0.1,0-0.2,0
	h-3.2c-0.4,0.1-0.8-0.2-0.8-0.6c0-0.1,0-0.1,0-0.2V24.5h-0.2l-4,13.1c-0.1,0.5-0.5,0.8-1,0.8h-3.3c-0.5,0-0.9-0.3-1-0.8L5.1,24.5
	H4.9v18.7c0,0.2,0,0.5-0.2,0.6c-0.1,0.1-0.3,0.2-0.7,0.2H0.9c-0.4,0.1-0.8-0.2-0.8-0.6c0-0.1,0-0.1,0-0.2V19.5
	c-0.1-0.4,0.2-0.8,0.6-0.8c0.1,0,0.1,0,0.2,0h5.8c0.3,0,0.7,0.2,0.7,0.5l4.2,13.8h0.2L16,19.2C16.1,18.9,16.4,18.6,16.8,18.7
	C16.8,18.7,16.8,18.7,16.8,18.7z"/>
<path class="st1" d="M31.2,43.9h-3.8c-0.5,0-0.6-0.3-0.5-0.8l6.2-23.6c0.1-0.5,0.6-0.9,1.2-0.8h5.2c0.6-0.1,1.1,0.3,1.2,0.8L47,43.1
	c0.2,0.5,0,0.8-0.5,0.8h-3.8c-0.2,0-0.4,0-0.6-0.2c-0.1-0.2-0.2-0.4-0.2-0.6l-1.1-4.3h-7.6L32,43.1c0,0.2-0.1,0.5-0.3,0.6
	C31.6,43.9,31.4,43.9,31.2,43.9z M36.9,23.4L34,34.8h5.8L37,23.4H36.9z"/>
<path class="st1" d="M49.8,37.5v-0.8c-0.1-0.4,0.2-0.8,0.6-0.8c0.1,0,0.1,0,0.2,0h3.3c0.4-0.1,0.8,0.2,0.8,0.6c0,0.1,0,0.1,0,0.2V37
	c-0.1,0.7,0.1,1.5,0.6,2.1c0.6,0.4,1.4,0.6,2.2,0.5h1.8c0.8,0.1,1.5-0.1,2.1-0.6c0.5-0.6,0.7-1.4,0.6-2.2v-0.5
	c0-0.7-0.3-1.4-0.9-1.7c-0.7-0.4-1.5-0.7-2.3-0.7c-1-0.1-2-0.2-3-0.4c-1-0.2-2-0.5-3-0.9c-1-0.4-1.8-1.1-2.3-2.1
	c-0.7-1.2-1-2.6-0.9-4v-1.4c-0.1-1.8,0.5-3.5,1.7-4.7c1.3-1.2,3-1.8,4.8-1.7h3.9c1.8-0.1,3.5,0.5,4.8,1.7c1.2,1.3,1.9,3,1.8,4.7v0.7
	c0.1,0.4-0.2,0.8-0.6,0.8c-0.1,0-0.1,0-0.2,0h-3.4c-0.4,0.1-0.8-0.2-0.8-0.6c0-0.1,0-0.1,0-0.2v-0.2c0.1-0.7-0.1-1.5-0.6-2.1
	c-0.6-0.4-1.4-0.6-2.2-0.5h-1.6c-0.8-0.1-1.6,0.1-2.2,0.6c-0.5,0.7-0.7,1.5-0.6,2.4v0.7c0,1.2,1,1.9,3.2,2.1c2,0.1,4,0.6,5.9,1.3
	c1,0.4,1.8,1.2,2.3,2.1c0.7,1.2,1,2.6,1,4v1.3c0.1,1.8-0.5,3.5-1.7,4.7c-1.3,1.2-3,1.8-4.8,1.6h-4.3c-1.8,0.1-3.5-0.5-4.8-1.7
	C50.3,40.9,49.7,39.2,49.8,37.5z"/>
<path class="st1" d="M81.9,43.9h-4.3c-1.7,0.1-3.5-0.5-4.8-1.6c-1.2-1.3-1.8-3-1.7-4.8V25.1c-0.1-1.7,0.5-3.5,1.7-4.8
	c1.3-1.2,3-1.7,4.8-1.6h4.3c1.7-0.1,3.5,0.5,4.8,1.7c1.2,1.3,1.8,3,1.7,4.7v1.8c0.1,0.4-0.2,0.8-0.7,0.9c-0.1,0-0.1,0-0.2,0h-3.3
	c-0.5,0-0.8-0.3-0.8-0.9v-1.6c0.1-0.6-0.1-1.3-0.5-1.8c-0.5-0.4-1.1-0.6-1.8-0.5h-2.7c-0.6-0.1-1.3,0.1-1.7,0.5
	c-0.4,0.5-0.6,1.1-0.5,1.8v12c-0.1,0.6,0.1,1.3,0.5,1.8c0.5,0.4,1.1,0.6,1.7,0.5H81c0.6,0.1,1.3-0.1,1.8-0.5
	c0.4-0.5,0.6-1.1,0.5-1.8v-1.6c0-0.6,0.3-0.9,0.8-0.9h3.3c0.4-0.1,0.8,0.2,0.9,0.6c0,0.1,0,0.1,0,0.2v1.8c0.1,1.7-0.5,3.5-1.7,4.7
	C85.4,43.4,83.6,44,81.9,43.9z"/>
<path class="st1" d="M105.5,18.7h3.3c0.6,0,0.9,0.3,0.9,0.8v18c0.1,1.7-0.5,3.5-1.7,4.7c-1.3,1.2-3,1.8-4.8,1.7h-4.3
	c-1.7,0.1-3.5-0.5-4.8-1.6c-1.2-1.3-1.8-3-1.7-4.8v-18c-0.1-0.4,0.2-0.8,0.6-0.8c0.1,0,0.1,0,0.2,0h3.3c0.4-0.1,0.8,0.2,0.8,0.6
	c0,0.1,0,0.1,0,0.2v17.8c-0.1,0.6,0.1,1.3,0.5,1.8c0.5,0.4,1.1,0.6,1.7,0.5h2.7c1.1,0.2,2.1-0.4,2.3-1.5c0.1-0.3,0.1-0.5,0-0.8V19.5
	c-0.1-0.4,0.2-0.8,0.6-0.8C105.4,18.7,105.5,18.7,105.5,18.7z"/>
<path class="st1" d="M128.3,43.9h-12.9c-0.4,0.1-0.8-0.2-0.8-0.6c0-0.1,0-0.1,0-0.2V19.5c-0.1-0.4,0.2-0.8,0.6-0.8
	c0.1,0,0.1,0,0.2,0h3.3c0.4-0.1,0.8,0.2,0.8,0.6c0,0.1,0,0.1,0,0.2v19.6c0,0.3,0.2,0.4,0.5,0.4h8.3c0.5,0,0.8,0.3,0.8,0.9v2.7
	C129.1,43.6,128.8,43.9,128.3,43.9z"/>
<path class="st1" d="M137.3,19.5v23.6c0.1,0.4-0.2,0.8-0.6,0.8c-0.1,0-0.1,0-0.2,0h-3.3c-0.4,0.1-0.8-0.2-0.8-0.6c0-0.1,0-0.1,0-0.2
	V19.5c-0.1-0.4,0.2-0.8,0.6-0.8c0.1,0,0.1,0,0.2,0h3.3c0.4-0.1,0.8,0.2,0.8,0.6C137.3,19.4,137.3,19.4,137.3,19.5z"/>
<path class="st1" d="M146.7,43.9h-3.3c-0.4,0.1-0.8-0.2-0.8-0.6c0-0.1,0-0.1,0-0.2V19.5c-0.1-0.4,0.2-0.8,0.6-0.8c0.1,0,0.1,0,0.2,0
	h2.9c0.4-0.1,0.9,0.2,1.1,0.5l7.9,14.9h0.2V19.5c-0.1-0.4,0.2-0.8,0.6-0.8c0.1,0,0.1,0,0.2,0h3.2c0.4-0.1,0.8,0.2,0.8,0.6
	c0,0.1,0,0.1,0,0.2v23.6c0.1,0.4-0.2,0.8-0.6,0.8c-0.1,0-0.1,0-0.2,0h-2.9c-0.5,0-1-0.3-1.3-0.8l-7.9-14.6h-0.2v14.5
	c0.1,0.4-0.2,0.8-0.6,0.8C146.9,43.9,146.8,43.9,146.7,43.9z"/>
<path class="st1" d="M179.2,43.9h-12.9c-0.4,0.1-0.8-0.2-0.8-0.6c0-0.1,0-0.1,0-0.2V19.5c-0.1-0.4,0.2-0.8,0.6-0.8
	c0.1,0,0.1,0,0.2,0h12.8c0.5,0,0.8,0.3,0.8,0.8v2.7c0,0.5-0.3,0.8-0.8,0.8H171c-0.3,0-0.5,0.1-0.5,0.4v5.1c0,0.3,0.2,0.4,0.5,0.4
	h6.8c0.4-0.1,0.8,0.2,0.8,0.6c0,0.1,0,0.1,0,0.2v2.7c0.1,0.4-0.2,0.8-0.6,0.8c-0.1,0-0.1,0-0.2,0h-6.7c-0.3,0-0.5,0.1-0.5,0.4v5.4
	c0,0.3,0.2,0.4,0.5,0.4h8.2c0.5,0,0.8,0.3,0.8,0.8v2.7C180,43.6,179.7,43.9,179.2,43.9z"/>
<path class="st1" d="M200.8,43.9h-3.3c-0.6,0-0.9-0.3-0.9-0.8V23.4c0-0.3-0.1-0.4-0.4-0.4h-4.5c-0.4,0.1-0.8-0.2-0.8-0.6
	c0-0.1,0-0.1,0-0.2v-2.7c-0.1-0.4,0.2-0.8,0.6-0.8c0.1,0,0.1,0,0.2,0h14.8c0.4-0.1,0.8,0.2,0.8,0.6c0,0.1,0,0.1,0,0.2v2.7
	c0.1,0.4-0.2,0.8-0.6,0.8c-0.1,0-0.1,0-0.2,0h-4.5c-0.3,0-0.5,0.1-0.5,0.4v19.6c0.1,0.4-0.2,0.8-0.6,0.8
	C200.9,43.9,200.9,43.9,200.8,43.9z"/>
<path class="st1" d="M214.5,43.9h-3.3c-0.4,0.1-0.8-0.2-0.8-0.6c0-0.1,0-0.1,0-0.2V19.5c-0.1-0.4,0.2-0.8,0.6-0.8c0.1,0,0.1,0,0.2,0
	h3.3c0.4-0.1,0.8,0.2,0.8,0.6c0,0.1,0,0.1,0,0.2v9.2c0,0.3,0.2,0.4,0.5,0.4h6.6c0.2,0,0.4-0.1,0.4-0.3c0,0,0-0.1,0-0.1v-9.2
	c-0.1-0.4,0.2-0.8,0.6-0.8c0.1,0,0.1,0,0.2,0h3.3c0.4-0.1,0.8,0.2,0.8,0.6c0,0.1,0,0.1,0,0.2v23.6c0.1,0.4-0.2,0.8-0.6,0.8
	c-0.1,0-0.1,0-0.2,0h-3.3c-0.4,0.1-0.8-0.2-0.8-0.6c0-0.1,0-0.1,0-0.2v-9.2c0-0.2-0.1-0.4-0.3-0.4c0,0-0.1,0-0.1,0h-6.6
	c-0.3,0-0.5,0.1-0.5,0.4v9.2c0.1,0.4-0.2,0.8-0.6,0.8C214.6,43.9,214.6,43.9,214.5,43.9z"/>
<path class="st1" d="M246.6,43.9h-12.8c-0.4,0.1-0.8-0.2-0.8-0.6c0-0.1,0-0.1,0-0.2V19.5c-0.1-0.4,0.2-0.8,0.6-0.8
	c0.1,0,0.1,0,0.2,0h12.8c0.5,0,0.8,0.3,0.8,0.8v2.7c0,0.5-0.3,0.8-0.8,0.8h-8.2c-0.3,0-0.5,0.1-0.5,0.4v5.1c0,0.3,0.2,0.4,0.5,0.4
	h6.7c0.4-0.1,0.8,0.2,0.8,0.6c0,0.1,0,0.1,0,0.2v2.7c0.1,0.4-0.2,0.8-0.6,0.8c-0.1,0-0.1,0-0.2,0h-6.7c-0.3,0-0.5,0.1-0.5,0.4v5.4
	c0,0.3,0.2,0.4,0.5,0.4h8.2c0.5,0,0.8,0.3,0.8,0.8v2.7C247.4,43.6,247.1,43.9,246.6,43.9z"/>
<path class="st1" d="M262.2,43.9h-4.4c-1.7,0.1-3.5-0.5-4.8-1.6c-1.2-1.3-1.8-3-1.7-4.8V25.1c-0.1-1.8,0.5-3.5,1.7-4.8
	c1.3-1.2,3-1.8,4.8-1.6h4.4c1.8-0.1,3.5,0.5,4.8,1.7c1.2,1.3,1.8,3,1.7,4.8v12.5c0.1,1.7-0.5,3.4-1.7,4.7
	C265.7,43.4,264,44,262.2,43.9z M258.6,39.6h2.8c0.6,0.1,1.3-0.1,1.8-0.5c0.4-0.5,0.6-1.1,0.5-1.8v-12c0.1-0.6-0.1-1.3-0.5-1.8
	c-0.5-0.4-1.1-0.6-1.8-0.5h-2.8c-0.6-0.1-1.3,0.1-1.8,0.5c-0.4,0.5-0.6,1.1-0.5,1.8v12c-0.1,0.6,0.1,1.3,0.5,1.8
	C257.3,39.5,257.9,39.7,258.6,39.6z"/>
<path class="st1" d="M277.5,43.9h-3.3c-0.4,0.1-0.8-0.2-0.8-0.6c0-0.1,0-0.1,0-0.2V19.5c-0.1-0.4,0.2-0.8,0.6-0.8c0.1,0,0.1,0,0.2,0
	h9.3c1.8-0.1,3.5,0.5,4.8,1.7c1.2,1.3,1.8,3,1.7,4.7v3.1c0,3-1.2,4.9-3.5,5.9v0.2l4.2,8.7c0.2,0.6,0,0.9-0.7,0.9h-3.2
	c-0.4,0-0.7,0-1-0.2c-0.2-0.2-0.4-0.4-0.5-0.7l-3.9-8.5h-2.6c-0.3,0-0.5,0.1-0.5,0.4v8c0.1,0.4-0.2,0.8-0.6,0.8
	C277.7,43.9,277.6,43.9,277.5,43.9z M278.8,30.6h3.8c0.7,0.1,1.3-0.1,1.8-0.5c0.4-0.5,0.6-1.1,0.6-1.7v-3.1c0.1-0.6-0.2-1.3-0.6-1.8
	c-0.5-0.4-1.2-0.6-1.8-0.5h-3.8c-0.3,0-0.4,0.1-0.4,0.4v6.7c0,0.2,0.1,0.4,0.3,0.4C278.7,30.6,278.7,30.6,278.8,30.6L278.8,30.6z"/>
<path class="st1" d="M304.1,43.9h-3.3c-0.4,0.1-0.8-0.2-0.8-0.6c0-0.1,0-0.1,0-0.2v-8.4l-7.2-15.1c-0.1-0.2-0.1-0.4,0-0.6
	c0.1-0.2,0.3-0.3,0.5-0.2h4.2c0.4,0,0.7,0.3,0.9,0.8l4,9.5h0.3l3.8-9.5c0.2-0.5,0.5-0.8,0.9-0.8h4.2c0.2,0,0.4,0.1,0.6,0.2
	c0.1,0.2,0.1,0.4,0,0.6l-7.2,15.1v8.4c0.1,0.4-0.2,0.8-0.6,0.8C304.2,43.9,304.1,43.9,304.1,43.9z"/>
</svg>
