<?xml version="1.0" encoding="utf-8"?>
<!-- Generator: Adobe Illustrator 22.0.1, SVG Export Plug-In . SVG Version: 6.00 Build 0)  -->
<svg version="1.1" id="Layer_1" xmlns="http://www.w3.org/2000/svg" xmlns:xlink="http://www.w3.org/1999/xlink" x="0px" y="0px"
	 viewBox="0 0 298.9 57.3" style="enable-background:new 0 0 298.9 57.3;" xml:space="preserve">
<style type="text/css">
	.st0{fill:#FFFFFF;}
	.st1{fill:none;}
</style>
<title>womanese</title>
<g>
	<path class="st0" d="M15.7,18c0.2,0.9,0.4,1.7,0.8,2.5c0.3,0.8,0.3,1.6,0.2,2.5c-0.1,0.9-0.3,1.7-0.4,2.6c-0.1,0.3-0.1,0.6-0.2,0.9
		c-0.1,0.5-0.3,1-0.7,1.4c-0.3,0.3-0.7,0.7-1,1c-0.5,0.6-1,1.1-1.5,1.6c-0.9,0.9-2,1.3-3.2,1.4c-0.5,0-1.1,0-1.6-0.1
		c-0.3,0-0.7,0-1,0c-1.1,0.1-1.8,0.7-2,1.9c-0.1,0.6-0.1,1.3-0.1,1.9c0,0.4,0,0.8,0.1,1.2c0,1.8,0,3.6-0.1,5.4c0,0.5-0.2,1-0.4,1.4
		c-0.2,0.4-0.6,0.7-1.1,0.8c-0.6,0.1-1.2,0.1-1.8,0c-0.7-0.2-1.1-0.7-1.2-1.4c0-0.2,0-0.4,0-0.7c0-0.8,0-1.6-0.1-2.3
		c0-0.5,0-0.9,0.1-1.3c0,0,0-0.1,0-0.1c0.1-0.5,0.1-1.1,0-1.6c-0.1-1-0.1-2-0.2-2.9c0-0.3,0-0.6,0-1c0-1.1-0.1-2.2-0.2-3.3
		c-0.1-0.6,0-1.2,0.1-1.8c0.2-0.9,0.2-1.8,0-2.7c-0.1-0.7-0.1-1.3,0-2c0.2-1.2,0.3-2.4,0.2-3.6c0-0.4,0-0.8,0-1.2c0-0.2,0-0.3,0-0.5
		c0-0.1,0-0.2,0-0.3c0-0.5,0-1,0-1.4c-0.1-0.7,0-1.4,0.2-2c0.2-0.5,0.5-0.9,1.1-1.1C1.8,13,2.1,12.9,2.5,13c0.1,0,0.3,0,0.4,0
		c0.2,0,0.3,0,0.5,0c1,0,2.1-0.1,3.1-0.3c0.7-0.1,1.3-0.1,1.9,0.2c0.6,0.2,1.2,0.3,1.8,0.3c1.4,0.1,2.5,0.6,3.3,1.6
		c0.3,0.3,0.5,0.6,0.8,0.9c0.2,0.2,0.4,0.4,0.5,0.6C15.3,16.8,15.6,17.3,15.7,18z M11.8,22.7c0.2-0.7,0.1-1.4-0.2-2.1
		c-0.2-0.4-0.4-0.7-0.6-1c-0.4-0.6-1-1-1.7-1.2c-0.3-0.1-0.6-0.1-0.9-0.2c-0.4-0.1-0.8-0.2-1.2-0.3c-0.3-0.1-0.6-0.1-0.9-0.1
		c-0.4,0-0.7,0.2-0.9,0.5c-0.1,0.2-0.2,0.4-0.3,0.6c-0.2,0.7-0.3,1.4-0.3,2.1c0,0.5,0,1-0.1,1.5c-0.1,0.4-0.1,0.8,0,1.2
		C4.9,24,5,24.3,4.9,24.7c0,0.1,0,0.1,0,0.2c0,0.2,0,0.3,0,0.5c0,0.2,0.1,0.3,0.1,0.5c0.3,0.6,0.8,0.9,1.5,0.9
		c1.1,0,2.1-0.2,3.1-0.6c0.6-0.2,1-0.6,1.3-1.2C11.4,24.3,11.7,23.6,11.8,22.7z"/>
	<path class="st0" d="M34,38.3c0,0,0,0.1,0,0.1c0.1,1.2,0.3,2.3,0.6,3.4c0.2,0.5,0.2,1.1,0,1.6c-0.2,0.7-0.6,1-1.3,1
		c-0.8,0-1.6-0.2-2.4-0.5c-0.5-0.2-0.9-0.6-1-1.2c-0.1-0.3-0.2-0.7-0.2-1c0-0.1,0-0.3,0-0.4c-0.2-0.8-0.5-1.6-0.9-2.2
		c-0.5-0.6-1.1-1-1.9-1c-0.2,0-0.3,0-0.5,0c-0.1,0-0.2,0-0.2,0c-0.8,0-1.5,0.1-2.3,0.1c-0.1,0-0.2,0-0.3,0c-1.1,0.1-1.8,0.7-2,1.8
		c0,0,0,0.1,0,0.1c0,0.2-0.1,0.4-0.1,0.7c0,0.7-0.1,1.3-0.4,2c-0.3,0.7-0.8,1.1-1.5,1.2c-0.6,0.1-1.2,0.2-1.8,0.3
		c-0.6,0-1.1-0.2-1.4-0.7s-0.4-0.9-0.3-1.5c0.1-0.3,0.1-0.5,0.3-0.8c0,0,0-0.1,0-0.1c0.3-0.9,0.6-1.9,0.8-2.9c0.1-0.3,0.1-0.7,0.1-1
		c0.1-0.8,0.2-1.6,0.5-2.4c0-0.1,0.1-0.2,0.1-0.3c0,0,0-0.1,0-0.1c0.4-1.5,0.8-3,1.1-4.5c0.1-0.3,0.1-0.6,0.3-0.9
		c0.4-0.9,0.6-1.8,0.7-2.8c0-0.4,0.1-0.7,0.2-1.1c0.2-0.8,0.4-1.6,0.5-2.4c0.1-0.6,0.2-1.2,0.5-1.7c0.3-0.7,0.4-1.3,0.4-2.1
		c0-0.5,0.1-0.9,0.3-1.4c0.3-0.7,0.5-1.4,0.6-2.1c0.1-0.6,0.3-1.1,0.6-1.6c0.1-0.2,0.3-0.4,0.4-0.5c0.4-0.3,1-0.6,1.7-0.7
		c0.7-0.1,1.3-0.1,1.8,0.1c0.5,0.2,0.9,0.6,1.1,1.1c0,0.1,0.1,0.2,0.1,0.3c0.5,1,0.8,2,1,3c0.1,0.4,0.2,0.8,0.3,1.2
		c0.2,0.6,0.3,1.3,0.3,2c0.1,0.9,0.3,1.7,0.7,2.5c0.4,0.9,0.7,1.9,0.8,2.9v0c0,0.2,0,0.4,0.1,0.6c0.1,0.6,0.3,1.1,0.3,1.7
		c0.1,0.8,0.3,1.6,0.5,2.3c0.2,0.4,0.3,0.9,0.3,1.3c0.2,1.2,0.5,2.3,0.9,3.3C33.6,36.1,33.9,37.2,34,38.3z M26,33.1
		c0.9-0.1,1.2-0.6,1-1.5c-0.2-1-0.3-1.9-0.4-2.9c0-0.5-0.1-1-0.3-1.4c-0.1-0.2-0.2-0.4-0.3-0.5c-0.2-0.2-0.4-0.3-0.7-0.3
		c-0.3,0-0.5,0.2-0.7,0.5c-0.2,0.3-0.3,0.7-0.3,1c0,0.8-0.2,1.6-0.5,2.4c-0.2,0.4-0.3,0.8-0.3,1.2c0,0.7,0.3,1.2,1,1.4
		c0.3,0.1,0.6,0.1,0.8,0.1c0,0,0,0,0,0C25.6,33.2,25.8,33.2,26,33.1z"/>
	<path class="st0" d="M48,12.7c1.2-0.1,1.9,0.4,2.1,1.6c0.1,0.6,0.1,1.2,0,1.8c-0.2,0.8-0.6,1.3-1.4,1.5c-0.6,0.2-1.2,0.3-1.9,0.3
		c-0.4,0-0.8,0-1.2,0.1c-0.7,0.1-1.1,0.5-1.2,1.3c0,0.3,0,0.7,0,1c0,0.7,0,1.4-0.1,2.1c0,0.5,0,0.9,0,1.4c0,1.1,0,2.3-0.1,3.4
		c0,0.2,0,0.5-0.1,0.7c0,0.3-0.1,0.5-0.1,0.8c0,0.6,0,1.2,0.2,1.8c0,0.1,0,0.2,0,0.3c0.1,0.7,0.1,1.5-0.1,2.2
		C44.1,33.4,44,34,44,34.5c0,0.5,0,1,0.1,1.5c0.1,0.7,0.1,1.4,0,2.1c-0.1,0.9-0.1,1.7,0,2.6c0,0.7-0.1,1.4-0.3,2.1
		c-0.2,0.8-0.7,1.3-1.5,1.5c-0.1,0-0.1,0-0.2,0c-0.3,0.1-0.6,0.1-0.9,0.2c-0.7,0.1-1.1-0.2-1.4-0.8c-0.3-0.5-0.4-1.1-0.4-1.7
		c-0.1-1.2-0.1-2.4-0.2-3.6c0-0.6-0.1-1.2-0.1-1.7c0-0.5,0-1,0-1.5c0-0.2,0-0.3,0.1-0.5c0.1-0.9,0.1-1.8,0-2.8
		c-0.1-0.7,0-1.5,0.1-2.2c0.1-1,0.2-1.9,0.2-2.9c0-0.3,0-0.5-0.1-0.8c0,0,0-0.1,0-0.1c-0.1-0.7-0.2-1.4-0.2-2.1c0-0.2,0-0.4,0-0.6
		c-0.1-1.2,0-2.5,0.2-3.7c0-1.2-0.5-1.8-1.7-2c-0.5,0-0.9,0-1.4,0.1c-0.2,0-0.3,0-0.5,0.1c-0.4,0-0.8,0-1.2-0.1
		c-0.5-0.1-0.8-0.4-1-0.9c-0.3-0.7-0.4-1.4-0.4-2.2c0-0.9,0.5-1.5,1.5-1.6c0.5-0.1,0.9-0.1,1.4-0.1c0.5,0,1,0,1.5-0.1
		c0.6-0.1,1.3,0,1.9,0.1c0.9,0.2,1.8,0.2,2.7,0c0.7-0.1,1.5-0.2,2.3-0.2c0.6,0,1.2,0,1.8,0.1C46.7,12.7,47.4,12.8,48,12.7z"/>
	<path class="st0" d="M69.5,25.8c0.2,0.8,0.3,1.6,0.1,2.4c-0.1,0.3-0.1,0.6,0,0.9c0.1,0.8,0.1,1.5,0,2.3c-0.1,0.5-0.1,1-0.1,1.5
		c0.1,1.3,0,2.7-0.1,4c0,0.5,0,0.9,0.1,1.4c0.1,0.5,0.1,1,0.1,1.5c0,0.3,0,0.6,0,0.9c0.1,0.8,0,1.5-0.2,2.2c-0.1,0.5-0.4,0.8-0.9,1
		c-0.8,0.3-1.7,0.5-2.5,0.3c-0.9-0.2-1.4-0.7-1.3-1.7c0.1-0.6,0.1-1.2,0-1.7c-0.1-1.3-0.1-2.6,0-3.9c0-0.1,0-0.2,0-0.4
		c0-0.4,0-0.9,0-1.3c0-0.7,0-1.3,0-2c0-0.3,0-0.7-0.2-1c-0.2-0.5-0.5-0.9-1-1c-0.4-0.1-0.8-0.2-1.1-0.1c-0.9,0.1-1.8,0.1-2.8,0
		c-0.9-0.1-1.6,0.3-2,1.2c-0.3,0.7-0.4,1.4-0.2,2.2c0.2,0.8,0.3,1.5,0.1,2.3c-0.1,0.3-0.1,0.6-0.1,0.9c0,0,0,0.1,0,0.1
		c0,0.6,0,1.1-0.1,1.7c0,0.4,0,0.8,0,1.2c0.1,0.7,0,1.4-0.1,2.1c-0.2,0.8-0.7,1.3-1.5,1.4c-0.6,0.1-1.1,0.1-1.6,0
		c-0.8-0.2-1.2-0.7-1.3-1.5c0-0.2,0-0.5,0-0.7c0.1-0.5,0.1-1.1,0-1.6c0,0,0-0.1,0-0.1c-0.1-0.6-0.2-1.3-0.2-1.9
		c-0.1-0.7,0-1.4,0.1-2.1c0.1-0.7,0.1-1.4,0-2.1c0-0.5,0-0.9,0.1-1.4c0.2-1,0.3-1.9,0.3-2.9c0-0.5-0.1-1-0.2-1.5
		c-0.2-0.7-0.2-1.5-0.2-2.2c0-0.3,0-0.5,0-0.8c-0.1-1,0-1.9,0.1-2.8c0-0.1,0-0.2,0-0.3c0.1-0.6,0.1-1.3-0.1-1.9
		c-0.2-0.7-0.2-1.5,0-2.2c0.2-0.6,0.2-1.3,0-1.9c-0.1-0.4-0.1-0.9-0.1-1.4c0.1-1.2,0.7-1.8,1.9-2c0.6-0.1,1.1,0,1.6,0.2
		c0.5,0.2,0.8,0.5,1,0.9c0.3,0.5,0.4,1.1,0.4,1.6c0,0.1,0,0.1,0,0.1c0.1,0.5,0.1,1,0.1,1.5c0,0.6,0,1.3-0.1,1.9c0,0.1,0,0.2,0,0.2
		c-0.1,0.9,0,1.8,0.1,2.7c0.1,0.9,0.1,1.7,0,2.6c0,0.2,0,0.4,0,0.5c0.1,0.7,0.4,1.1,1.1,1.2c0.2,0,0.3,0,0.5,0c0.3-0.1,0.7-0.1,1,0
		c0.8,0.1,1.6,0.1,2.4,0.1c0.1,0,0.1,0,0.1,0c0.6,0,1.1-0.2,1.5-0.7c0.2-0.2,0.3-0.4,0.3-0.6c0.3-0.7,0.3-1.5,0.1-2.3
		c-0.2-0.8-0.3-1.6-0.2-2.4c0.1-0.6,0.1-1.2,0-1.8c0-0.1,0-0.2,0-0.3c0-0.8,0-1.6,0.2-2.4c0-0.2,0.1-0.4,0.1-0.6
		c0-0.2,0-0.4,0.1-0.6c0.2-1.1,0.9-1.6,2-1.6c0.3,0,0.7,0,1,0.1c0.5,0.2,0.9,0.5,1.1,1.1c0.2,0.7,0.3,1.5,0.4,2.2
		c0,0.7,0.1,1.5,0.2,2.3c0.1,0.6,0.1,1.3,0,1.9c-0.1,0.5-0.1,1.1,0,1.6c0.1,0.4,0,0.8,0,1.2c0,0.1-0.1,0.2-0.1,0.3
		c0,0.1,0,0.2-0.1,0.3C69.3,24.6,69.3,25.2,69.5,25.8z"/>
	<path class="st0" d="M97.9,12.7c1.2-0.1,1.9,0.4,2.1,1.6c0.1,0.6,0.1,1.2,0,1.8c-0.2,0.8-0.6,1.3-1.4,1.5c-0.6,0.2-1.2,0.3-1.9,0.3
		c-0.4,0-0.8,0-1.2,0.1c-0.7,0.1-1.1,0.5-1.2,1.3c0,0.3,0,0.7,0,1c0,0.7,0,1.4-0.1,2.1c0,0.5,0,0.9,0,1.4c0,1.1,0,2.3-0.1,3.4
		c0,0.2,0,0.5-0.1,0.7c0,0.3-0.1,0.5-0.1,0.8c0,0.6,0,1.2,0.2,1.8c0,0.1,0,0.2,0,0.3c0.1,0.7,0.1,1.5-0.1,2.2
		c-0.1,0.5-0.1,1.1-0.1,1.6c0,0.5,0,1,0.1,1.5c0.1,0.7,0.1,1.4,0,2.1c-0.1,0.9-0.1,1.7,0,2.6c0,0.7-0.1,1.4-0.3,2.1
		c-0.2,0.8-0.7,1.3-1.5,1.5c-0.1,0-0.1,0-0.2,0c-0.3,0.1-0.6,0.1-0.9,0.2c-0.7,0.1-1.1-0.2-1.4-0.8c-0.3-0.5-0.4-1.1-0.4-1.7
		c-0.1-1.2-0.1-2.4-0.2-3.6c0-0.6-0.1-1.2-0.1-1.7c0-0.5,0-1,0-1.5c0-0.2,0-0.3,0.1-0.5c0.1-0.9,0.1-1.8,0-2.8
		c-0.1-0.7,0-1.5,0.1-2.2c0.1-1,0.2-1.9,0.2-2.9c0-0.3,0-0.5-0.1-0.8c0,0,0-0.1,0-0.1c-0.1-0.7-0.2-1.4-0.2-2.1c0-0.2,0-0.4,0-0.6
		c-0.1-1.2,0-2.5,0.2-3.7c0-1.2-0.5-1.8-1.7-2c-0.5,0-0.9,0-1.4,0.1c-0.2,0-0.3,0-0.5,0.1c-0.4,0-0.8,0-1.2-0.1
		c-0.5-0.1-0.8-0.4-1-0.9c-0.3-0.7-0.4-1.4-0.4-2.2c0-0.9,0.5-1.5,1.5-1.6c0.5-0.1,0.9-0.1,1.4-0.1c0.5,0,1,0,1.5-0.1
		c0.6-0.1,1.3,0,1.9,0.1c0.9,0.2,1.8,0.2,2.7,0c0.7-0.1,1.5-0.2,2.3-0.2c0.6,0,1.2,0,1.8,0.1C96.6,12.7,97.2,12.8,97.9,12.7z"/>
	<path class="st0" d="M117.8,19.9c0,0.2,0.1,0.4,0.1,0.7c0.1,0.6,0.1,1.1,0.1,1.7c0,0.5,0,0.9-0.1,1.4c0,0.2,0,0.4-0.1,0.7
		c0,0.1,0,0.1,0,0.2c0,0.1,0,0.2,0,0.3c0,0.7,0,1.5-0.1,2.2c-0.1,0.9-0.1,1.7,0,2.6c0,0.1,0,0.2,0,0.3c0.2,1.5,0.1,3,0,4.6
		c-0.1,0.8-0.1,1.7-0.1,2.5c0,0.5,0,1-0.1,1.5c-0.3,1.7-1.2,3.2-2.6,4.3c-1.2,0.9-2.6,1.4-4.1,1.6c-0.2,0-0.3,0.1-0.5,0.1
		c-0.4,0.1-0.8,0.1-1.2,0.1c-0.3,0-0.7-0.1-1-0.2c-0.3-0.1-0.7-0.2-1-0.3c-0.7-0.2-1.5-0.5-2.2-0.8c-0.8-0.3-1.5-0.8-2-1.4
		c-0.5-0.6-0.8-1.2-1.1-1.9c-0.2-0.7-0.4-1.4-0.6-2.1c-0.1-0.7-0.2-1.4,0-2.1c0.1-0.9,0.1-1.8,0-2.7c-0.1-0.3-0.1-0.7,0-1
		c0-0.2,0-0.3,0-0.5c0-0.6,0-1.3,0-1.9c0-0.5,0.1-1,0.1-1.5c0-0.3,0.1-0.6,0.1-1c0.1-0.5,0.1-1.1,0-1.6c-0.1-0.7-0.2-1.5-0.1-2.2
		c0.1-0.5,0.1-0.9,0-1.4c-0.1-0.6-0.1-1.3,0-1.9c0.1-1,0.3-1.9,0.7-2.8c0.5-1,1.1-1.9,2-2.5c0.1-0.1,0.3-0.2,0.4-0.3
		c0.4-0.3,0.8-0.6,1.2-0.9c0.3-0.3,0.6-0.4,1-0.4c0.9,0,1.8-0.1,2.7-0.3c1.3-0.2,2.6,0,3.8,0.6c0.3,0.1,0.5,0.3,0.8,0.4
		c0.3,0.2,0.7,0.4,1,0.6c0.6,0.3,1,0.8,1.3,1.4c0.3,0.6,0.6,1.3,0.9,2C117.5,18.5,117.7,19.2,117.8,19.9z M112.5,31.5
		c-0.1-0.9-0.1-1.7,0.1-2.6c0.1-0.6,0.1-1.1,0-1.7c-0.1-0.6-0.1-1.2-0.1-1.9c0.1-0.5,0.1-1.1,0.1-1.7c0-0.4,0-0.8,0-1.2
		c0-0.5-0.1-1.1-0.1-1.7c0-0.5-0.1-1-0.4-1.5c-0.8-1.2-1.9-1.7-3.3-1.5c-0.4,0.1-0.8,0.2-1.1,0.6c-0.7,0.7-1.1,1.6-1.3,2.5
		c-0.1,0.5-0.1,1,0,1.5c0,0,0,0,0,0c0.1,0.9,0.1,1.8,0,2.6c-0.1,0.5-0.1,1.1,0,1.6c0.2,0.8,0.1,1.7-0.1,2.5
		c-0.1,0.6-0.2,1.2-0.1,1.8c0.1,1.6,0.2,3.1,0.2,4.7c0,0.4,0,0.8,0.1,1.2c0.1,0.5,0.3,0.9,0.6,1.3c0.6,0.6,1.3,1,2.1,1.2
		c0.8,0.2,1.5,0,2.1-0.5c0.6-0.5,1-1.2,1.1-2c0.1-0.4,0.1-0.8,0.1-1.2c0-0.2,0-0.5,0.1-0.7c0-0.1,0-0.1,0-0.2c0.1-0.3,0.1-0.7,0.1-1
		c0-0.3-0.1-0.5-0.1-0.8C112.6,32.5,112.6,32,112.5,31.5z"/>
	<path class="st0" d="M153.9,16.3c0,0.1,0,0.2,0.1,0.4c0,0.1,0,0.3,0.1,0.4c0.1,0.5,0.1,1,0,1.6c-0.2,0.8-0.2,1.5-0.1,2.3
		c0.1,0.6,0.1,1.3,0,1.9c0,0,0,0,0,0.1c-0.1,1-0.1,2.1,0,3.1c0,0,0,0.1,0,0.1c0,0.2,0,0.3,0,0.5c0.1,1.3,0.1,2.5-0.1,3.8
		c-0.2,1.3-0.2,2.6,0.1,3.8c0.2,0.9,0.2,1.8,0,2.7c-0.1,0.6-0.1,1.2,0,1.9c0.1,0.8,0.1,1.7,0,2.5c0,0.1,0,0.1,0,0.2
		c0,0.2-0.1,0.5-0.1,0.7c0,0.2-0.1,0.4-0.1,0.6c0,0.2-0.1,0.4-0.1,0.6c-0.3,0.8-0.9,1.1-1.7,1.1c-0.5,0-0.9-0.1-1.3-0.2
		c-0.6-0.2-1-0.6-1.2-1.2c-0.1-0.3-0.1-0.5-0.1-0.8c-0.1-1.1-0.2-2.2-0.2-3.3c0-0.1,0-0.2,0-0.3c0,0,0-0.1,0-0.1
		c0-0.9,0-1.7,0.1-2.6c0.1-0.9,0-1.8-0.1-2.7c-0.1-0.5,0-1.1,0.1-1.6c0.1-0.5,0.1-0.9,0.1-1.4c0-0.3-0.1-0.6-0.4-0.8
		c-0.3-0.2-0.5-0.2-0.8,0c-0.1,0.1-0.2,0.3-0.3,0.4c-0.2,0.5-0.5,1.1-0.7,1.6c-0.4,0.9-0.8,1.8-1.1,2.7c-0.1,0.4-0.3,0.7-0.4,1.1
		c-0.2,0.5-0.6,0.8-1,1.2c-0.1,0.1-0.1,0.1-0.2,0.2c-0.8,0.4-1.6,0.5-2.5,0.3c-0.5-0.2-0.8-0.5-1-0.9c-0.4-0.6-0.7-1.2-0.9-1.8
		c-0.1-0.3-0.2-0.6-0.3-0.9c-0.3-1-0.7-1.9-1-2.9c-0.2-0.6-0.5-1-0.9-1.5c-0.2-0.3-0.5-0.3-0.8-0.3c-0.3,0.1-0.5,0.4-0.5,0.7
		c0,0.5,0,0.9,0,1.4c0,0.1,0,0.1,0,0.1c0,0.1,0,0.3,0,0.4c0,1.1,0,2.2,0.1,3.3c0,0.5,0,1,0.1,1.5c0.1,0.7,0,1.5,0,2.3
		c0,0.3,0,0.5,0,0.8c0,0.3,0,0.7-0.1,1c0,0,0,0.1,0,0.1c0,0.1,0,0.1,0,0.1c-0.2,0.6-0.2,1.3,0,1.9c0.1,0.5,0,0.9-0.3,1.3
		s-0.6,0.5-1,0.6c-0.9,0.2-1.8,0-2.7-0.3c-0.4-0.2-0.6-0.4-0.8-0.8c-0.1-0.3-0.2-0.7-0.2-1c0-1.1,0-2.2-0.1-3.4c0,0,0-0.1,0-0.1
		c-0.1-0.7,0-1.3,0.1-2c0.1-0.3,0.1-0.7,0.1-1c0-0.6,0-1.1,0.1-1.7c0-0.2,0-0.4,0.1-0.6c0-0.5,0-0.9-0.1-1.4c0-0.1,0-0.2-0.1-0.3
		c-0.2-1-0.2-2-0.2-3c0-0.5,0-1,0-1.4c0-0.5,0-1.1,0-1.6c0-0.1,0-0.1,0-0.2c0-0.8,0.1-1.6,0.2-2.4c0-0.3,0.1-0.6,0.1-0.9
		c0,0,0-0.1,0-0.1c0-0.3,0-0.6,0.1-1c0.1-0.8,0.1-1.6,0.1-2.4c-0.1-0.9-0.1-1.8-0.1-2.7c0-0.3,0-0.6,0-0.9c0-0.3,0-0.5,0.1-0.8
		c0.1-0.6,0.5-0.9,1-1.1c0.2-0.1,0.4-0.1,0.5-0.1c0,0,0.1,0,0.1,0c0.7,0,1.5,0,2.2,0.1c0.9,0.1,1.5,0.6,1.8,1.4
		c0.1,0.2,0.2,0.5,0.3,0.8c0.1,0.2,0.2,0.4,0.2,0.6c0.2,0.6,0.5,1.1,0.8,1.7c0.2,0.4,0.4,0.9,0.5,1.4c0.3,1.1,0.6,2.2,1,3.3
		c0.2,0.5,0.4,0.9,0.7,1.4c0.3,0.5,0.5,1,0.5,1.5c0,0.3,0.1,0.6,0.2,0.8c0.1,0.5,0.4,0.9,1,1c0.3,0,0.5-0.1,0.8-0.2
		c0.2-0.1,0.4-0.3,0.6-0.6c0.1-0.2,0.2-0.4,0.2-0.7c0.4-1.4,0.9-2.8,1.5-4.2c0.4-0.8,0.6-1.6,0.8-2.5c0.1-0.7,0.4-1.3,0.7-1.8
		c0.5-0.7,0.9-1.5,1.3-2.3c0.2-0.3,0.4-0.6,0.6-0.9c0.3-0.4,0.7-0.6,1.2-0.6c0.7-0.1,1.3-0.1,2,0c0.9,0.2,1.3,0.7,1.4,1.6
		c0,0.2,0,0.4,0,0.6C153.8,15.6,153.8,15.9,153.9,16.3z"/>
	<path class="st0" d="M174.3,38.3c0,0,0,0.1,0,0.1c0.1,1.2,0.3,2.3,0.6,3.4c0.2,0.5,0.2,1.1,0,1.6c-0.2,0.7-0.6,1-1.3,1
		c-0.8,0-1.6-0.2-2.4-0.5c-0.5-0.2-0.9-0.6-1-1.2c-0.1-0.3-0.2-0.7-0.2-1c0-0.1,0-0.3,0-0.4c-0.2-0.8-0.5-1.6-0.9-2.2
		c-0.5-0.6-1.1-1-1.9-1c-0.2,0-0.3,0-0.5,0c-0.1,0-0.2,0-0.2,0c-0.8,0-1.5,0.1-2.3,0.1c-0.1,0-0.2,0-0.3,0c-1.1,0.1-1.8,0.7-2,1.8
		c0,0,0,0.1,0,0.1c0,0.2-0.1,0.4-0.1,0.7c0,0.7-0.1,1.3-0.4,2c-0.3,0.7-0.8,1.1-1.5,1.2c-0.6,0.1-1.2,0.2-1.8,0.3
		c-0.6,0-1.1-0.2-1.4-0.7c-0.3-0.4-0.4-0.9-0.3-1.5c0.1-0.3,0.1-0.5,0.3-0.8c0,0,0-0.1,0-0.1c0.3-0.9,0.6-1.9,0.8-2.9
		c0.1-0.3,0.1-0.7,0.1-1c0.1-0.8,0.2-1.6,0.5-2.4c0-0.1,0.1-0.2,0.1-0.3c0,0,0-0.1,0-0.1c0.4-1.5,0.8-3,1.1-4.5
		c0.1-0.3,0.1-0.6,0.3-0.9c0.4-0.9,0.6-1.8,0.7-2.8c0-0.4,0.1-0.7,0.2-1.1c0.2-0.8,0.4-1.6,0.5-2.4c0.1-0.6,0.2-1.2,0.5-1.7
		c0.3-0.7,0.4-1.3,0.4-2.1c0-0.5,0.1-0.9,0.3-1.4c0.3-0.7,0.5-1.4,0.6-2.1c0.1-0.6,0.3-1.1,0.6-1.6c0.1-0.2,0.3-0.4,0.4-0.5
		c0.4-0.3,1-0.6,1.7-0.7c0.7-0.1,1.3-0.1,1.8,0.1c0.5,0.2,0.9,0.6,1.1,1.1c0,0.1,0.1,0.2,0.1,0.3c0.5,1,0.8,2,1,3
		c0.1,0.4,0.2,0.8,0.3,1.2c0.2,0.6,0.3,1.3,0.3,2c0.1,0.9,0.3,1.7,0.7,2.5c0.4,0.9,0.7,1.9,0.8,2.9v0c0,0.2,0,0.4,0.1,0.6
		c0.1,0.6,0.3,1.1,0.3,1.7c0.1,0.8,0.3,1.6,0.5,2.3c0.2,0.4,0.3,0.9,0.3,1.3c0.2,1.2,0.5,2.3,0.9,3.3
		C174,36.1,174.2,37.2,174.3,38.3z M166.4,33.1c0.9-0.1,1.2-0.6,1-1.5c-0.2-1-0.3-1.9-0.4-2.9c0-0.5-0.1-1-0.3-1.4
		c-0.1-0.2-0.2-0.4-0.3-0.5c-0.2-0.2-0.4-0.3-0.7-0.3c-0.3,0-0.5,0.2-0.7,0.5c-0.2,0.3-0.3,0.7-0.3,1c0,0.8-0.2,1.6-0.5,2.4
		c-0.2,0.4-0.3,0.8-0.3,1.2c0,0.7,0.3,1.2,1,1.4c0.3,0.1,0.6,0.1,0.8,0.1c0,0,0,0,0,0C166,33.2,166.2,33.2,166.4,33.1z"/>
	<path class="st0" d="M195.1,24.7c0,0.3,0,0.5,0,0.8c0,0.5,0,1-0.1,1.5c0,0.2,0,0.3,0,0.5c0,0.1,0,0.2,0,0.3c0,0.7,0,1.5-0.1,2.3
		c0,0.1,0,0.2,0,0.3c-0.1,1.2-0.1,2.4,0,3.5c0.1,0.6,0.1,1.2,0,1.8c-0.1,1-0.1,1.9,0,2.8c0,0.5,0,1-0.1,1.5
		c-0.1,0.8-0.2,1.5-0.1,2.3c0.1,0.4,0,0.7-0.2,1c-0.2,0.3-0.5,0.5-0.8,0.6c-0.3,0.1-0.5,0.1-0.8,0.2c-0.8,0.1-1.5,0.1-2.3,0
		c-0.9-0.1-1.5-0.6-1.8-1.3c-0.3-0.6-0.5-1.1-0.8-1.7c-0.1-0.4-0.3-0.8-0.4-1.2c-0.1-0.3-0.2-0.6-0.3-0.9c-0.1-0.3-0.2-0.6-0.3-0.9
		c-0.5-1.2-0.9-2.5-1.2-3.8c-0.1-0.5-0.2-0.9-0.4-1.4c-0.1-0.3-0.2-0.5-0.3-0.8c0-0.1-0.1-0.2-0.1-0.3c-0.1-0.3-0.1-0.6-0.3-0.9
		c-0.1-0.2-0.2-0.4-0.3-0.6c-0.2-0.2-0.5-0.3-0.7-0.3c-0.3,0.1-0.4,0.3-0.5,0.6c0,0.2,0,0.4,0,0.6c0.2,0.7,0.2,1.4,0,2.1
		c-0.1,0.5-0.1,1,0,1.4c0.2,0.7,0.2,1.4,0,2.1c-0.3,1.3-0.3,2.6-0.1,3.9c0.1,0.7,0.1,1.5-0.2,2.1c-0.3,0.7-0.9,1.1-1.6,1.3
		c-0.5,0.1-0.9,0.1-1.4,0c-0.6-0.1-1-0.5-1.2-1c-0.4-0.8-0.5-1.6-0.3-2.5c0.2-0.6,0.2-1.3,0-1.9c-0.1-0.5-0.2-1-0.2-1.5
		c0-0.8,0-1.6,0-2.4c0-0.7,0-1.4,0.2-2.1c0.2-0.9,0.2-1.8,0.1-2.8c0,0,0-0.1,0-0.1c0-0.1,0-0.2,0-0.3c0.1-0.9,0-1.7-0.2-2.6
		c-0.2-0.8-0.2-1.6,0-2.4c0.2-1.3,0.2-2.5,0-3.8c-0.1-0.7-0.1-1.5,0-2.2c0.1-1.1,0.1-2.2,0-3.3c-0.1-0.8,0.1-1.5,0.7-2
		c0.1-0.1,0.3-0.2,0.4-0.3c0.8-0.3,1.6-0.5,2.5-0.4c0.7,0.1,1.3,0.4,1.7,1.1c0.3,0.5,0.5,0.9,0.7,1.4c0.1,0.3,0.2,0.5,0.3,0.8
		c0.3,0.6,0.5,1.2,0.6,1.9c0,0.2,0.1,0.4,0.2,0.6c0.3,0.8,0.5,1.5,0.7,2.3c0.1,0.3,0.2,0.7,0.4,0.9c0.5,0.9,0.9,1.9,1.2,3
		c0,0.1,0.1,0.1,0.1,0.2c0.1,0.4,0.3,0.9,0.4,1.3c0.1,0.2,0.1,0.4,0.2,0.7c0.1,0.2,0.1,0.4,0.2,0.6c0,0.1,0.1,0.2,0.2,0.3
		c0.1,0.1,0.2,0.2,0.3,0.3c0.1,0.1,0.3,0.1,0.4,0.1c0.3-0.1,0.5-0.3,0.6-0.6c0.1-0.4,0.2-0.7,0.2-1.1c0-0.2,0-0.3,0-0.5
		c0-0.1,0-0.2,0-0.2c0-0.7,0-1.3-0.1-2c0-0.1,0-0.2,0-0.2c0-0.4,0-0.8,0-1.2c0.1-1.5,0.1-3-0.1-4.5c0-0.2,0-0.5,0-0.7
		c0-0.1,0-0.1,0-0.2c0-0.6,0-1.1,0-1.7c0-0.1,0-0.3,0-0.4c0-0.3,0-0.5,0.1-0.8c0.2-0.8,0.7-1.3,1.5-1.4c0.7-0.1,1.3,0,2,0.2
		c0.8,0.3,1.2,0.8,1.3,1.7c0,0.4,0,0.8,0,1.2c-0.1,0.8-0.1,1.6,0.1,2.4c0.2,0.7,0.1,1.4,0,2.1c-0.2,0.7-0.2,1.4,0,2.2
		C195.1,23.4,195.1,24,195.1,24.7z"/>
	<path class="st0" d="M211.8,40.1c0.6,0.4,0.8,0.9,0.7,1.6c-0.1,0.5-0.2,1.1-0.5,1.5c-0.2,0.4-0.5,0.7-1,0.9
		c-0.9,0.3-1.7,0.4-2.7,0.2c-0.8-0.1-1.5-0.1-2.3-0.1c-0.1,0-0.2,0-0.3,0c-0.1,0-0.2,0-0.3,0c-0.2,0-0.4,0-0.5,0c-0.6,0-1.2,0-1.8,0
		c-0.2,0-0.4,0-0.5,0c-0.9,0-1.8-0.2-2.6-0.6c-0.3-0.2-0.6-0.4-0.8-0.8c-0.3-0.7-0.5-1.4-0.4-2.1c0.1-0.5,0.1-0.9,0.1-1.4
		c0.1-0.9,0-1.9-0.2-2.8c-0.2-1.1-0.2-2.2,0-3.3c0.2-0.9,0.2-1.9,0.2-2.8c0-0.4,0-0.8,0-1.2c0-0.3,0-0.6,0-0.9
		c0-0.6-0.1-1.2-0.2-1.7c-0.2-0.7-0.3-1.5-0.3-2.2c0,0,0,0,0,0c-0.1-1.5,0.1-2.9,0.3-4.3c0.1-0.9,0.2-1.8,0.1-2.7
		c0-0.4-0.1-0.8-0.1-1.1c-0.1-0.5-0.1-0.9-0.1-1.4c0-0.6,0.2-1.1,0.5-1.5c0.5-0.7,1.1-1,1.9-0.9c0,0,0.1,0,0.1,0h0
		c1.2,0,2,0.5,2.3,1.7c0.3,0.8,0.3,1.6,0.1,2.4c-0.2,0.9-0.2,1.8,0,2.7c0.1,0.5,0.1,1,0,1.5c-0.2,1.1-0.2,2.1-0.1,3.2
		c0.1,0.6,0.1,1.2,0.1,1.7c0,0.2,0,0.4,0,0.5c0,0.9,0,1.8-0.1,2.7c-0.1,0.4-0.1,0.8-0.2,1.2c-0.1,0.7-0.1,1.4,0,2.1
		c0.1,1.3,0.1,2.6,0,3.9c-0.1,0.6-0.1,1.2,0,1.8c0.2,0.9,0.7,1.4,1.6,1.5c0.1,0,0.1,0,0.2,0c0.6,0,1.1,0,1.7,0c0.5,0,1.1,0.1,1.6,0
		c0.7,0,1.4,0.1,2.1,0.2c0,0,0.1,0,0.1,0C211.3,39.9,211.5,40,211.8,40.1z"/>
	<path class="st0" d="M220.1,35c0,0.5,0.1,1,0.2,1.5c0.3,1.3,0.3,2.5,0.2,3.8c-0.1,0.6-0.1,1.2-0.1,1.8c0,0.4-0.1,0.7-0.2,1
		c-0.3,0.8-0.8,1.2-1.6,1.3c-0.5,0-1,0-1.5-0.2c-0.7-0.2-1.2-0.7-1.3-1.5c-0.1-0.3-0.1-0.6-0.1-0.9c0-0.5,0-1-0.2-1.4
		c-0.1-0.5-0.1-0.9-0.1-1.4c0-0.4,0-0.7,0-1.1c-0.1-0.6,0-1.2,0.1-1.7c0.1-0.6,0.1-1.1,0-1.6c-0.1-0.8,0-1.6,0.1-2.4
		c0.1-0.7,0.1-1.4,0-2.1c0-0.2,0-0.3,0-0.5c-0.1-0.9-0.1-1.7-0.2-2.5c0-0.4,0-0.7,0.1-1.1c0.1-0.7,0.1-1.3-0.1-2
		c-0.1-0.8-0.2-1.6-0.1-2.3c0.1-0.9,0.1-1.7,0-2.6c-0.1-1.3-0.1-2.7,0-4c0.1-0.4,0.2-0.8,0.4-1.2c0.2-0.5,0.6-0.8,1.2-0.9
		c0.5-0.1,1.1-0.1,1.6,0c1.1,0.2,1.7,0.9,1.6,2.1c-0.1,1.2-0.1,2.5,0,3.7c0,0.1,0,0.2,0,0.3c0,0,0,0.1,0,0.1c0,0.2,0,0.4,0,0.6
		c0,0.5,0,0.9,0.1,1.4c0,0.7,0,1.4-0.2,2.1c0,0,0,0.1,0,0.1c-0.1,0.8-0.1,1.5,0,2.3c0.1,0.9,0.2,1.7,0.2,2.6c0,0.2,0,0.5,0,0.7
		c0,0.2,0,0.5,0,0.7c0,0.6-0.1,1.2-0.2,1.8c0,0,0,0,0,0c0,0.1,0,0.2,0,0.3c0,0.5,0,1-0.1,1.5C220.1,33.7,220.1,34.3,220.1,35z"/>
	<path class="st0" d="M241.9,24.7c0,0.3,0,0.5,0,0.8c0,0.5,0,1-0.1,1.5c0,0.2,0,0.3,0,0.5c0,0.1,0,0.2,0,0.3c0,0.7,0,1.5-0.1,2.3
		c0,0.1,0,0.2,0,0.3c-0.1,1.2-0.1,2.4,0,3.5c0.1,0.6,0.1,1.2,0,1.8c-0.1,1-0.1,1.9,0,2.8c0,0.5,0,1-0.1,1.5
		c-0.1,0.8-0.2,1.5-0.1,2.3c0.1,0.4,0,0.7-0.2,1c-0.2,0.3-0.5,0.5-0.8,0.6c-0.3,0.1-0.5,0.1-0.8,0.2c-0.8,0.1-1.5,0.1-2.3,0
		c-0.9-0.1-1.5-0.6-1.8-1.3c-0.3-0.6-0.5-1.1-0.8-1.7c-0.1-0.4-0.3-0.8-0.4-1.2c-0.1-0.3-0.2-0.6-0.3-0.9c-0.1-0.3-0.2-0.6-0.3-0.9
		c-0.5-1.2-0.9-2.5-1.2-3.8c-0.1-0.5-0.2-0.9-0.4-1.4c-0.1-0.3-0.2-0.5-0.3-0.8c0-0.1-0.1-0.2-0.1-0.3c-0.1-0.3-0.1-0.6-0.3-0.9
		c-0.1-0.2-0.2-0.4-0.3-0.6c-0.2-0.2-0.5-0.3-0.7-0.3c-0.3,0.1-0.4,0.3-0.5,0.6c0,0.2,0,0.4,0,0.6c0.2,0.7,0.2,1.4,0,2.1
		c-0.1,0.5-0.1,1,0,1.4c0.2,0.7,0.2,1.4,0,2.1c-0.3,1.3-0.3,2.6-0.1,3.9c0.1,0.7,0.1,1.5-0.2,2.1c-0.3,0.7-0.9,1.1-1.6,1.3
		c-0.5,0.1-0.9,0.1-1.4,0c-0.6-0.1-1-0.5-1.2-1c-0.4-0.8-0.5-1.6-0.3-2.5c0.2-0.6,0.2-1.3,0-1.9c-0.1-0.5-0.2-1-0.2-1.5
		c0-0.8,0-1.6,0-2.4c0-0.7,0-1.4,0.2-2.1c0.2-0.9,0.2-1.8,0.1-2.8c0,0,0-0.1,0-0.1c0-0.1,0-0.2,0-0.3c0.1-0.9,0-1.7-0.2-2.6
		c-0.2-0.8-0.2-1.6,0-2.4c0.2-1.3,0.2-2.5,0-3.8c-0.1-0.7-0.1-1.5,0-2.2c0.1-1.1,0.1-2.2,0-3.3c-0.1-0.8,0.1-1.5,0.7-2
		c0.1-0.1,0.3-0.2,0.4-0.3c0.8-0.3,1.6-0.5,2.5-0.4c0.7,0.1,1.3,0.4,1.7,1.1c0.3,0.5,0.5,0.9,0.7,1.4c0.1,0.3,0.2,0.5,0.3,0.8
		c0.3,0.6,0.5,1.2,0.6,1.9c0,0.2,0.1,0.4,0.2,0.6c0.3,0.8,0.5,1.5,0.7,2.3c0.1,0.3,0.2,0.7,0.4,0.9c0.5,0.9,0.9,1.9,1.2,3
		c0,0.1,0.1,0.1,0.1,0.2c0.1,0.4,0.3,0.9,0.4,1.3c0.1,0.2,0.1,0.4,0.2,0.7c0.1,0.2,0.1,0.4,0.2,0.6c0,0.1,0.1,0.2,0.2,0.3
		c0.1,0.1,0.2,0.2,0.3,0.3c0.1,0.1,0.3,0.1,0.4,0.1c0.3-0.1,0.5-0.3,0.6-0.6c0.1-0.4,0.2-0.7,0.2-1.1c0-0.2,0-0.3,0-0.5
		c0-0.1,0-0.2,0-0.2c0-0.7,0-1.3-0.1-2c0-0.1,0-0.2,0-0.2c0-0.4,0-0.8,0-1.2c0.1-1.5,0.1-3-0.1-4.5c0-0.2,0-0.5,0-0.7
		c0-0.1,0-0.1,0-0.2c0-0.6,0-1.1,0-1.7c0-0.1,0-0.3,0-0.4c0-0.3,0-0.5,0.1-0.8c0.2-0.8,0.7-1.3,1.5-1.4c0.7-0.1,1.3,0,2,0.2
		c0.8,0.3,1.2,0.8,1.3,1.7c0,0.4,0,0.8,0,1.2c-0.1,0.8-0.1,1.6,0.1,2.4c0.2,0.7,0.1,1.4,0,2.1c-0.2,0.7-0.2,1.4,0,2.2
		C241.8,23.4,241.9,24,241.9,24.7z"/>
	<path class="st0" d="M259.8,40.1c1,0.3,1.4,0.9,1.4,1.9c-0.1,1-0.4,1.7-1,2.1c-0.6,0.4-1.2,0.6-1.9,0.6c-0.5,0-1.1,0-1.6-0.1
		c-0.8-0.1-1.6-0.1-2.4,0c-0.9,0.1-1.9,0.1-2.8,0c-0.6,0-1.3-0.1-1.9-0.2c-0.5-0.1-1.1-0.1-1.6-0.2c-0.9-0.1-1.3-0.6-1.4-1.5
		c0,0,0-0.1,0-0.1c0-0.3,0-0.6-0.1-0.9c0-0.6-0.1-1.3-0.2-1.9c-0.1-0.6-0.1-1.2,0-1.8c0.1-0.6,0.1-1.3-0.1-1.9
		c-0.2-0.9-0.2-1.7,0-2.6c0.1-0.6,0.1-1.1,0-1.7c-0.1-0.4-0.1-0.9-0.1-1.3c0-0.5,0-1.1,0-1.6c0,0,0,0,0,0c0-0.7,0-1.3-0.1-2
		c-0.1-1,0-2,0.2-3c0-0.2,0.1-0.4,0.1-0.6c0.2-1.5,0.2-3-0.2-4.5c-0.1-0.5-0.2-1-0.2-1.5c0-0.2,0-0.3,0-0.5c0-0.6,0-1.2,0.1-1.8
		c0.1-0.6,0.3-1,0.7-1.5c0.4-0.4,0.8-0.6,1.3-0.6c1.3-0.1,2.6-0.2,4-0.3c0.2,0,0.4,0,0.7,0c0.1,0,0.2,0,0.3,0c0.6,0,1.1,0,1.6,0.1
		c0.8,0.1,1.7,0.2,2.5,0.2c0.5,0,1,0,1.5,0c1,0,1.7,0.5,2,1.4c0.2,0.5,0.2,0.9,0.2,1.4c0,0.4-0.2,0.8-0.4,1.1
		c-0.3,0.3-0.6,0.5-0.9,0.6c-0.3,0.1-0.6,0.2-0.9,0.2c-1.1,0-2.1,0.1-3.1,0.2c-0.3,0-0.7,0.1-1,0c-0.1,0-0.1,0-0.2,0
		c-0.5,0-1.1,0-1.6,0.1c-0.8,0.1-1.3,0.5-1.5,1.3c-0.1,0.7-0.1,1.4-0.1,2.1c0.1,0.5,0.1,1.1,0,1.6c-0.1,0.4-0.1,0.9,0,1.3
		c0.1,0.6,0.3,1.1,0.7,1.4c0.4,0.3,0.9,0.5,1.4,0.6c0.5,0.1,1.1,0,1.6,0c1.1-0.1,2.1,0,3.1,0.3c0.4,0.1,0.7,0.4,0.9,0.8
		c0.4,0.6,0.5,1.3,0.4,2c-0.1,0.7-0.5,1.2-1.2,1.5c-0.3,0.1-0.7,0.2-1.1,0.2c-0.7,0-1.3,0-2,0c-0.8-0.1-1.5-0.1-2.3,0.1
		c-0.9,0.1-1.4,0.7-1.5,1.6c-0.1,0.8-0.1,1.6-0.2,2.4c0,0.2,0,0.4,0,0.5c0.1,0.5,0.1,1,0.1,1.5c0,0.2,0,0.3,0,0.5c0,0.2,0,0.4,0,0.5
		c0.1,0.6,0.4,1.1,1,1.3c0.7,0.2,1.4,0.3,2.1,0.2c1.1-0.1,2.2-0.1,3.3,0.1c0.4,0.1,0.7,0.1,1.1,0.2c0.2,0,0.4,0.1,0.6,0.1
		C259.5,40,259.6,40,259.8,40.1z"/>
	<path class="st0" d="M279.5,33.2c0,0.9,0.1,1.8,0.3,2.7c0.3,1.3,0.1,2.6-0.5,3.9c-0.1,0.1-0.1,0.3-0.2,0.4c0,0.1-0.1,0.1-0.1,0.2
		c-0.3,0.7-0.7,1.2-1.3,1.7c-0.4,0.3-0.7,0.7-1,1c-0.5,0.6-1.1,0.9-1.9,1.1c-1,0.3-2,0.4-3.1,0.3c-1.2,0.1-2.4-0.1-3.6-0.7
		c-1.4-0.5-2.5-1.5-3.1-2.8c0-0.1,0-0.1-0.1-0.1c-0.2-0.3-0.3-0.7-0.5-1c-0.3-0.7-0.5-1.5-0.4-2.3c0-0.7,0.4-1.1,1.2-1.3
		c0.3,0,0.5-0.1,0.8-0.1c0.2,0,0.4-0.1,0.6-0.1c0.8-0.1,1.5,0.2,2,0.9c0.1,0.2,0.3,0.4,0.4,0.7c0.6,1,1.4,1.5,2.5,1.6
		c0.5,0.1,1.1,0,1.6-0.1c0.5-0.1,0.8-0.4,1.2-0.8c0.3-0.4,0.5-0.9,0.6-1.4c0-0.8,0-1.6-0.1-2.4c-0.1-0.6-0.3-1.1-0.8-1.6
		c-0.4-0.4-0.9-0.8-1.3-1.3c-0.4-0.4-0.9-0.7-1.5-0.9c-0.1-0.1-0.3-0.1-0.4-0.1c-0.3-0.1-0.5-0.2-0.8-0.3c-1.3-0.5-2.4-1.2-3.4-2.2
		c-0.2-0.2-0.3-0.4-0.5-0.5c-0.3-0.3-0.7-0.7-0.9-1.1c-0.7-0.9-1-1.9-1.1-3c0-0.8-0.1-1.6-0.3-2.4c-0.1-0.5-0.1-1.1,0.1-1.6
		c0-0.1,0.1-0.2,0.1-0.3c0.3-0.9,0.5-1.8,0.8-2.7c0.2-0.7,0.6-1.3,1.2-1.8c1.8-1.4,3.8-2.1,6.1-1.9c1.4,0.1,2.7,0.5,4,1.2
		c0.3,0.2,0.6,0.4,0.9,0.6c0.6,0.6,1.2,1.2,1.7,1.9c0.6,0.8,1,1.7,1.1,2.7c0.1,0.6-0.2,1.1-0.7,1.5c-0.7,0.5-1.5,0.6-2.3,0.4
		c-0.8-0.1-1.5-0.5-1.9-1.3c-0.3-0.5-0.7-1-1.2-1.4c-0.6-0.6-1.3-0.7-2.1-0.5c0,0-0.1,0-0.1,0c-0.7,0.2-1.3,0.4-1.8,0.9
		c-0.8,0.7-1.1,1.5-0.9,2.6c0,0.1,0,0.1,0,0.2c0.1,0.2,0.1,0.5,0.1,0.7c0.2,1,0.6,1.8,1.4,2.3c1.2,0.9,2.5,1.7,3.9,2.2
		c1,0.4,1.9,1,2.7,1.8c0.5,0.4,1,0.9,1.4,1.5c0.5,0.7,0.8,1.4,1.2,2.2C279.5,32.6,279.5,32.9,279.5,33.2z"/>
	<path class="st0" d="M298.5,33.2c0,0.9,0.1,1.8,0.3,2.7c0.3,1.3,0.1,2.6-0.5,3.9c-0.1,0.1-0.1,0.3-0.2,0.4c0,0.1-0.1,0.1-0.1,0.2
		c-0.3,0.7-0.7,1.2-1.3,1.7c-0.4,0.3-0.7,0.7-1,1c-0.5,0.6-1.1,0.9-1.9,1.1c-1,0.3-2,0.4-3.1,0.3c-1.2,0.1-2.4-0.1-3.6-0.7
		c-1.4-0.5-2.5-1.5-3.1-2.8c0-0.1,0-0.1-0.1-0.1c-0.2-0.3-0.3-0.7-0.5-1c-0.3-0.7-0.5-1.5-0.4-2.3c0-0.7,0.4-1.1,1.2-1.3
		c0.3,0,0.5-0.1,0.8-0.1c0.2,0,0.4-0.1,0.6-0.1c0.8-0.1,1.5,0.2,2,0.9c0.1,0.2,0.3,0.4,0.4,0.7c0.6,1,1.4,1.5,2.5,1.6
		c0.5,0.1,1.1,0,1.6-0.1c0.5-0.1,0.8-0.4,1.2-0.8c0.3-0.4,0.5-0.9,0.6-1.4c0-0.8,0-1.6-0.1-2.4c-0.1-0.6-0.3-1.1-0.8-1.6
		c-0.4-0.4-0.9-0.8-1.3-1.3c-0.4-0.4-0.9-0.7-1.5-0.9c-0.1-0.1-0.3-0.1-0.4-0.1c-0.3-0.1-0.5-0.2-0.8-0.3c-1.3-0.5-2.4-1.2-3.4-2.2
		c-0.2-0.2-0.3-0.4-0.5-0.5c-0.3-0.3-0.7-0.7-0.9-1.1c-0.7-0.9-1-1.9-1.1-3c0-0.8-0.1-1.6-0.3-2.4c-0.1-0.5-0.1-1.1,0.1-1.6
		c0-0.1,0.1-0.2,0.1-0.3c0.3-0.9,0.5-1.8,0.8-2.7c0.2-0.7,0.6-1.3,1.2-1.8c1.8-1.4,3.8-2.1,6.1-1.9c1.4,0.1,2.7,0.5,4,1.2
		c0.3,0.2,0.6,0.4,0.9,0.6c0.6,0.6,1.2,1.2,1.7,1.9c0.6,0.8,1,1.7,1.1,2.7c0.1,0.6-0.2,1.1-0.7,1.5c-0.7,0.5-1.5,0.6-2.3,0.4
		c-0.8-0.1-1.5-0.5-1.9-1.3c-0.3-0.5-0.7-1-1.2-1.4c-0.6-0.6-1.3-0.7-2.1-0.5c0,0-0.1,0-0.1,0c-0.7,0.2-1.3,0.4-1.8,0.9
		c-0.8,0.7-1.1,1.5-0.9,2.6c0,0.1,0,0.1,0,0.2c0.1,0.2,0.1,0.5,0.1,0.7c0.2,1,0.6,1.8,1.4,2.3c1.2,0.9,2.5,1.7,3.9,2.2
		c1,0.4,1.9,1,2.7,1.8c0.5,0.4,1,0.9,1.4,1.5c0.5,0.7,0.8,1.4,1.2,2.2C298.5,32.6,298.6,32.9,298.5,33.2z"/>
</g>
<rect y="-0.1" class="st1" width="298.7" height="57.3"/>
</svg>
