<?xml version="1.0" encoding="utf-8"?>
<!-- Generator: Adobe Illustrator 22.0.1, SVG Export Plug-In . SVG Version: 6.00 Build 0)  -->
<svg version="1.1" id="Layer_1" xmlns="http://www.w3.org/2000/svg" xmlns:xlink="http://www.w3.org/1999/xlink" x="0px" y="0px"
	 viewBox="0 0 304.2 58" style="enable-background:new 0 0 304.2 58;" xml:space="preserve">
<style type="text/css">
	.st0{fill:#FFFFFF;}
	.st1{fill:none;}
</style>
<title>pickup</title>
<g>
	<path class="st0" d="M30.8,19.7h-13v-4.5c0.1-1.8,0-3.6-0.4-5.4c-0.3-0.7-1-1.2-1.8-1.1C15,8.6,14.4,9,14.1,9.6
		c-0.4,1.6-0.5,3.2-0.4,4.8v23.9c-0.1,1.5,0.1,3,0.4,4.4c0.3,0.7,1,1.1,1.7,1.1c0.8,0.1,1.6-0.4,1.9-1.2c0.4-1.5,0.6-3.1,0.5-4.7V32
		h-2.6v-7.6h15.2v26.8h-8.2l-1.2-3.6c-0.8,1.4-1.9,2.6-3.3,3.5c-1.5,0.8-3.1,1.2-4.8,1.2c-2.1,0-4.2-0.5-6.1-1.5
		c-1.8-0.9-3.2-2.3-4.3-3.9c-1-1.5-1.6-3.2-1.8-4.9c-0.3-2.6-0.4-5.1-0.4-7.7V19.3c-0.1-3.5,0.1-7,0.8-10.4c0.7-2.4,2.3-4.5,4.4-5.9
		C8.7,1,12,0.1,15.3,0.2c3.3-0.1,6.6,0.7,9.5,2.3c2.2,1.2,4,3.2,4.9,5.6c0.9,3,1.3,6.2,1.1,9.4L30.8,19.7z"/>
	<path class="st0" d="M63.6,24.6v10c0.1,2.7-0.1,5.4-0.6,8.1c-0.4,1.8-1.2,3.4-2.4,4.8c-1.2,1.5-2.8,2.6-4.7,3.3
		c-2.1,0.7-4.3,1.1-6.5,1.1c-2.4,0.1-4.7-0.3-7-0.9c-1.7-0.5-3.3-1.4-4.5-2.7c-1.1-1.3-1.8-2.8-2.2-4.4c-0.6-2.6-0.8-5.2-0.7-7.9
		V25.5c-0.1-3,0.3-6,1.2-8.9c0.9-2.2,2.4-4,4.4-5.2c2.5-1.4,5.3-2.1,8.2-1.9c2.5,0,4.9,0.4,7.2,1.3c1.8,0.7,3.4,1.8,4.6,3.2
		c1,1.2,1.8,2.6,2.2,4.1C63.5,20.3,63.7,22.5,63.6,24.6z M51.2,21.6c0.1-1.3,0-2.7-0.3-4c-0.2-0.6-0.8-0.9-1.5-0.8
		c-0.6-0.1-1.2,0.3-1.5,0.8c-0.3,1.3-0.5,2.6-0.4,4V40c-0.1,1.3,0,2.5,0.4,3.8c0.2,0.6,0.8,0.9,1.4,0.9c0.6,0.1,1.2-0.2,1.5-0.8
		c0.3-1.1,0.4-2.3,0.3-3.4V21.6z"/>
	<path class="st0" d="M80.9,4.8v6.4h3.3v6.5h-3.3v21.9c0,2.7,0.1,4.2,0.4,4.5c0.3,0.3,1.4,0.5,3.5,0.5v6.6h-5c-2,0.1-4-0.1-6-0.4
		c-1.2-0.2-2.3-0.8-3.2-1.6c-0.9-0.8-1.5-1.8-1.7-2.9c-0.3-2.6-0.5-5.2-0.4-7.7V17.7h-2.7v-6.5h2.7V4.8H80.9z"/>
	<path class="st0" d="M98.5,1.3h13.1c2.7-0.1,5.5,0.2,8.1,0.8c1.6,0.4,3.1,1.2,4.3,2.4c1,1.1,1.6,2.4,1.9,3.8
		c0.4,2.3,0.6,4.6,0.5,6.9v4.3c0.1,2.4-0.2,4.7-1,7c-0.7,1.5-2,2.7-3.6,3.4c-2.2,0.9-4.5,1.3-6.9,1.2h-3.5v20.1h-13V1.3z M111.4,9.8
		v12.7c0.4,0,0.7,0,1,0c0.9,0.1,1.8-0.2,2.5-0.9c0.6-1.1,0.8-2.4,0.7-3.6v-4.1c0-1.7-0.3-2.8-0.8-3.3
		C114.2,10.1,113.1,9.8,111.4,9.8z"/>
	<path class="st0" d="M142.6,1.3v6.5h-12.8V1.3H142.6z M142.6,10.3v40.9h-12.8V10.3H142.6z"/>
	<path class="st0" d="M174.6,25.7h-11.8V21c0.1-1.1-0.1-2.3-0.4-3.3c-0.3-0.6-0.9-0.9-1.5-0.9c-0.6-0.1-1.2,0.2-1.5,0.8
		c-0.3,1.1-0.4,2.3-0.4,3.4v19.3c-0.1,1.1,0.1,2.2,0.6,3.3c0.3,0.6,0.9,1.1,1.6,1.1c0.7,0.1,1.4-0.4,1.7-1.1
		c0.4-1.4,0.5-2.9,0.4-4.3v-4.9h11.1c0,2.5-0.1,4.9-0.4,7.4c-0.3,1.8-1,3.5-2.1,5c-1.1,1.7-2.7,3-4.5,3.9c-5,1.9-10.5,1.7-15.3-0.5
		c-2-1.1-3.5-2.9-4.4-5.1c-1-3-1.4-6.1-1.3-9.2V24.3c-0.1-2.7,0.2-5.3,1.1-7.9c0.9-2,2.5-3.7,4.5-4.7c2.5-1.5,5.4-2.2,8.3-2.1
		c2.9-0.1,5.8,0.7,8.3,2.1c2.1,1.1,3.7,3,4.6,5.2C174.3,19.7,174.7,22.7,174.6,25.7z"/>
	<path class="st0" d="M205.1,10.3l-5,16.3l6.6,24.6h-12l-3.9-17.9v17.9h-12.5V1.3h12.5v20.9l3.9-11.9H205.1z"/>
	<path class="st0" d="M236.9,10.3v40.9h-12.6l0.2-3.4c-0.8,1.3-1.8,2.4-3.2,3.2c-1.3,0.7-2.8,1.1-4.4,1.1c-1.6,0.1-3.2-0.3-4.7-1
		c-1.2-0.6-2.1-1.5-2.7-2.6c-0.6-1.1-0.9-2.2-1.1-3.4c-0.1-1.2-0.2-3.5-0.2-7V10.3h12.4v27.8c-0.1,1.9,0,3.8,0.3,5.7
		c0.2,0.6,0.7,0.9,1.6,0.9c0.9,0,1.5-0.3,1.7-0.9c0.3-2,0.3-4,0.3-5.9V10.3H236.9z"/>
	<path class="st0" d="M254.1,10.3l-0.2,3.6c1-1.3,2.2-2.5,3.7-3.3c1.4-0.7,2.9-1.1,4.4-1.1c1.8,0,3.5,0.5,5,1.6
		c1.3,0.9,2.2,2.1,2.6,3.6c0.4,2.3,0.6,4.6,0.5,6.9v17.2c0.1,2.7-0.1,5.3-0.7,7.9c-0.4,1.5-1.4,2.9-2.7,3.8c-1.5,1-3.2,1.5-5,1.4
		c-1.5,0-3-0.3-4.3-1.1c-1.4-0.8-2.6-1.9-3.6-3.2V57h-12.5V10.3H254.1z M257.6,22.2c0.1-1.5,0-3.1-0.3-4.6c-0.2-0.5-0.7-0.8-1.5-0.8
		c-0.7-0.1-1.3,0.3-1.6,0.9c-0.3,1.5-0.4,3-0.3,4.5v17c-0.1,1.5,0,3.1,0.4,4.6c0.3,0.6,0.9,1,1.6,0.9c0.8,0,1.3-0.3,1.5-0.8
		c0.3-1.4,0.4-2.7,0.3-4.1V22.2z"/>
	<path class="st0" d="M287,17.4h-12.4c-0.1-3.2,0.3-6.5,1.1-9.6c0.9-2.2,2.5-4.1,4.6-5.3c2.7-1.6,5.8-2.4,9-2.3
		c2.3,0,4.7,0.4,6.8,1.2c1.8,0.7,3.4,1.9,4.7,3.4c1.1,1.4,2,3,2.5,4.8c0.6,2.6,0.9,5.3,0.8,8v6.1c0.1,2.3-0.2,4.5-0.8,6.7
		c-0.6,1.8-1.8,3.4-3.4,4.5c-1.8,1.3-3.9,2-6.1,1.9c-2.7,0.1-5.3-1.2-6.7-3.5v5.4h-11.6V25h11.3c0,1.9,0.7,2.8,2,2.8
		c0.9,0.1,1.7-0.5,2-1.3c0.4-2,0.5-4.1,0.4-6.1v-8.3c0.1-1.2-0.1-2.5-0.4-3.7c-0.2-0.6-0.9-1-1.6-0.9c-0.8-0.1-1.6,0.4-1.8,1.3
		c-0.4,1.9-0.5,3.7-0.4,5.6L287,17.4z M287,41.2v10h-11.6v-9.9L287,41.2z"/>
</g>
<rect x="-0.3" y="0" class="st1" width="304.5" height="58"/>
</svg>
