<?xml version="1.0" encoding="utf-8"?>
<!-- Generator: Adobe Illustrator 22.0.1, SVG Export Plug-In . SVG Version: 6.00 Build 0)  -->
<svg version="1.1" id="Layer_1" xmlns="http://www.w3.org/2000/svg" xmlns:xlink="http://www.w3.org/1999/xlink" x="0px" y="0px"
	 viewBox="0 0 307.5 58" style="enable-background:new 0 0 307.5 58;" xml:space="preserve">
<style type="text/css">
	.st0{fill:none;}
	.st1{fill:#FFFFFF;}
</style>
<title>pua</title>
<rect y="0" class="st0" width="307.5" height="58"/>
<path class="st1" d="M19.1,0.5c5.8,0.4,9.4,2.1,10.9,5.1c0.6,1.3,0.9,2.6,0.9,4c-0.2,2.5-1,5-2.3,7.1c-1.5,2.8-4.4,5.3-8.6,7.5
	c-2.9,1.5-6,2.6-9.2,3.4L6.2,43c-1.7-0.5-3.3-1.4-4.4-2.8c-0.5-0.7-0.7-1.6-0.7-2.4c0.1-1.4,0.3-2.8,0.7-4.1
	c0.4-1.3,1.1-3.5,2.1-6.6c0.9-3.1,1.8-6.1,2.6-9.2c0.6-2,1-4.1,1.3-6.2c3.8,0.5,5.7,2.4,5.7,5.6c0,1.2-0.2,2.4-0.6,3.6l-0.1,0.4
	c2.6-1,5-2.5,7-4.4c1.8-1.5,3.2-3.4,4.1-5.6c0.2-0.5,0.3-1.1,0.3-1.6c0-1.1-0.6-2.1-1.5-2.7c-1.4-0.6-2.9-0.9-4.4-0.9
	c-3.1,0.2-6.1,1.2-8.7,2.9c-3.5,2-5.9,5.3-6.7,9.2C1.1,16.4,0.2,14,0,11.5C0.1,9.2,1.2,7,3,5.6c3.8-3.4,8.9-5.1,15.5-5.1H19.1z"/>
<path class="st1" d="M59.8,6.2c-1.7,4.2-3.2,8.4-4.4,12.5c-1.2,4.1-2.2,7.4-2.8,9.9c-0.6,2.5-0.8,5-0.8,7.6c0,2.3,0.3,4.6,1.1,6.8
	h-4.3c-2.6-0.3-4-2-4.1-5.2c-3.6,3.4-6.8,5.1-9.4,5.1c-0.3,0-1.1-0.1-2.6-0.3c-1.5-0.2-2.8-1.5-4-3.9c-0.7-1.4-1-2.8-1-4.4
	c0-1,0.2-2,0.5-3l7.6-24.2c-4.7,1-7.8,4.7-9.4,11.2c-1.7-2-2.6-4.5-2.7-7.1c0.2-2.1,0.9-4.1,1.9-5.9c1.3-2.5,4.8-4.1,10.6-4.8
	c0.3,0,0.6,0,0.9,0c0.7,0,1.4,0,2,0.1c0.6,0.1,1.1,0.5,1.5,1c0.5,0.6,1,1.3,1.3,2c0.3,0.7,0.6,1.4,0.9,2.1c0.1,0.3,0.2,0.7,0.3,1.1
	l0,0l-7.7,24.7c-0.2,1-0.4,2.1-0.4,3.1c0,2,0.7,3.1,2.1,3.1l1.7-0.1c1.1-0.1,3.2-1.6,6.1-4.7c1-5.5,2.4-10.8,4.2-16.1
	c2-6,3.7-11,5.2-15c0.1-0.4,0.3-0.8,0.4-1.2l5,3.5c0.3,0.3,0.5,0.6,0.4,1C60.1,5.5,60,5.9,59.8,6.2z"/>
<path class="st1" d="M55.4,41.7l7.2-13.1c-2.3-0.2-3.5-0.6-3.6-1.3c-0.1-0.5-0.1-1-0.2-1.5c0.1-1.8,0.5-3.6,1-5.3
	c0.7,1.5,2.5,2.6,5.5,3.4L79.1,1.7c0.6-0.8,1.1-1.2,1.6-1.2h1c0.9,0,1.7,0.2,2.4,0.7l4.3,2.8c0.3,0.3,0.5,0.6,0.4,1
	c0,0.3-0.1,0.7-0.2,1c-2.6,6.2-4.7,12.6-6.3,19.1h0.9c0.3,0,0.5,0.2,0.6,0.5c0.1,0.3,0.1,0.6,0.1,0.9V27c0,0.4-0.1,0.8-0.3,1.1
	c-0.2,0.3-0.3,0.5-0.5,0.5h-1.8c-0.6,2.5-0.9,5-0.9,7.6c0,2.3,0.3,4.6,1.1,6.8h-4.2c-2.7-0.3-4.1-2.2-4.2-5.6c0.2-3,0.6-5.9,1.3-8.8
	h-1.7l-1.7,0.1h-1.1l-7.5,13c-0.8,1.5-1.3,3.2-1.5,4.9v0.2l-0.3,0.1c-0.1,0-0.2,0-0.4,0c-0.6,0-1.2-0.1-1.8-0.3
	c-1-0.2-1.8-0.7-2.5-1.3c-0.6-0.6-1-1.3-1-2.2C55.2,42.5,55.3,42.1,55.4,41.7z M80.9,10.8l-0.4-0.2L72.2,25h0.2l0,0
	c0.8,0.1,1.6,0.2,2.5,0.2h0.6c0.6-1.9,1.4-4.2,2.3-7C78.7,15.6,79.8,13.2,80.9,10.8z"/>
<path class="st1" d="M111.8,0.5h0.2c6.7,0,11.3,2.6,13.8,7.9c1.5,3.1,2.3,6.5,2.3,10c-0.2,3.7-0.9,7.3-2,10.9
	c-1.3,4.8-5.2,9.3-11.7,13.5c-2.3,1.7-4.9,2.6-7.7,2.8c-0.5,0-1,0-1.5-0.1c-2.2-0.4-3.3-1.9-3.3-4.4c0-0.6,0.1-1.3,0.2-1.9
	c0.7,0.3,1.5,0.4,2.3,0.4c2.6,0,5.8-1.4,9.5-4.2c3.6-3,6.2-7,7.2-11.6c0.4-1.6,0.5-3.2,0.6-4.8c0-2.6-0.7-5.2-1.8-7.6
	c-1.2-2.7-3.5-4.1-6.9-4.2c-5.5,0.3-9.2,4.1-10.9,11.3c-1.6-2-2.6-4.5-2.7-7.1c0.2-2.1,0.9-4.1,2-5.9C102.6,2.8,106,1.2,111.8,0.5z
	 M106.6,38.6c-1.7-0.5-3.3-1.4-4.4-2.8c-0.5-0.7-0.7-1.6-0.7-2.4c0.1-1.4,0.3-2.8,0.8-4.1c0.3-0.8,0.6-1.9,1.1-3.3
	c0.9-2.6,1.8-5.3,2.7-8.2c0.7-2,1.2-4.1,1.4-6.2c3.7,0.5,5.6,2.4,5.6,5.6c0,1.2-0.2,2.4-0.6,3.6L106.6,38.6z"/>
<path class="st1" d="M148.2,21.2c-3.9,1-7.4,3.3-9.9,6.4c-2.4,2.8-3.9,6.2-4.2,9.9c0,0.5,0.1,0.8,0.3,0.8c0.2,0.1,0.3,0.1,0.5,0.1
	c0.2,0,0.4-0.1,0.6-0.3c3.6-4.6,6.8-9.3,9.8-14.3c1.4,0.5,2.7,1.4,3.7,2.6c0.6,0.7,0.9,1.6,1,2.6c0,0.7-0.2,1.5-0.5,2.2l-4,11.8
	l-1.9-1.1c-0.1-0.1-0.2-0.2-0.3-0.2c-0.6-0.4-1.2-0.8-1.6-1.4c-0.4-0.5-0.6-1.2-0.6-1.8c0-0.2,0-0.4,0-0.5c0.3-1.5,0.8-2.9,1.6-4.2
	l-3.6,6.3c-1.2,1.8-2.3,2.8-3.3,2.9l-1.5,0.1c-1.7,0-3.3-1-4.7-2.9c-0.7-1.5-1.1-3.2-1.1-4.8c0-2.2,0.5-4.3,1.3-6.3
	c1.4-4,4.1-7.5,7.6-9.9c1.6-1,3.4-1.5,5.2-1.5c0.4,0,0.8,0,1.1,0.1C145.8,17.8,147.5,19.3,148.2,21.2z"/>
<path class="st1" d="M172.7,13h0.2c0.4,0,0.8,0.1,1.1,0.4c0.3,0.2,0.4,0.5,0.4,0.8c0,0.3-0.2,0.6-0.5,0.6l-9.1,1.2l-6.4,21l3.2-5.1
	c0.1-0.2,0.3-0.2,0.6-0.2c0.2,0,0.4,0.1,0.5,0.1c0.3,0.1,0.6,0.3,0.8,0.6c0.2,0.2,0.3,0.4,0.3,0.7c0,0.1,0,0.3-0.1,0.4l-4.8,8.3
	c-0.5,0.7-1.3,1.2-2.2,1.2h-0.8c-0.8-0.2-1.6-0.7-2.2-1.3c-0.9-0.6-1.7-1.5-2.2-2.5c-0.3-0.5-0.4-1.1-0.4-1.8
	c0.1-1.9,0.6-3.7,1.3-5.4c0.2-0.8,0.8-2.6,1.7-5.4c0.9-2.8,1.8-6,2.9-9.4l-1.4,0.2c-0.8,0.1-1.7,0.2-2.5,0.2c-2.5,0-3.8-0.8-3.8-2.3
	c0-0.7,0.2-1.5,0.6-2.1c2.5,0.4,5.1,0.6,7.6,0.5h0.5c0.8-2.7,1.5-5,2-6.9c0.4-1.2,0.6-2.4,0.8-3.6c3.8,0.6,5.7,2.5,5.7,5.8
	c0,1.3-0.2,2.5-0.6,3.7l-0.3,0.9C167.9,13.2,170.2,13.2,172.7,13z"/>
<path class="st1" d="M166.2,33.4l2-6c1.2-3,1.9-6.1,2.1-9.4v-0.5c1.8,0.2,3.5,1,4.8,2.3c0.8,0.8,1.2,1.9,1.3,3.1
	c0,1.1-0.3,2.2-0.7,3.3l-5.1,16.8c-1.6-0.4-3-1.2-4.1-2.4c-0.7-0.8-1-1.9-1-2.9C165.5,36.2,165.7,34.8,166.2,33.4z M179.5,9.5
	c0.5,0.5,0.8,1.1,0.8,1.8c0,0.8-0.3,1.5-0.7,2.2c-0.8,1.1-1.9,2.1-3,3c-0.5,0.3-1.1,0.5-1.7,0.5c-1.1,0-1.9-0.8-2.5-2.4
	c-0.2-0.7-0.3-1.4-0.3-2.2c0-0.8,0.1-1.5,0.4-2.2c0.3-1.2,1.4-2.1,2.6-2.2h0.2C176.8,7.9,178.3,8.5,179.5,9.5L179.5,9.5z"/>
<path class="st1" d="M181.5,43c-1.8-0.3-3.4-1.1-4.6-2.3c-0.9-1-1.4-2.2-1.4-3.6c0-0.9,0.2-1.9,0.4-2.8l5.3-16.8
	c1.7,0.4,3.2,1.2,4.4,2.4c0.7,0.8,1.1,1.7,1.1,2.7c-0.1,1.5-0.4,3-1,4.4l4.8-8.3c0.6-0.8,1.5-1.3,2.4-1.3c0.4,0,0.9,0.1,1.3,0.3
	c1.6,0.7,3,1.7,4,3.1c0.4,0.7,0.6,1.4,0.5,2.2c0,0.8-0.1,1.6-0.3,2.4c-0.6,2.3-1.3,4.5-2.1,6.8c-0.7,2-1.4,3.9-1.9,5.6
	c-0.4,1.4-0.7,2.9-0.7,4.3c0,0.2,0,0.4,0,0.6c-2.5-0.5-4.2-1.3-5.1-2.4c-0.8-0.9-1.3-2.1-1.3-3.3c0-1.2,0.3-2.5,0.8-3.6l4.1-11.8
	l-8.6,13.7c-0.2,0.9-0.4,1.8-0.7,2.7c-0.3,0.9-0.5,1.8-0.8,2.6C181.8,41.5,181.6,42.2,181.5,43z"/>
<path class="st1" d="M199.6,53.6h0.7c2.7,0,5.3-1,7.2-3c2.2-2.2,3.9-4.9,5.1-7.8c1.1-2.6,2-5.3,2.6-8.1c0.4-1.6,0.6-3.2,0.7-4.8
	c0-0.1,0-0.3,0-0.4l-1.4,2.8c-1.2,2.7-2.7,5.3-4.4,7.6c-1.5,1.8-2.8,2.7-3.7,2.8l-1.6,0.1c-1.8,0-3.4-1-4.8-2.9c-0.7-1.4-1-3-1-4.6
	c0.1-2.3,0.6-4.6,1.5-6.7c1.5-4.1,4.3-7.6,7.9-10c1.3-0.8,2.7-1.2,4.2-1.2c0.8,0,1.5,0.1,2.2,0.4c2.1,0.7,3.6,2.3,4.4,5
	c-0.8-0.3-1.7-0.4-2.6-0.4c-2.7,0.1-5.2,1.4-6.9,3.4c-3,3.2-4.8,7.2-5.1,11.6c0,0.5,0.1,0.9,0.3,1.3c0.1,0.2,0.3,0.3,0.6,0.4h0.1
	c0.2,0,0.5-0.1,0.6-0.3c2.1-2.4,3.7-5.2,4.7-8.2c0.7-1.6,1.4-3.2,2.3-4.7c0.5-1.1,1.5-1.8,2.6-1.9l0,0c2.1-0.2,4,1.3,4.3,3.4
	c0.4,1.6,0.7,3.2,0.7,4.8c0,3.6-1.1,8.5-3.3,14.8c-2.1,5.3-4.2,8.5-6.3,9.3c-1.4,0.7-3,1.2-4.6,1.3C204.4,57.6,202,56.3,199.6,53.6z
	"/>
<path class="st1" d="M265.4,0.8c1-0.2,2-0.3,3-0.3c1.5,0,3,0.4,4.3,1.2c1.2,0.8,2,2.2,2.2,3.6c0.1,0.4,0.1,0.8,0.1,1.2
	c0,1.2-0.2,2.3-0.7,3.4c-2.2-1.2-4.6-1.9-7.1-1.9c-0.9,0-1.9-0.1-3-0.1c-2.3,0-4.8,0.1-7.5,0.4c0.5,0.9,0.8,1.8,0.7,2.9
	c0,1.3-0.3,2.6-0.7,3.8l-8.5,27.9c-1.8-0.5-3.4-1.5-4.6-2.9c-0.5-0.7-0.7-1.6-0.7-2.5c0-1.4,0.3-2.8,0.8-4.2c0.4-1.1,1-3.1,1.9-6
	c0.9-2.9,1.9-6.1,2.9-9.5c1-3.4,1.8-6.3,2.4-8.8c-1.2,0.2-2.5,0.3-3.8,0.5c-1,0.2-2.1,0.4-3.1,0.4c-1.6,0.1-3.1-0.4-4.4-1.3
	c-0.9-0.7-1.5-1.8-1.4-3c0.1-1.2,0.4-2.4,1-3.4c0.4,1.4,1.7,2.1,3.9,2.2h1.3c2.4-0.1,4.8-0.3,7.2-0.7c2.9-0.5,5.9-1.2,9.3-1.9
	L265.4,0.8z"/>
<path class="st1" d="M255,33.4l2-6c1.2-3,1.9-6.1,2.1-9.4v-0.5c1.8,0.2,3.5,1,4.8,2.3c0.8,0.9,1.2,2,1.3,3.1c0,1.1-0.3,2.2-0.7,3.3
	l-5.1,16.8c-1.6-0.4-3-1.2-4.1-2.4c-0.7-0.8-1-1.9-1-2.9C254.3,36.2,254.5,34.8,255,33.4z M268.3,9.5c0.5,0.5,0.8,1.1,0.8,1.8
	c0,0.8-0.3,1.5-0.7,2.2c-0.8,1.1-1.9,2.1-3,3c-0.5,0.3-1.1,0.5-1.7,0.5c-1.1,0-1.9-0.8-2.5-2.4c-0.2-0.7-0.3-1.4-0.3-2.2
	c0-0.8,0.1-1.5,0.4-2.2c0.3-1.2,1.3-2.2,2.6-2.3h0.2C265.6,7.9,267.1,8.5,268.3,9.5L268.3,9.5z"/>
<path class="st1" d="M286.5,20.4c0.8,1.7,1.2,3.6,1.2,5.5c-0.1,2.5-0.6,5-1.5,7.3c-1.2,3.4-3.4,6.2-6.5,8.1
	c-1.3,0.9-2.8,1.5-4.4,1.6c-2,0-3.5-1.3-4.6-3.8c3.6-0.9,6.6-3.2,8.5-6.4c1.7-3,2.7-6.4,2.8-9.9c0-0.5-0.2-0.8-0.5-0.9
	c-0.1,0-0.2-0.1-0.3-0.1c-0.2,0-0.5,0.1-0.6,0.3c-3.2,4.2-6.2,8.5-8.9,13c-1.4,4.6-2.8,9.2-4.1,13.8c-0.9,2.9-1.6,5.9-2.1,8.9
	c-3.8-0.6-5.7-2.5-5.7-5.8c0-1.3,0.2-2.5,0.6-3.7l9.3-31c1.5,0.5,3,1.2,4.2,2.2c0.8,0.8,1.3,1.9,1.2,3c0,0.4,0,0.8-0.1,1.2l1.9-3.4
	c1-1.7,2.7-2.8,4.6-2.9h0.2C283.5,17.4,285.1,18.4,286.5,20.4z"/>
<path class="st1" d="M287.3,36.3c-0.1-1.1,0.4-2.1,1.3-2.7c0.7-0.5,1.6-0.8,2.4-0.8c0.4,0,0.8,0.1,1.2,0.2c0,0.4-0.1,0.9-0.1,1.2
	c0,1.1,0.2,2.2,0.6,3.2c0.3,0.9,1.2,1.5,2.2,1.4c0.2,0,0.5,0,0.7-0.1c0.5-0.3,1-0.7,1.2-1.3c0.3-0.6,0.4-1.2,0.4-1.9
	c-0.1-0.7-1.3-2.7-3.8-5.7l-1.4-1.9c-0.8-1.1-1.2-2.4-1.2-3.8c0-0.5,0.1-1.1,0.2-1.6c0.3-1.7,1.3-3.2,2.8-4c1.3-0.8,2.8-1.2,4.3-1.2
	c1.6,0,3.1,0.3,4.7,0.7c2.2,0.7,3.8,2.7,4.1,5c0.1,1.1-0.4,2.2-1.3,2.8c-0.8,0.6-1.7,0.9-2.7,0.9c-0.2,0-0.4,0-0.7-0.1
	c0-0.2,0-0.4,0-0.6c0-1.5-0.4-2.9-1.3-4.1c-0.4-0.8-1.2-1.2-2.1-1.3c-0.5,0-0.9,0.1-1.3,0.4c-0.5,0.5-0.9,1.2-0.9,1.9
	c0,0.2,0,0.4,0.1,0.6c0.3,0.8,0.7,1.5,1.2,2.1c0.2,0.2,0.3,0.4,0.5,0.6c0.7,0.8,1.3,1.6,2.1,2.4c0.9,1,1.7,2,2.3,3.1
	c0.7,1.3,1,2.7,1,4.1c0,0.7-0.1,1.3-0.3,2c-0.5,2-2,3.5-3.9,4.2c-0.8,0.4-1.8,0.6-2.7,0.6l-1.9,0.1c-1.7,0-3.4-0.4-4.9-1.2
	C288.6,40.8,287.6,39,287.3,36.3z"/>
</svg>
