<svg xmlns="http://www.w3.org/2000/svg" viewBox="0 0 311.72 56.66"><defs><style>.cls-1{fill:#fff;}</style></defs><title>billboard</title><g id="Layer_2" data-name="Layer 2"><g id="Layer_1-2" data-name="Layer 1"><polygon points="281.24 17.23 267.31 17.23 267.31 3.29 0 3.29 0 45.84 295.17 45.84 295.17 32.28 281.24 32.28 281.24 17.23"/><path class="cls-1" d="M1.11,50.38H2.82V55h3v1.49H1.11Z"/><path class="cls-1" d="M8.82,50.38h4.94v1.45H10.5v.93h2.95v1.35H10.5v1h3.3v1.45h-5Z"/><path class="cls-1" d="M19.1,50.33h1.65l2.62,6.2H21.54l-.45-1.1H18.71l-.44,1.1H16.48Zm1.5,3.79-.69-1.76-.7,1.76Z"/><path class="cls-1" d="M26.25,50.38h2.91a3.83,3.83,0,0,1,1.21.17,2,2,0,0,1,.8.5,1.91,1.91,0,0,1,.54,1.43v0a2,2,0,0,1-.34,1.18,2.2,2.2,0,0,1-.92.71l1.47,2.14H30l-1.24-1.86H28v1.86H26.25Zm2.83,2.95a1,1,0,0,0,.68-.2A.64.64,0,0,0,30,52.6v0a.61.61,0,0,0-.25-.54,1,1,0,0,0-.67-.19H28v1.48Z"/><path class="cls-1" d="M34.86,50.38h1.6L39,53.63V50.38h1.68v6.15h-1.5l-2.64-3.37v3.37H34.86Z"/><path class="cls-1" d="M48.37,50.38h1.8l1.07,3.56,1.19-3.58H53.9l1.19,3.58,1.07-3.56h1.77l-2.06,6.2H54.38L53.14,53l-1.23,3.55H50.43Z"/><path class="cls-1" d="M60.89,50.38H62.6v2.3h2.19v-2.3H66.5v6.15H64.79V54.19H62.6v2.34H60.89Z"/><path class="cls-1" d="M72,50.33h1.64l2.62,6.2H74.44L74,55.43H71.62l-.44,1.1h-1.8Zm1.49,3.79-.69-1.76-.69,1.76Z"/><path class="cls-1" d="M80.66,51.87H78.81V50.38h5.41v1.49H82.37v4.66H80.66Z"/><path class="cls-1" d="M93.48,51.87H91.63V50.38H97v1.49H95.19v4.66H93.48Z"/><path class="cls-1" d="M100.07,50.38h1.7v2.3H104v-2.3h1.71v6.15H104V54.19h-2.19v2.34h-1.7Z"/><path class="cls-1" d="M109.05,50.38H114v1.45h-3.26v.93h3v1.35h-3v1H114v1.45h-5Z"/><path class="cls-1" d="M124.35,56.64a4.79,4.79,0,0,1-1.57-.26,3.65,3.65,0,0,1-1.32-.77l1-1.13a3.15,3.15,0,0,0,2,.73,1,1,0,0,0,.52-.1.36.36,0,0,0,.18-.32h0a.34.34,0,0,0,0-.18.46.46,0,0,0-.16-.14,2,2,0,0,0-.32-.14,4.33,4.33,0,0,0-.52-.13c-.32-.08-.63-.16-.91-.25a2.75,2.75,0,0,1-.73-.35,1.71,1.71,0,0,1-.5-.54,1.59,1.59,0,0,1-.18-.79v0a1.86,1.86,0,0,1,.17-.79,1.68,1.68,0,0,1,.47-.63,2.24,2.24,0,0,1,.75-.4,3.13,3.13,0,0,1,1-.15,4.44,4.44,0,0,1,1.41.21,3.59,3.59,0,0,1,1.12.61l-.85,1.21a3.28,3.28,0,0,0-.87-.45,2.69,2.69,0,0,0-.86-.15.75.75,0,0,0-.46.11.35.35,0,0,0-.15.28v0a.27.27,0,0,0,0,.18.39.39,0,0,0,.16.15,1.88,1.88,0,0,0,.33.13l.52.14a7.38,7.38,0,0,1,1,.26,3,3,0,0,1,.72.38,1.46,1.46,0,0,1,.46.53,1.68,1.68,0,0,1,.16.74v0a1.89,1.89,0,0,1-.18.84,1.73,1.73,0,0,1-.51.63,2.38,2.38,0,0,1-.78.39A3.64,3.64,0,0,1,124.35,56.64Z"/><path class="cls-1" d="M132.92,56.66a3.19,3.19,0,0,1-1.24-.24,3.05,3.05,0,0,1-1-.66,3.25,3.25,0,0,1-.68-1,3.13,3.13,0,0,1-.25-1.27h0A3.12,3.12,0,0,1,130,52.2a3.23,3.23,0,0,1,.67-1,3,3,0,0,1,1-.68,3.42,3.42,0,0,1,1.3-.25,3.33,3.33,0,0,1,.86.1,3.15,3.15,0,0,1,.71.26,2.9,2.9,0,0,1,.58.41,3.8,3.8,0,0,1,.46.52l-1.29,1a2.07,2.07,0,0,0-.58-.53,1.5,1.5,0,0,0-.76-.19,1.32,1.32,0,0,0-.6.13,1.41,1.41,0,0,0-.46.35,1.53,1.53,0,0,0-.3.51,2,2,0,0,0-.11.64v0a2,2,0,0,0,.11.64,1.62,1.62,0,0,0,.3.53,1.53,1.53,0,0,0,.46.34,1.32,1.32,0,0,0,.6.13,1.88,1.88,0,0,0,.43-.05,1.19,1.19,0,0,0,.36-.16,1.39,1.39,0,0,0,.31-.23c.1-.09.19-.2.29-.31l1.28.92a3.57,3.57,0,0,1-.48.55,2.59,2.59,0,0,1-.59.44,2.78,2.78,0,0,1-.73.29A3.74,3.74,0,0,1,132.92,56.66Z"/><path class="cls-1" d="M138.66,50.38h1.71v2.3h2.19v-2.3h1.7v6.15h-1.7V54.19h-2.19v2.34h-1.71Z"/><path class="cls-1" d="M150.74,56.66a3.53,3.53,0,0,1-1.32-.25,3.46,3.46,0,0,1-1-.68,3.28,3.28,0,0,1-.69-1,3,3,0,0,1-.25-1.24h0a3.1,3.1,0,0,1,.25-1.25,3.15,3.15,0,0,1,.7-1,3.35,3.35,0,0,1,1.06-.69,3.53,3.53,0,0,1,1.32-.25,3.6,3.6,0,0,1,1.32.25,3.26,3.26,0,0,1,1,.69,2.84,2.84,0,0,1,.69,1,3,3,0,0,1,.25,1.24v0a3.05,3.05,0,0,1-.25,1.24,3,3,0,0,1-.7,1,3.42,3.42,0,0,1-1.05.69A3.6,3.6,0,0,1,150.74,56.66Zm0-1.54a1.71,1.71,0,0,0,.65-.13,1.6,1.6,0,0,0,.49-.36,1.82,1.82,0,0,0,.32-.52,1.91,1.91,0,0,0,.11-.64h0a1.91,1.91,0,0,0-.11-.64,1.82,1.82,0,0,0-.33-.53,1.64,1.64,0,0,0-.5-.36,1.56,1.56,0,0,0-1.29,0,1.42,1.42,0,0,0-.49.35,1.74,1.74,0,0,0-.32.52,2,2,0,0,0-.11.64v0a1.68,1.68,0,0,0,.12.63,1.6,1.6,0,0,0,.32.53,1.53,1.53,0,0,0,.5.36A1.5,1.5,0,0,0,150.75,55.12Z"/><path class="cls-1" d="M160.34,56.66a3.53,3.53,0,0,1-1.32-.25,3.34,3.34,0,0,1-1.05-.68,3.28,3.28,0,0,1-.69-1,3,3,0,0,1-.25-1.24h0a3.1,3.1,0,0,1,.25-1.25,3.15,3.15,0,0,1,.7-1A3.42,3.42,0,0,1,159,50.5a3.6,3.6,0,0,1,1.32-.25,3.53,3.53,0,0,1,1.32.25,3.2,3.2,0,0,1,1.05.69,3.12,3.12,0,0,1,.69,1,3,3,0,0,1,.25,1.24v0a3.05,3.05,0,0,1-.25,1.24,3.15,3.15,0,0,1-.7,1,3.42,3.42,0,0,1-1.05.69A3.6,3.6,0,0,1,160.34,56.66Zm0-1.54A1.66,1.66,0,0,0,161,55a1.53,1.53,0,0,0,.5-.36,1.82,1.82,0,0,0,.32-.52,1.91,1.91,0,0,0,.11-.64h0a1.91,1.91,0,0,0-.11-.64,1.82,1.82,0,0,0-.33-.53,1.64,1.64,0,0,0-.5-.36,1.55,1.55,0,0,0-.65-.14,1.5,1.5,0,0,0-.64.14,1.42,1.42,0,0,0-.49.35,1.56,1.56,0,0,0-.32.52,2,2,0,0,0-.11.64v0a1.9,1.9,0,0,0,.11.63,1.82,1.82,0,0,0,.33.53,1.53,1.53,0,0,0,.5.36A1.47,1.47,0,0,0,160.35,55.12Z"/><path class="cls-1" d="M166.84,50.38h1.7V55h3v1.49h-4.69Z"/><path class="cls-1" d="M177,56.64a4.83,4.83,0,0,1-1.57-.26,3.69,3.69,0,0,1-1.31-.77l.95-1.13a3.12,3.12,0,0,0,2,.73,1.09,1.09,0,0,0,.53-.1.36.36,0,0,0,.18-.32h0a.35.35,0,0,0,0-.18.46.46,0,0,0-.16-.14,1.67,1.67,0,0,0-.32-.14,4.62,4.62,0,0,0-.51-.13c-.33-.08-.63-.16-.91-.25a2.82,2.82,0,0,1-.74-.35,1.68,1.68,0,0,1-.49-.54,1.59,1.59,0,0,1-.18-.79v0a1.86,1.86,0,0,1,.16-.79,1.83,1.83,0,0,1,.48-.63,2.07,2.07,0,0,1,.75-.4,3,3,0,0,1,1-.15,4.36,4.36,0,0,1,1.41.21,3.64,3.64,0,0,1,1.13.61l-.86,1.21a3.38,3.38,0,0,0-.86-.45,2.73,2.73,0,0,0-.86-.15.73.73,0,0,0-.46.11.33.33,0,0,0-.16.28v0a.35.35,0,0,0,0,.18.43.43,0,0,0,.17.15,1.74,1.74,0,0,0,.32.13l.53.14a6.81,6.81,0,0,1,1,.26,2.94,2.94,0,0,1,.73.38,1.35,1.35,0,0,1,.45.53,1.55,1.55,0,0,1,.16.74v0a1.89,1.89,0,0,1-.18.84,1.82,1.82,0,0,1-.5.63,2.34,2.34,0,0,1-.79.39A3.54,3.54,0,0,1,177,56.64Z"/><path class="cls-1" d="M186.88,50.38h1.8l1.07,3.56,1.19-3.58h1.47l1.19,3.58,1.07-3.56h1.77l-2.06,6.2h-1.49L191.65,53l-1.23,3.55h-1.48Z"/><path class="cls-1" d="M202.5,56.66a3.37,3.37,0,0,1-2.37-.93,3.28,3.28,0,0,1-.69-1,3.19,3.19,0,0,1-.25-1.24h0a3.28,3.28,0,0,1,.25-1.25,3.15,3.15,0,0,1,.7-1,3.35,3.35,0,0,1,1.06-.69,3.53,3.53,0,0,1,1.32-.25,3.6,3.6,0,0,1,1.32.25,3.26,3.26,0,0,1,1,.69,2.84,2.84,0,0,1,.69,1,3,3,0,0,1,.26,1.24v0a3.06,3.06,0,0,1-.26,1.24,3.12,3.12,0,0,1-.69,1,3.47,3.47,0,0,1-1.06.69A3.53,3.53,0,0,1,202.5,56.66Zm0-1.54a1.71,1.71,0,0,0,.65-.13,1.48,1.48,0,0,0,.49-.36,1.62,1.62,0,0,0,.32-.52,1.69,1.69,0,0,0,.11-.64h0a1.69,1.69,0,0,0-.11-.64,1.82,1.82,0,0,0-.33-.53,1.64,1.64,0,0,0-.5-.36,1.5,1.5,0,0,0-.64-.14,1.47,1.47,0,0,0-.64.14,1.37,1.37,0,0,0-.5.35,1.74,1.74,0,0,0-.32.52,2,2,0,0,0-.11.64v0a1.68,1.68,0,0,0,.12.63,1.79,1.79,0,0,0,.32.53,1.64,1.64,0,0,0,.5.36A1.5,1.5,0,0,0,202.51,55.12Z"/><path class="cls-1" d="M209,50.38h1.6l2.54,3.25V50.38h1.68v6.15h-1.5l-2.64-3.37v3.37H209Z"/><path class="cls-1" d="M217.86,52.92a1.12,1.12,0,0,0,.67-.26.7.7,0,0,0,.21-.57h-.68V50.38h1.74v1.4a2.45,2.45,0,0,1-.12.82,1.35,1.35,0,0,1-.36.54,1.57,1.57,0,0,1-.57.31,2.47,2.47,0,0,1-.75.11Z"/><path class="cls-1" d="M224.48,51.87h-1.84V50.38H228v1.49h-1.85v4.66h-1.71Z"/><path class="cls-1" d="M237.3,51.87h-1.85V50.38h5.41v1.49H239v4.66H237.3Z"/><path class="cls-1" d="M243.89,50.38h4.94v1.45h-3.26v.93h3v1.35h-3v1h3.31v1.45h-5Z"/><path class="cls-1" d="M254.17,50.33h1.65l2.62,6.2h-1.83l-.45-1.1h-2.37l-.44,1.1h-1.8Zm1.5,3.79L255,52.36l-.69,1.76Z"/><path class="cls-1" d="M264.29,56.66a3.22,3.22,0,0,1-1.24-.24,3.16,3.16,0,0,1-1-.66,3.23,3.23,0,0,1-.67-1,3.13,3.13,0,0,1-.26-1.27h0a3.29,3.29,0,0,1,.25-1.26,3.25,3.25,0,0,1,.68-1,3.09,3.09,0,0,1,1-.68,3.46,3.46,0,0,1,1.3-.25,3.28,3.28,0,0,1,.86.1,3,3,0,0,1,.71.26,2.43,2.43,0,0,1,.58.41,3.23,3.23,0,0,1,.46.52l-1.28,1a2.39,2.39,0,0,0-.58-.53,1.54,1.54,0,0,0-.77-.19,1.37,1.37,0,0,0-1,.48,1.74,1.74,0,0,0-.31.51,2,2,0,0,0-.11.64v0a2,2,0,0,0,.11.64,1.85,1.85,0,0,0,.31.53,1.41,1.41,0,0,0,.46.34,1.31,1.31,0,0,0,.59.13,2,2,0,0,0,.44-.05,1.46,1.46,0,0,0,.36-.16,1.66,1.66,0,0,0,.31-.23c.09-.09.19-.2.28-.31l1.29.92a5.11,5.11,0,0,1-.48.55,2.59,2.59,0,0,1-.59.44,2.85,2.85,0,0,1-.74.29A3.68,3.68,0,0,1,264.29,56.66Z"/><path class="cls-1" d="M270,50.38h1.7v2.3h2.19v-2.3h1.71v6.15h-1.71V54.19h-2.19v2.34H270Z"/><path class="cls-1" d="M285.52,54.23l-2.34-3.85h1.94l1.27,2.24,1.27-2.24h1.91l-2.34,3.82v2.33h-1.71Z"/><path class="cls-1" d="M295.49,56.66a3.53,3.53,0,0,1-1.32-.25,3.34,3.34,0,0,1-1.05-.68,3.28,3.28,0,0,1-.69-1,3,3,0,0,1-.25-1.24h0a3.1,3.1,0,0,1,.25-1.25,3.15,3.15,0,0,1,.7-1,3.42,3.42,0,0,1,1.05-.69,3.6,3.6,0,0,1,1.32-.25,3.53,3.53,0,0,1,1.32.25,3.2,3.2,0,0,1,1.05.69,3.12,3.12,0,0,1,.69,1,3,3,0,0,1,.25,1.24v0a3.05,3.05,0,0,1-.25,1.24,3.15,3.15,0,0,1-.7,1,3.42,3.42,0,0,1-1.05.69A3.6,3.6,0,0,1,295.49,56.66Zm0-1.54a1.66,1.66,0,0,0,.64-.13,1.53,1.53,0,0,0,.5-.36,1.6,1.6,0,0,0,.31-.52,1.69,1.69,0,0,0,.12-.64h0a1.69,1.69,0,0,0-.12-.64,1.6,1.6,0,0,0-.32-.53,1.64,1.64,0,0,0-.5-.36,1.55,1.55,0,0,0-.65-.14,1.5,1.5,0,0,0-.64.14,1.42,1.42,0,0,0-.49.35,1.56,1.56,0,0,0-.32.52,2,2,0,0,0-.11.64v0a1.9,1.9,0,0,0,.11.63,1.82,1.82,0,0,0,.33.53,1.48,1.48,0,0,0,.49.36A1.55,1.55,0,0,0,295.5,55.12Z"/><path class="cls-1" d="M304.76,56.65a4,4,0,0,1-1.19-.17,2.35,2.35,0,0,1-.9-.51,2.48,2.48,0,0,1-.57-.88,3.71,3.71,0,0,1-.19-1.26V50.38h1.74V53.8a1.43,1.43,0,0,0,.3,1,1.11,1.11,0,0,0,.82.32,1.07,1.07,0,0,0,.82-.31,1.27,1.27,0,0,0,.31-1V50.38h1.74v3.41a3.8,3.8,0,0,1-.2,1.29,2.35,2.35,0,0,1-.59.89,2.28,2.28,0,0,1-.9.51A4,4,0,0,1,304.76,56.65Z"/><path class="cls-1" d="M5,8.15h5.15V22.2h9v4.51H5Z"/><path class="cls-1" d="M21.4,8.15h5.17V26.71H21.4Z"/><path class="cls-1" d="M30,8.15H44.81v4.51h-9.7v3.12h8.77v4.3H35.11v6.63H30Z"/><path class="cls-1" d="M47.14,8.15H62v4.37H52.21v2.81h8.91v4.06H52.21v2.94h10v4.38h-15Z"/><path class="cls-1" d="M72.17,8.15h5.44L82,15.33l4.43-7.18H91.9V26.71H86.78V16.05l-4.73,7.26h-.11L77.23,16.1V26.71H72.17Z"/><path class="cls-1" d="M101.6,8h5l7.9,18.69h-5.52l-1.35-3.32h-7.16l-1.32,3.32H93.7Zm4.51,11.4L104,14.14l-2.1,5.28Z"/><path class="cls-1" d="M120.79,12.66h-5.56V8.15h16.28v4.51h-5.57V26.71h-5.15Z"/><path class="cls-1" d="M134.73,8.15h5.14v6.94h6.6V8.15h5.15V26.71h-5.15V19.65h-6.6v7.06h-5.14Z"/><path class="cls-1" d="M162.25,8.15h5.43l4.43,7.18,4.43-7.18H182V26.71h-5.11V16.05l-4.74,7.26H172l-4.71-7.21V26.71h-5.06Z"/><path class="cls-1" d="M194.59,27.08a10.18,10.18,0,0,1-4-.76,9.8,9.8,0,0,1-3.16-2.05,9.5,9.5,0,0,1-2.08-3.05,9.4,9.4,0,0,1-.76-3.74v-.05a9.5,9.5,0,0,1,2.87-6.83,10.16,10.16,0,0,1,3.18-2.07,10.91,10.91,0,0,1,8,0,9.93,9.93,0,0,1,3.16,2.06,9.43,9.43,0,0,1,2.83,6.78v.06a9.51,9.51,0,0,1-.75,3.75,9.35,9.35,0,0,1-2.11,3.07,9.82,9.82,0,0,1-3.18,2.07A10.23,10.23,0,0,1,194.59,27.08Zm0-4.64a4.55,4.55,0,0,0,1.94-.4A4.37,4.37,0,0,0,198.06,21a5,5,0,0,0,1-1.58,5.31,5.31,0,0,0,.35-1.91v-.05a5.31,5.31,0,0,0-.35-1.91,5,5,0,0,0-1-1.59,4.78,4.78,0,0,0-1.52-1.1,4.41,4.41,0,0,0-1.94-.41,4.65,4.65,0,0,0-1.93.39,4.87,4.87,0,0,0-1.49,1.08,4.76,4.76,0,0,0-.95,1.58,5.25,5.25,0,0,0-.34,1.9v.06a5.31,5.31,0,0,0,.35,1.91,5,5,0,0,0,1,1.59,4.85,4.85,0,0,0,1.5,1.1A4.59,4.59,0,0,0,194.63,22.44Z"/><path class="cls-1" d="M207.29,8.15h4.81L219.75,18V8.15h5.07V26.71H220.3l-7.94-10.18V26.71h-5.07Z"/><path class="cls-1" d="M228.1,8.15H243v4.37h-9.83v2.81h8.91v4.06h-8.91v2.94h10v4.38h-15Z"/><path class="cls-1" d="M251.14,19.76l-7-11.61H250l3.82,6.76,3.84-6.76h5.76l-7.06,11.53v7h-5.17Z"/><path class="cls-1" d="M9.15,40.66A5.91,5.91,0,0,1,7,40.27a5.12,5.12,0,0,1-1.69-1.09,4.91,4.91,0,0,1-1.1-1.67,5.53,5.53,0,0,1-.39-2.1v0A5.23,5.23,0,0,1,5.3,31.66,5,5,0,0,1,7,30.52a5.34,5.34,0,0,1,2.14-.42,6.88,6.88,0,0,1,1.25.1,5.46,5.46,0,0,1,1,.27,5,5,0,0,1,.91.43,7.7,7.7,0,0,1,.81.6l-1.41,1.71a5.63,5.63,0,0,0-.59-.44,4.3,4.3,0,0,0-.6-.32,3,3,0,0,0-.68-.2,3.94,3.94,0,0,0-.8-.08,2.65,2.65,0,0,0-1.15.26,3.13,3.13,0,0,0-.93.69,3,3,0,0,0-.63,1,3.32,3.32,0,0,0-.23,1.23v0a3.57,3.57,0,0,0,.23,1.29,3.24,3.24,0,0,0,.64,1,3.19,3.19,0,0,0,1,.68,3.13,3.13,0,0,0,1.25.24A3.54,3.54,0,0,0,11.34,38V36.55H9.08V34.61h4.44v4.44a7.84,7.84,0,0,1-1.88,1.14A6.08,6.08,0,0,1,9.15,40.66Z"/><path class="cls-1" d="M15.68,30.28h7.69v2H17.89v2.07h4.82v2H17.89v2.14h5.55v2H15.68Z"/><path class="cls-1" d="M27.83,32.35H24.72V30.28h8.47v2.07H30.08v8.14H27.83Z"/><path class="cls-1" d="M39.28,30.28H44a4,4,0,0,1,3,1,3.18,3.18,0,0,1,.87,2.34v0a3.23,3.23,0,0,1-.6,2,3.46,3.46,0,0,1-1.58,1.14l2.49,3.65H45.49L43.3,37.22H41.53v3.27H39.28Zm4.53,5a1.81,1.81,0,0,0,1.27-.4,1.32,1.32,0,0,0,.45-1.05v0a1.3,1.3,0,0,0-.47-1.09,2.07,2.07,0,0,0-1.3-.37H41.53v2.94Z"/><path class="cls-1" d="M49.94,30.28h2.24V40.49H49.94Z"/><path class="cls-1" d="M59.52,40.66a5.14,5.14,0,0,1-3.75-1.52,5,5,0,0,1-1.09-1.67,5.25,5.25,0,0,1-.4-2.06v0a5.33,5.33,0,0,1,1.49-3.72,4.91,4.91,0,0,1,1.68-1.14,5.4,5.4,0,0,1,2.16-.42,6.53,6.53,0,0,1,1.3.12,5.28,5.28,0,0,1,1.08.32,4.84,4.84,0,0,1,.89.5,5.73,5.73,0,0,1,.76.64l-1.43,1.65A5.4,5.4,0,0,0,61,32.48a3.2,3.2,0,0,0-1.4-.31,3,3,0,0,0-1.19.25,3,3,0,0,0-.94.69,3.32,3.32,0,0,0-.61,1,3.62,3.62,0,0,0-.22,1.23v0a3.63,3.63,0,0,0,.22,1.24,3.26,3.26,0,0,0,.61,1,2.69,2.69,0,0,0,.93.7,2.8,2.8,0,0,0,1.2.25,3,3,0,0,0,1.48-.32,5.47,5.47,0,0,0,1.21-.87l1.43,1.44a7.24,7.24,0,0,1-.82.76,4.86,4.86,0,0,1-.93.58,4.58,4.58,0,0,1-1.1.36A6.81,6.81,0,0,1,59.52,40.66Z"/><path class="cls-1" d="M65.5,30.28h2.25v4h4.14v-4h2.25V40.49H71.89v-4.1H67.75v4.1H65.5Z"/><path class="cls-1" d="M76.27,38.16h2.35v2.33H76.27Z"/><path class="cls-1" d="M90.06,40.66a5.84,5.84,0,0,1-2.18-.39,5,5,0,0,1-1.69-1.09,4.93,4.93,0,0,1-1.11-1.67,5.53,5.53,0,0,1-.39-2.1v0a5.2,5.2,0,0,1,.4-2.05,5.27,5.27,0,0,1,1.12-1.67,5,5,0,0,1,1.69-1.14A5.38,5.38,0,0,1,90,30.1a6.81,6.81,0,0,1,1.25.1,5.56,5.56,0,0,1,1,.27,4.66,4.66,0,0,1,.9.43,9,9,0,0,1,.82.6l-1.42,1.71a5.55,5.55,0,0,0-.58-.44,5.07,5.07,0,0,0-.61-.32,2.84,2.84,0,0,0-.68-.2,3.94,3.94,0,0,0-.8-.08,2.58,2.58,0,0,0-1.14.26,3,3,0,0,0-.94.69,3.14,3.14,0,0,0-.63,1A3.32,3.32,0,0,0,87,35.36v0a3.57,3.57,0,0,0,.22,1.29,3.27,3.27,0,0,0,.65,1,3,3,0,0,0,1,.68,3.17,3.17,0,0,0,1.25.24A3.57,3.57,0,0,0,92.25,38V36.55H90V34.61h4.43v4.44a7.77,7.77,0,0,1-1.87,1.14A6.14,6.14,0,0,1,90.06,40.66Z"/><path class="cls-1" d="M96.58,30.28h7.69v2H98.8v2.07h4.81v2H98.8v2.14h5.54v2H96.58Z"/><path class="cls-1" d="M108.73,32.35h-3.1V30.28h8.46v2.07H111v8.14h-2.25Z"/><path class="cls-1" d="M120.19,30.28H128v2h-5.53v2.21h4.87v2h-4.87v4h-2.25Z"/><path class="cls-1" d="M129.86,30.28h2.25V40.49h-2.25Z"/><path class="cls-1" d="M137,32.35h-3.11V30.28h8.47v2.07h-3.11v8.14H137Z"/><path class="cls-1" d="M143.8,38.16h2.35v2.33H143.8Z"/><path class="cls-1" d="M157.58,40.66a5.91,5.91,0,0,1-2.18-.39,5.12,5.12,0,0,1-1.69-1.09,4.91,4.91,0,0,1-1.1-1.67,5.53,5.53,0,0,1-.4-2.1v0a5.21,5.21,0,0,1,.41-2.05,5.21,5.21,0,0,1,2.8-2.81,5.42,5.42,0,0,1,2.15-.42,6.88,6.88,0,0,1,1.25.1,5.46,5.46,0,0,1,1,.27,4.66,4.66,0,0,1,.9.43,6.89,6.89,0,0,1,.82.6l-1.41,1.71a5.63,5.63,0,0,0-.59-.44,4.3,4.3,0,0,0-.6-.32,3,3,0,0,0-.68-.2,4,4,0,0,0-.8-.08,2.65,2.65,0,0,0-1.15.26,3.15,3.15,0,0,0-1.56,1.7,3.32,3.32,0,0,0-.23,1.23v0a3.57,3.57,0,0,0,.23,1.29,2.95,2.95,0,0,0,1.62,1.72,3.13,3.13,0,0,0,1.25.24,3.54,3.54,0,0,0,2.11-.62V36.55h-2.26V34.61H162v4.44a7.84,7.84,0,0,1-1.88,1.14A6.08,6.08,0,0,1,157.58,40.66Z"/><path class="cls-1" d="M164.11,30.28h7.68v2h-5.47v2.07h4.82v2h-4.82v2.14h5.55v2h-7.76Z"/><path class="cls-1" d="M176.26,32.35h-3.11V30.28h8.46v2.07h-3.1v8.14h-2.25Z"/><path class="cls-1" d="M191.36,40.64a6.71,6.71,0,0,1-2.29-.41A5.81,5.81,0,0,1,187,39l1.32-1.59a7.06,7.06,0,0,0,1.44.91,3.9,3.9,0,0,0,1.61.33,2,2,0,0,0,1.09-.25.81.81,0,0,0,.39-.71v0a.93.93,0,0,0-.08-.39.91.91,0,0,0-.31-.31,2.68,2.68,0,0,0-.63-.29c-.27-.1-.62-.2-1-.31s-1-.27-1.41-.42a4.17,4.17,0,0,1-1.07-.58,2.35,2.35,0,0,1-.68-.85,3,3,0,0,1-.24-1.27v0a3,3,0,0,1,.26-1.26,2.92,2.92,0,0,1,.73-1,3.27,3.27,0,0,1,1.13-.63,4.44,4.44,0,0,1,1.44-.22,6,6,0,0,1,2.07.34,5.83,5.83,0,0,1,1.72,1l-1.16,1.69a7.87,7.87,0,0,0-1.34-.74,3.66,3.66,0,0,0-1.32-.27,1.57,1.57,0,0,0-1,.26.77.77,0,0,0-.33.63v0a.94.94,0,0,0,.09.43.8.8,0,0,0,.35.33,3,3,0,0,0,.68.28l1.09.31a9.69,9.69,0,0,1,1.38.46,3.58,3.58,0,0,1,1,.61,2.33,2.33,0,0,1,.63.84,2.68,2.68,0,0,1,.22,1.15v0a3.19,3.19,0,0,1-.28,1.35,2.77,2.77,0,0,1-.77,1,3.43,3.43,0,0,1-1.17.61A5.16,5.16,0,0,1,191.36,40.64Z"/><path class="cls-1" d="M197.05,30.28h2.42l2.69,4.32,2.68-4.32h2.42V40.49h-2.21V33.82l-2.88,4.36h-.06l-2.84-4.31v6.62h-2.22Z"/><path class="cls-1" d="M213.22,30.2h2.07l4.38,10.29h-2.35l-.94-2.29h-4.32l-.93,2.29h-2.29Zm2.36,6-1.36-3.31-1.35,3.31Z"/><path class="cls-1" d="M221.24,30.28h4.67a4,4,0,0,1,3,1,3.18,3.18,0,0,1,.87,2.34v0a3.23,3.23,0,0,1-.6,2,3.49,3.49,0,0,1-1.59,1.14l2.5,3.65h-2.63l-2.19-3.27h-1.76v3.27h-2.25Zm4.53,5a1.81,1.81,0,0,0,1.27-.4,1.32,1.32,0,0,0,.45-1.05v0a1.3,1.3,0,0,0-.47-1.09,2.07,2.07,0,0,0-1.3-.37h-2.23v2.94Z"/><path class="cls-1" d="M234.17,32.35h-3.11V30.28h8.46v2.07h-3.1v8.14h-2.25Z"/><path class="cls-1" d="M241.25,30.28h7.68v2h-5.47v2.07h4.82v2h-4.82v2.14H249v2h-7.76Z"/><path class="cls-1" d="M251,30.28h4.67a4,4,0,0,1,3,1,3.18,3.18,0,0,1,.87,2.34v0a3.23,3.23,0,0,1-.6,2,3.49,3.49,0,0,1-1.59,1.14l2.5,3.65h-2.63L255,37.22h-1.76v3.27H251Zm4.52,5a1.84,1.84,0,0,0,1.28-.4,1.32,1.32,0,0,0,.45-1.05v0a1.3,1.3,0,0,0-.47-1.09,2.07,2.07,0,0,0-1.3-.37h-2.23v2.94Z"/><path class="cls-1" d="M261.25,38.16h2.35v2.33h-2.35Z"/><path class="cls-1" d="M287.38,9.5s-2.31-.21-2.21,1.48,1.37,1.78,2.73,1.89,8.42.84,8.42.84l.42,9.78s-4.21-1.68-6.52.21-2.42,3.47-2.53,4.1-.42,2.74,1.27,3.05a2.25,2.25,0,0,0,2.73-2c0-.94,1.47-2.94,3.26-2.52a18.18,18.18,0,0,1,3.47,1.26l-.52,10.94s.31,8.31,3.57,7.46,1.16-4.94,1.16-4.94a22.11,22.11,0,0,1-.53-7.57c.53-3.58,2.42-8.94.74-18.09,0,0,1.36-.1,3.05,2.21s3.05,5.78,5.26,4.31-2.53-6.62-4.32-8.31-5-6.09-7.25-5.46-3.16,1.89-5.05,2A60,60,0,0,1,287.38,9.5Z"/><circle class="cls-1" cx="298.21" cy="3.58" r="3.58"/></g></g></svg>